<svg id="Login-rafiki" xmlns="http://www.w3.org/2000/svg" width="277.935" height="207.095" viewBox="0 0 277.935 207.095">
  <g id="freepik--background-complete--inject-33" transform="translate(0 0)">
    <rect id="Retângulo_525" data-name="Retângulo 525" width="277.935" height="0.139" transform="translate(0 181.992)" fill="#ebebeb"/>
    <rect id="Retângulo_526" data-name="Retângulo 526" width="12.051" height="0.139" transform="translate(238.034 190.936)" fill="#ebebeb"/>
    <rect id="Retângulo_527" data-name="Retângulo 527" width="18.961" height="0.139" transform="translate(172.631 188.056)" fill="#ebebeb"/>
    <rect id="Retângulo_528" data-name="Retângulo 528" width="24.753" height="0.139" transform="translate(220.452 185.777)" fill="#ebebeb"/>
    <rect id="Retângulo_529" data-name="Retângulo 529" width="6.192" height="0.139" transform="translate(89.984 188.579)" fill="#ebebeb"/>
    <rect id="Retângulo_530" data-name="Retângulo 530" width="21.34" height="0.139" transform="translate(63.691 188.579)" fill="#ebebeb"/>
    <rect id="Retângulo_531" data-name="Retângulo 531" width="15.398" height="0.139" transform="translate(36.86 186.233)" fill="#ebebeb"/>
    <path id="Caminho_10906" data-name="Caminho 10906" d="M148.711,212.2H41.378a3.174,3.174,0,0,1-3.168-3.174V58.146A3.174,3.174,0,0,1,41.378,55H148.711a3.174,3.174,0,0,1,3.174,3.174V209.026A3.174,3.174,0,0,1,148.711,212.2ZM41.378,55.111a3.035,3.035,0,0,0-3.029,3.035v150.88a3.035,3.035,0,0,0,3.029,3.035H148.711a3.041,3.041,0,0,0,3.035-3.035V58.146a3.041,3.041,0,0,0-3.035-3.035Z" transform="translate(-16.97 -55)" fill="#ebebeb"/>
    <path id="Caminho_10907" data-name="Caminho 10907" d="M365.012,212.2H257.674a3.18,3.18,0,0,1-3.174-3.174V58.146A3.18,3.18,0,0,1,257.674,55H365.012a3.174,3.174,0,0,1,3.163,3.146v150.88A3.174,3.174,0,0,1,365.012,212.2ZM257.674,55.111a3.041,3.041,0,0,0-3.035,3.035v150.88a3.041,3.041,0,0,0,3.035,3.035H365.012a3.041,3.041,0,0,0,3.035-3.035V58.146a3.041,3.041,0,0,0-3.035-3.035Z" transform="translate(-113.031 -55)" fill="#ebebeb"/>
    <path id="Caminho_10908" data-name="Caminho 10908" d="M113.859,156.056a11.623,11.623,0,0,0,0-23.246H112.43v23.246Z" transform="translate(-49.934 -89.558)" fill="#e0e0e0"/>
    <ellipse id="Elipse_23" data-name="Elipse 23" cx="11.623" cy="11.623" rx="11.623" ry="11.623" transform="translate(50.862 43.252)" fill="#f5f5f5"/>
    <path id="Caminho_10909" data-name="Caminho 10909" d="M99.014,135.315A15.564,15.564,0,0,1,83.45,119.75v-9.289a1.462,1.462,0,1,1,2.924,0v9.294A12.652,12.652,0,0,0,99.009,132.4a1.462,1.462,0,1,1,0,2.918Z" transform="translate(-37.063 -78.983)" fill="#e0e0e0"/>
    <path id="Caminho_10910" data-name="Caminho 10910" d="M60.685,115.26H86.544a2.7,2.7,0,0,0,2.613-3.391l-2.251-8.477A2.7,2.7,0,0,0,84.3,101.38H62.931a2.707,2.707,0,0,0-2.613,2.012l-2.223,8.466a2.7,2.7,0,0,0,2.59,3.4Z" transform="translate(-25.76 -75.599)" fill="#f5f5f5"/>
    <path id="Caminho_10911" data-name="Caminho 10911" d="M409.139,156.056a11.623,11.623,0,0,0,0-23.246H407.71v23.246Z" transform="translate(-181.077 -89.558)" fill="#e0e0e0"/>
    <ellipse id="Elipse_24" data-name="Elipse 24" cx="11.623" cy="11.623" rx="11.623" ry="11.623" transform="translate(215.01 43.252)" fill="#f5f5f5"/>
    <path id="Caminho_10912" data-name="Caminho 10912" d="M394.314,135.315a15.564,15.564,0,0,1-15.564-15.564v-9.289a1.462,1.462,0,1,1,2.924,0v9.294a12.652,12.652,0,0,0,12.635,12.64,1.462,1.462,0,1,1,0,2.918Z" transform="translate(-168.215 -78.983)" fill="#e0e0e0"/>
    <path id="Caminho_10913" data-name="Caminho 10913" d="M355.988,115.269h25.859a2.7,2.7,0,0,0,2.613-3.391l-2.223-8.466a2.7,2.7,0,0,0-2.607-2.012h-21.4a2.707,2.707,0,0,0-2.613,2.012l-2.223,8.466a2.7,2.7,0,0,0,2.59,3.391Z" transform="translate(-156.914 -75.608)" fill="#f5f5f5"/>
    <rect id="Retângulo_532" data-name="Retângulo 532" width="8.455" height="32.757" transform="translate(82.93 145.004) rotate(180)" fill="#e6e6e6"/>
    <path id="Caminho_10914" data-name="Caminho 10914" d="M92.75,285.218H120.8l4.236-38.338H96.986Z" transform="translate(-41.193 -140.22)" fill="#f0f0f0"/>
    <path id="Caminho_10915" data-name="Caminho 10915" d="M87.28,285.218h28.983L120.5,246.88H91.521Z" transform="translate(-38.764 -140.22)" fill="#f5f5f5"/>
    <path id="Caminho_10916" data-name="Caminho 10916" d="M116.375,284.616l3.569-32.3H95.819l-3.569,32.3Z" transform="translate(-40.971 -142.636)" fill="#fff"/>
    <path id="Caminho_10917" data-name="Caminho 10917" d="M118.049,283.05l.172-1.3c.895-8.1-4.163-15.325-10.734-15.325h0l-.15,1.317c-.895,8.1,4.163,15.32,10.739,15.32Z" transform="translate(-47.626 -148.903)" fill="#f5f5f5"/>
    <rect id="Retângulo_533" data-name="Retângulo 533" width="24.925" height="36.993" transform="translate(57.771 181.992) rotate(180)" fill="#e6e6e6"/>
    <path id="Caminho_10918" data-name="Caminho 10918" d="M61.587,376.7H59.08V369.57h5.136Z" transform="translate(-26.239 -194.71)" fill="#f0f0f0"/>
    <rect id="Retângulo_534" data-name="Retângulo 534" width="24.925" height="36.993" transform="translate(127.628 181.992) rotate(180)" fill="#e6e6e6"/>
    <rect id="Retângulo_535" data-name="Retângulo 535" width="72.046" height="32.613" transform="translate(104.887 177.617) rotate(180)" fill="#f0f0f0"/>
    <path id="Caminho_10919" data-name="Caminho 10919" d="M182.079,376.7h2.507V369.57H179.45Z" transform="translate(-79.699 -194.71)" fill="#f0f0f0"/>
    <rect id="Retângulo_536" data-name="Retângulo 536" width="68.155" height="13.163" transform="translate(102.941 160.202) rotate(180)" fill="#e6e6e6"/>
    <path id="Caminho_10920" data-name="Caminho 10920" d="M107.369,331.411h9.088A14.363,14.363,0,0,0,126.9,326.92H96.93a14.38,14.38,0,0,0,10.439,4.491Z" transform="translate(-43.05 -175.768)" fill="#f0f0f0"/>
    <rect id="Retângulo_537" data-name="Retângulo 537" width="68.155" height="13.163" transform="translate(102.941 175.488) rotate(180)" fill="#e6e6e6"/>
    <path id="Caminho_10921" data-name="Caminho 10921" d="M107.369,358.871h9.088A14.364,14.364,0,0,0,126.9,354.38H96.93a14.38,14.38,0,0,0,10.439,4.491Z" transform="translate(-43.05 -187.964)" fill="#f0f0f0"/>
    <path id="Caminho_10922" data-name="Caminho 10922" d="M179.8,291.382h.645c0-1.329,0-4.692.067-12.4.117-13.98.339-14.831.339-14.831l-1.534,6.454C178.345,277.747,179.6,284.928,179.8,291.382Z" transform="translate(-79.479 -147.89)" fill="#e6e6e6"/>
    <path id="Caminho_10923" data-name="Caminho 10923" d="M168.546,270.754c-2.223-2.629-6.921-3.4-11.746-4.052-1.9-.256,4.975,4.075,8.338,7.148,2.613,2.39,4.28,3.052,5,5.431C170.508,276.312,170.447,273.038,168.546,270.754Z" transform="translate(-69.496 -149.018)" fill="#e6e6e6"/>
    <path id="Caminho_10924" data-name="Caminho 10924" d="M182.041,279.238c2.223-2.629,6.921-3.391,11.745-4.047,1.9-.256-5,4.075-8.338,7.148-2.613,2.39-4.28,3.052-5,5.431C180.079,284.8,180.118,281.506,182.041,279.238Z" transform="translate(-80.061 -152.789)" fill="#e6e6e6"/>
    <path id="Caminho_10925" data-name="Caminho 10925" d="M180.848,257.209c1.668-3.146,5.814-6.115,10.489-7.226,1.834-.439-4.252,5.8-6.565,9.833-1.8,3.124-4.175,6.8-4.547,9.45C179.669,264.051,179.191,260.372,180.848,257.209Z" transform="translate(-79.813 -141.588)" fill="#e6e6e6"/>
    <path id="Caminho_10926" data-name="Caminho 10926" d="M178.171,312.328h0c-1.968,0-3.6-.984-3.713-2.251l-.328-2.157h8.088l-.334,2.157C181.773,311.344,180.172,312.328,178.171,312.328Z" transform="translate(-77.337 -167.33)" fill="#f0f0f0"/>
    <path id="Caminho_10927" data-name="Caminho 10927" d="M182.114,307.487h-9.133l-.261-2.407h9.655Z" transform="translate(-76.71 -166.068)" fill="#f0f0f0"/>
    <rect id="Retângulo_538" data-name="Retângulo 538" width="89.056" height="81.229" transform="translate(183.298 95.454) rotate(180)" fill="#e6e6e6"/>
    <rect id="Retângulo_539" data-name="Retângulo 539" width="90.184" height="81.229" transform="translate(182.425 95.454) rotate(180)" fill="#f5f5f5"/>
    <rect id="Retângulo_540" data-name="Retângulo 540" width="73.953" height="82.991" transform="translate(178.823 17.866) rotate(90)" fill="#fafafa"/>
    <path id="Caminho_10928" data-name="Caminho 10928" d="M268.428,161.093,235.765,87.14h-11.1l32.663,73.953Z" transform="translate(-99.783 -69.274)" fill="#fff"/>
    <path id="Caminho_10929" data-name="Caminho 10929" d="M245.571,161.093,212.908,87.14H205.27l32.663,73.953Z" transform="translate(-91.167 -69.274)" fill="#fff"/>
    <rect id="Retângulo_541" data-name="Retângulo 541" width="73.953" height="4.291" transform="translate(126.649 17.86) rotate(90)" fill="#e6e6e6"/>
    <rect id="Retângulo_542" data-name="Retângulo 542" width="73.953" height="4.291" transform="translate(155.176 17.86) rotate(90)" fill="#e6e6e6"/>
    <rect id="Retângulo_543" data-name="Retângulo 543" width="78.967" height="5.425" transform="translate(125.877 15.159) rotate(90)" fill="#f5f5f5"/>
    <rect id="Retângulo_544" data-name="Retângulo 544" width="78.967" height="5.425" transform="translate(154.404 15.159) rotate(90)" fill="#f5f5f5"/>
    <rect id="Retângulo_545" data-name="Retângulo 545" width="73.953" height="0.384" transform="translate(96.221 17.866) rotate(90)" fill="#e6e6e6"/>
    <path id="Caminho_10930" data-name="Caminho 10930" d="M162.847,72.17h96.477a.472.472,0,0,1,.467.467h0a.467.467,0,0,1-.467.461H162.847a.467.467,0,0,1-.467-.461h0A.472.472,0,0,1,162.847,72.17Z" transform="translate(-72.118 -62.626)" fill="#e6e6e6"/>
    <path id="Caminho_10931" data-name="Caminho 10931" d="M329.248,75.6h0a.628.628,0,0,0,.623-.628V73.628a.623.623,0,0,0-.623-.628h0a.628.628,0,0,0-.628.623v1.345a.634.634,0,0,0,.628.634Z" transform="translate(-145.95 -62.994)" fill="#e6e6e6"/>
    <path id="Caminho_10932" data-name="Caminho 10932" d="M175.3,75.6h0a.634.634,0,0,0,.628-.628V73.628A.628.628,0,0,0,175.3,73h0a.623.623,0,0,0-.623.623v1.345A.628.628,0,0,0,175.3,75.6Z" transform="translate(-77.581 -62.994)" fill="#e6e6e6"/>
    <rect id="Retângulo_546" data-name="Retângulo 546" width="90.123" height="63.614" transform="translate(180.997 73.619) rotate(180)" fill="#e0e0e0" opacity="0.6"/>
    <rect id="Retângulo_547" data-name="Retângulo 547" width="21.523" height="13.174" rx="5.38" transform="translate(170.624 113.937)" fill="#fafafa"/>
    <rect id="Retângulo_548" data-name="Retângulo 548" width="21.523" height="2.824" rx="1.412" transform="translate(170.624 111.502)" fill="#e6e6e6"/>
    <path id="Caminho_10933" data-name="Caminho 10933" d="M307.52,310s.284,9.266,11.079,9.266S329.677,310,329.677,310Z" transform="translate(-136.579 -168.253)" fill="#f0f0f0"/>
    <path id="Caminho_10934" data-name="Caminho 10934" d="M351.8,310s.284,9.266,11.078,9.266S373.957,310,373.957,310Z" transform="translate(-156.245 -168.253)" fill="#f0f0f0"/>
    <rect id="Retângulo_549" data-name="Retângulo 549" width="29.572" height="19.144" rx="7.4" transform="translate(186.905 107.972)" fill="#f0f0f0"/>
    <rect id="Retângulo_550" data-name="Retângulo 550" width="29.572" height="3.88" rx="1.94" transform="translate(186.905 104.626)" fill="#f5f5f5"/>
    <rect id="Retângulo_551" data-name="Retângulo 551" width="2.802" height="45.937" transform="translate(165.61 181.992) rotate(180)" fill="#e6e6e6"/>
    <rect id="Retângulo_552" data-name="Retângulo 552" width="15.17" height="8.938" transform="translate(228.535 127.111)" fill="#e6e6e6"/>
    <rect id="Retângulo_553" data-name="Retângulo 553" width="75.42" height="8.938" transform="translate(228.529 136.055) rotate(180)" fill="#f5f5f5"/>
    <rect id="Retângulo_554" data-name="Retângulo 554" width="15.17" height="8.938" transform="translate(228.535 150.985)" fill="#e6e6e6"/>
    <rect id="Retângulo_555" data-name="Retângulo 555" width="75.42" height="8.938" transform="translate(228.529 159.924) rotate(180)" fill="#f5f5f5"/>
    <rect id="Retângulo_556" data-name="Retângulo 556" width="2.802" height="45.937" transform="translate(241.03 181.992) rotate(180)" fill="#e6e6e6"/>
    <rect id="Retângulo_557" data-name="Retângulo 557" width="2.802" height="45.937" transform="translate(228.535 181.992) rotate(180)" fill="#f5f5f5"/>
    <rect id="Retângulo_558" data-name="Retângulo 558" width="2.802" height="45.937" transform="translate(155.91 181.992) rotate(180)" fill="#f5f5f5"/>
  </g>
  <g id="freepik--Shadow--inject-33" transform="translate(31.19 194.51)">
    <ellipse id="freepik--path--inject-33" cx="107.777" cy="6.292" rx="107.777" ry="6.292" fill="#f5f5f5"/>
  </g>
  <g id="freepik--Login--inject-33" transform="translate(63.027 36.943)">
    <path id="Caminho_10935" data-name="Caminho 10935" d="M195.112,260.321H124.2a4.519,4.519,0,0,1-4.447-4.247l-6.359-123.153a3.986,3.986,0,0,1,4.024-4.241H188.33a4.514,4.514,0,0,1,4.447,4.241l6.348,123.153a3.991,3.991,0,0,1-4.013,4.247Z" transform="translate(-113.385 -124.666)" fill="#eb7824"/>
    <path id="Caminho_10936" data-name="Caminho 10936" d="M195.112,260.321H124.2a4.519,4.519,0,0,1-4.447-4.247l-6.359-123.153a3.986,3.986,0,0,1,4.024-4.241H188.33a4.514,4.514,0,0,1,4.447,4.241l6.348,123.153a3.991,3.991,0,0,1-4.013,4.247Z" transform="translate(-113.385 -124.666)" fill="#fff" opacity="0.8"/>
    <rect id="Retângulo_559" data-name="Retângulo 559" width="7.843" height="0.556" transform="translate(60.103)" fill="#eb7824"/>
    <rect id="Retângulo_560" data-name="Retângulo 560" width="2.874" height="0.556" transform="translate(54.511)" fill="#eb7824"/>
    <path id="Caminho_10937" data-name="Caminho 10937" d="M203.449,250.849H135.633a4.319,4.319,0,0,1-4.269-4.052l-6.07-117.789a3.813,3.813,0,0,1,3.852-4.058h67.816a4.319,4.319,0,0,1,4.264,4.058L207.3,246.8a3.808,3.808,0,0,1-3.847,4.052Z" transform="translate(-118.671 -123.01)" fill="#eb7824"/>
    <path id="Caminho_10938" data-name="Caminho 10938" d="M205.61,250.309H137.794a1.623,1.623,0,0,1-1.562-1.49l-6.076-117.783a1.109,1.109,0,0,1,1.145-1.206h67.816a1.623,1.623,0,0,1,1.556,1.49l6.1,117.783a1.112,1.112,0,0,1-1.14,1.206ZM131.3,129.968a1,1,0,0,0-.745.3,1.023,1.023,0,0,0-.261.762l6.07,117.783a1.484,1.484,0,0,0,1.423,1.356H205.6a.967.967,0,0,0,.739-.3.978.978,0,0,0,.261-.762l-6.065-117.783a1.479,1.479,0,0,0-1.417-1.356Z" transform="translate(-120.832 -125.177)" fill="#fff"/>
    <ellipse id="Elipse_25" data-name="Elipse 25" cx="20.011" cy="21.067" rx="20.011" ry="21.067" transform="translate(16.916 32.506) rotate(-45.74)" fill="#fff" opacity="0.3"/>
    <path id="Caminho_10939" data-name="Caminho 10939" d="M199.433,167.339a15.959,15.959,0,0,1-1.6,7.916,15.6,15.6,0,0,1-14.158,8.7,17.649,17.649,0,0,1-15.053-8.7,17.11,17.11,0,0,1-2.412-7.916,15.614,15.614,0,0,1,15.753-16.609,17.682,17.682,0,0,1,17.465,16.609Z" transform="translate(-136.834 -134.459)" fill="#fff"/>
    <path id="Caminho_10940" data-name="Caminho 10940" d="M199.761,191.3A15.6,15.6,0,0,1,185.6,200a17.649,17.649,0,0,1-15.053-8.7,25.1,25.1,0,0,1,14.375-4.447A27.315,27.315,0,0,1,199.761,191.3Z" transform="translate(-138.774 -150.502)" fill="#eb7824"/>
    <ellipse id="Elipse_26" data-name="Elipse 26" cx="7.21" cy="7.593" rx="7.21" ry="7.593" transform="translate(35.211 27.058) rotate(-45.74)" fill="#eb7824"/>
    <path id="Caminho_10941" data-name="Caminho 10941" d="M204.217,260.042h-53.1a1.829,1.829,0,0,1-1.807-1.718l-.4-7.782a1.612,1.612,0,0,1,1.629-1.712h53.1a1.829,1.829,0,0,1,1.807,1.712l.4,7.782a1.612,1.612,0,0,1-1.629,1.718Z" transform="translate(-129.16 -178.029)" fill="#fff"/>
    <path id="Caminho_10942" data-name="Caminho 10942" d="M199.922,237.018H177.743a1.829,1.829,0,0,1-1.812-1.723l-.083-1.668a1.612,1.612,0,0,1,1.629-1.718H199.65a1.829,1.829,0,0,1,1.807,1.718l.089,1.668a1.623,1.623,0,0,1-1.623,1.723Z" transform="translate(-141.125 -170.514)" opacity="0.3"/>
    <path id="Caminho_10943" data-name="Caminho 10943" d="M204.84,328.573H171.616a3.118,3.118,0,0,1-3.074-2.924l-.195-3.835a2.779,2.779,0,0,1,2.779-2.924H204.34a3.118,3.118,0,0,1,3.074,2.924l.195,3.835a2.779,2.779,0,0,1-2.768,2.924Z" transform="translate(-137.794 -209.145)" opacity="0.3"/>
    <path id="Caminho_10944" data-name="Caminho 10944" d="M205.962,293.9H152.854a1.834,1.834,0,0,1-1.807-1.718l-.4-7.782a1.618,1.618,0,0,1,1.629-1.718h53.1a1.829,1.829,0,0,1,1.807,1.718l.406,7.782a1.623,1.623,0,0,1-1.629,1.718Z" transform="translate(-129.933 -193.063)" fill="#fff"/>
    <path id="Caminho_10945" data-name="Caminho 10945" d="M161.959,257.391a1.79,1.79,0,0,1-1.807,1.9,2.023,2.023,0,0,1-2-1.9,1.784,1.784,0,0,1,1.8-1.9A2.029,2.029,0,0,1,161.959,257.391Z" transform="translate(-133.268 -180.987)" fill="#263238"/>
    <path id="Caminho_10946" data-name="Caminho 10946" d="M172.494,257.391a1.784,1.784,0,0,1-1.8,1.9,2.018,2.018,0,0,1-2-1.9,1.784,1.784,0,0,1,1.8-1.9A2.018,2.018,0,0,1,172.494,257.391Z" transform="translate(-137.949 -180.987)" fill="#263238"/>
    <path id="Caminho_10947" data-name="Caminho 10947" d="M182.959,257.391a1.784,1.784,0,0,1-1.8,1.9,2.029,2.029,0,0,1-2-1.9,1.79,1.79,0,0,1,1.807-1.9A2.023,2.023,0,0,1,182.959,257.391Z" transform="translate(-142.595 -180.987)" fill="#263238"/>
    <path id="Caminho_10948" data-name="Caminho 10948" d="M193.509,257.391a1.79,1.79,0,0,1-1.8,1.9,2.029,2.029,0,0,1-2-1.9,1.79,1.79,0,0,1,1.8-1.9A2.029,2.029,0,0,1,193.509,257.391Z" transform="translate(-147.281 -180.987)" fill="#263238"/>
    <path id="Caminho_10949" data-name="Caminho 10949" d="M163.729,291.231a1.784,1.784,0,0,1-1.8,1.9,2.029,2.029,0,0,1-2-1.9,1.79,1.79,0,0,1,1.807-1.9A2.023,2.023,0,0,1,163.729,291.231Z" transform="translate(-134.054 -196.016)" fill="#263238"/>
    <path id="Caminho_10950" data-name="Caminho 10950" d="M174.239,291.231a1.79,1.79,0,0,1-1.8,1.9,2.029,2.029,0,0,1-2-1.9,1.784,1.784,0,0,1,1.8-1.9,2.029,2.029,0,0,1,2,1.9Z" transform="translate(-138.722 -196.016)" fill="#263238"/>
    <path id="Caminho_10951" data-name="Caminho 10951" d="M184.749,291.231a1.79,1.79,0,0,1-1.807,1.9,2.018,2.018,0,0,1-2-1.9,1.784,1.784,0,0,1,1.8-1.9,2.029,2.029,0,0,1,2,1.9Z" transform="translate(-143.39 -196.016)" fill="#263238"/>
    <path id="Caminho_10952" data-name="Caminho 10952" d="M195.249,291.231a1.784,1.784,0,0,1-1.8,1.9,2.029,2.029,0,0,1-2-1.9,1.79,1.79,0,0,1,1.807-1.9,2.018,2.018,0,0,1,2,1.9Z" transform="translate(-148.053 -196.016)" fill="#263238"/>
    <path id="Caminho_10953" data-name="Caminho 10953" d="M205.759,291.231a1.784,1.784,0,0,1-1.8,1.9,2.029,2.029,0,0,1-2-1.9,1.79,1.79,0,0,1,1.8-1.9,2.029,2.029,0,0,1,2,1.9Z" transform="translate(-152.721 -196.016)" fill="#263238"/>
    <path id="Caminho_10954" data-name="Caminho 10954" d="M216.269,291.231a1.79,1.79,0,0,1-1.807,1.9,2.023,2.023,0,0,1-2-1.9,1.784,1.784,0,0,1,1.8-1.9,2.029,2.029,0,0,1,2,1.9Z" transform="translate(-157.389 -196.016)" fill="#263238"/>
  </g>
  <g id="freepik--Character--inject-33" transform="translate(130.696 27.568)">
    <path id="Caminho_10955" data-name="Caminho 10955" d="M329.069,176.62c.139.211.211.322.3.472l.25.411c.161.278.306.556.445.828.278.556.556,1.112.778,1.668a30.7,30.7,0,0,1,1.2,3.385,35.449,35.449,0,0,1,1.323,6.971l.039.439a2.56,2.56,0,0,1,0,.267v.295a7.115,7.115,0,0,1-.067,1.156,9.525,9.525,0,0,1-.556,2.073,14.348,14.348,0,0,1-1.923,3.335,23.841,23.841,0,0,1-5.175,4.9l-1.534-1.8a31.879,31.879,0,0,0,3.691-5.108,11.673,11.673,0,0,0,1.112-2.624,5.3,5.3,0,0,0,.183-1.19,2.6,2.6,0,0,0,0-.517v-.117a.721.721,0,0,0,0-.156l-.067-.389a44.06,44.06,0,0,0-1.512-6.115c-.322-1-.717-1.957-1.112-2.9-.195-.472-.417-.934-.639-1.379l-.345-.656-.172-.306-.145-.245Z" transform="translate(-274.661 -136.583)" fill="#803e3c"/>
    <path id="Caminho_10956" data-name="Caminho 10956" d="M323.7,222.023l2.012,4.252,1.6-3.6s-1.417-3.113-3.335-2.824Z" transform="translate(-274.461 -155.777)" fill="#7f3e3b"/>
    <path id="Caminho_10957" data-name="Caminho 10957" d="M328.76,228.758l1.6-2.624-1.445-1.184-1.6,3.6Z" transform="translate(-276.069 -158.048)" fill="#7f3e3b"/>
    <path id="Caminho_10958" data-name="Caminho 10958" d="M312.77,407.276A5.71,5.71,0,0,0,314,407.11a.122.122,0,0,0,.083-.089.111.111,0,0,0-.05-.111c-.161-.106-1.573-1.017-2.118-.773a.378.378,0,0,0-.217.311.628.628,0,0,0,.183.556A1.317,1.317,0,0,0,312.77,407.276Zm.917-.328a2.225,2.225,0,0,1-1.668-.078.428.428,0,0,1-.117-.395.135.135,0,0,1,.095-.139C312.3,406.2,313.115,406.6,313.688,406.948Z" transform="translate(-269.129 -238.5)" fill="#eb7824"/>
    <path id="Caminho_10959" data-name="Caminho 10959" d="M314.8,406.246h.056a.122.122,0,0,0,.056-.1c0-.056,0-1.4-.511-1.845a.584.584,0,0,0-.467-.145.384.384,0,0,0-.372.306c-.106.528.739,1.529,1.184,1.784Zm-.795-1.884a.339.339,0,0,1,.245.095,2.518,2.518,0,0,1,.434,1.467c-.445-.356-.973-1.112-.906-1.429,0-.05.039-.117.178-.133Z" transform="translate(-269.955 -237.637)" fill="#eb7824"/>
    <path id="Caminho_10960" data-name="Caminho 10960" d="M301.928,403.983a.117.117,0,0,0-.078-.189c-.228,0-2.223-.095-2.679.395v.033a.35.35,0,0,0-.05.345.617.617,0,0,0,.406.406c.645.2,1.784-.528,2.407-.978Zm-2.59.35a4.4,4.4,0,0,1,2.173-.328c-.862.589-1.579.867-1.94.756a.4.4,0,0,1-.267-.267.15.15,0,0,1,0-.139Z" transform="translate(-263.534 -237.475)" fill="#eb7824"/>
    <path id="Caminho_10961" data-name="Caminho 10961" d="M302.368,402.959h0a.128.128,0,0,0,0-.111c-.028-.044-.65-1.112-1.384-1.334a.806.806,0,0,0-.634.078c-.267.156-.283.339-.25.456.145.517,1.562.973,2.173.967a.111.111,0,0,0,.094-.056Zm-2-1.112a.468.468,0,0,1,.106-.078.556.556,0,0,1,.467-.061c.484.128.934.75,1.14,1.056-.661-.072-1.668-.478-1.751-.789a.128.128,0,0,1,.039-.133Z" transform="translate(-263.974 -236.451)" fill="#eb7824"/>
    <path id="Caminho_10962" data-name="Caminho 10962" d="M307.864,147.33c-.556,2.779-1.757,8.788.172,10.634,0,0-.756,2.779-5.887,2.779-5.648,0-2.7-2.779-2.7-2.779,3.08-.734,3-3.024,2.463-5.17Z" transform="translate(-263.35 -123.575)" fill="#7f3e3b"/>
    <path id="Caminho_10963" data-name="Caminho 10963" d="M296.96,134.392a.292.292,0,0,0,.095,0,.222.222,0,0,0,.1-.3,2.19,2.19,0,0,0-1.6-1.223.228.228,0,0,0-.245.195.222.222,0,0,0,.195.245h0a1.746,1.746,0,0,1,1.256.984.222.222,0,0,0,.2.1Z" transform="translate(-261.851 -117.152)" fill="#263238"/>
    <path id="Caminho_10964" data-name="Caminho 10964" d="M293.953,140a10.152,10.152,0,0,1-1.623,2.223,1.618,1.618,0,0,0,1.3.411Z" transform="translate(-260.529 -120.319)" fill="#630f0f"/>
    <path id="Caminho_10965" data-name="Caminho 10965" d="M295.288,138.287c-.044.372-.283.65-.522.623s-.406-.356-.361-.728.284-.65.556-.623S295.327,137.914,295.288,138.287Z" transform="translate(-261.447 -119.234)" fill="#263238"/>
    <path id="Caminho_10966" data-name="Caminho 10966" d="M294.856,137.345,294,137S294.361,137.734,294.856,137.345Z" transform="translate(-261.27 -118.987)" fill="#263238"/>
    <path id="Caminho_10967" data-name="Caminho 10967" d="M307.193,393.908l-4.536,1.056L299.9,384.536l4.536-1.056Z" transform="translate(-263.891 -228.456)" fill="#7f3e3b"/>
    <path id="Caminho_10968" data-name="Caminho 10968" d="M321.823,399.108H317.17l.361-10.778h4.658Z" transform="translate(-271.561 -230.61)" fill="#7f3e3b"/>
    <path id="Caminho_10969" data-name="Caminho 10969" d="M311.138,406.75h5.231a.372.372,0,0,1,.372.322l.595,4.136a.745.745,0,0,1-.745.828c-1.823-.028-2.7-.139-5-.139-1.417,0-3.485.15-5.436.15s-2.062-1.934-1.245-2.107a9.128,9.128,0,0,0,5.453-2.9A1.206,1.206,0,0,1,311.138,406.75Z" transform="translate(-265.902 -238.791)" fill="#263238"/>
    <path id="Caminho_10970" data-name="Caminho 10970" d="M299.879,401.116l4.753-2.185a.367.367,0,0,1,.467.133l2.273,3.513a.75.75,0,0,1-.334,1.062c-1.668.734-2.512,1.006-4.6,1.968-1.284.589-3.891,1.946-5.659,2.779s-2.679-.895-2.012-1.4a12.542,12.542,0,0,0,4.525-5.27A1.19,1.19,0,0,1,299.879,401.116Z" transform="translate(-261.513 -235.303)" fill="#263238"/>
    <path id="Caminho_10971" data-name="Caminho 10971" d="M299.9,384.536l1.479,5.592,4.48-1.273-1.417-5.375Z" transform="translate(-263.891 -228.456)" opacity="0.2"/>
    <path id="Caminho_10972" data-name="Caminho 10972" d="M322.332,388.33h-4.658l-.183,5.559h4.658Z" transform="translate(-271.703 -230.61)" opacity="0.2"/>
    <path id="Caminho_10973" data-name="Caminho 10973" d="M325.841,168.3c1.934.428,4,7.382,4,7.382l-5.47,5.82s-4.541-6.537-3.613-8.938C321.7,170.061,323.534,167.8,325.841,168.3Z" transform="translate(-273.1 -132.859)" fill="#263238"/>
    <path id="Caminho_10974" data-name="Caminho 10974" d="M322.73,175.876c-.978-.895-1.64-.628-2.09.083-.445,2.068,2.19,6.4,3.252,8.038C324.381,182.041,324.942,177.916,322.73,175.876Z" transform="translate(-273.08 -136.001)" opacity="0.4"/>
    <path id="Caminho_10975" data-name="Caminho 10975" d="M285.466,167.532s-2.223.778,2.223,28.1h18.9c-.317-7.693-.328-12.44,3.335-28.238a55.742,55.742,0,0,0-8.032-1.056,59.706,59.706,0,0,0-8.583,0C289.646,166.676,285.466,167.532,285.466,167.532Z" transform="translate(-257.233 -131.948)" fill="#263238"/>
    <path id="Caminho_10976" data-name="Caminho 10976" d="M285.6,184.943c.122,1.329.283,2.824.495,4.514,1.551-1.4,2.818-5.364,2.351-7.677A13.669,13.669,0,0,0,285.6,184.943Z" transform="translate(-257.54 -138.875)" opacity="0.4"/>
    <path id="Caminho_10977" data-name="Caminho 10977" d="M269.316,178.565a82.3,82.3,0,0,1-3.441,7.532,46.279,46.279,0,0,1-4.447,7.226l-.356.439-.178.217c-.061.072-.111.139-.206.239a6.912,6.912,0,0,1-1.112.978,9.06,9.06,0,0,1-2.324,1.156,16.971,16.971,0,0,1-4.447.789,33,33,0,0,1-8.427-.75l.306-2.335c1.279,0,2.618,0,3.891-.106a31.375,31.375,0,0,0,3.813-.422,15.01,15.01,0,0,0,3.413-.956,5.1,5.1,0,0,0,1.228-.745,2.541,2.541,0,0,0,.384-.4s.067-.089.111-.15l.128-.183.261-.367A55.106,55.106,0,0,0,261.634,184c1.112-2.362,2.224-4.814,3.241-7.226Z" transform="translate(-239.233 -136.65)" fill="#803e3c"/>
    <path id="Caminho_10978" data-name="Caminho 10978" d="M281.784,168.481c-2.318.556-5.164,6.915-5.164,6.915l4.8,7.06s6.4-8.055,5.637-10.511C286.281,169.382,284.613,167.792,281.784,168.481Z" transform="translate(-253.551 -132.897)" fill="#263238"/>
    <path id="Caminho_10979" data-name="Caminho 10979" d="M243.808,207.031,239.8,205.18l-.4,3.986s3.335.984,5,0Z" transform="translate(-237.021 -149.268)" fill="#7f3e3b"/>
    <path id="Caminho_10980" data-name="Caminho 10980" d="M235.5,204.46l-.384,3.035,2.379,1.351.4-3.986Z" transform="translate(-235.12 -148.948)" fill="#7f3e3b"/>
    <path id="Caminho_10981" data-name="Caminho 10981" d="M307.928,133.334c-.85,4.541-1.112,6.487-3.713,8.549-3.891,3.1-9.311,1.067-9.833-3.635-.478-4.236.99-10.951,5.7-12.229a6.3,6.3,0,0,1,7.849,7.315Z" transform="translate(-261.402 -114.009)" fill="#7f3e3b"/>
    <path id="Caminho_10982" data-name="Caminho 10982" d="M298.87,132.14c-.261,2.318-.361,8.338,4.73,8.527,6.231.228,8.1-5.1,7.543-7.226,3.246-2.64,3.713-7.182.067-10.656s-11.673-1.534-13.9,1.851C294.5,128.833,298.87,132.14,298.87,132.14Z" transform="translate(-262.322 -111.859)" fill="#263238"/>
    <path id="Caminho_10983" data-name="Caminho 10983" d="M312.017,123.38c-.3-2.446-.067-4.13,2.223-4.13s5.414.828,6.559,3.168,1.24,6-1.957,5.631S312.378,126.3,312.017,123.38Z" transform="translate(-269.226 -111.104)" fill="#eb7824"/>
    <path id="Caminho_10984" data-name="Caminho 10984" d="M318.422,116.282c-.556-2.913,2.051-11.117,8.383-11.673,2.935-.25,4.291,2.907,2.779,3.43,2.779-.033,4.558,3.641,1.968,4.191,2.046,1.312,1.54,4-1.379,5.325C328,118.556,319.172,120.318,318.422,116.282Z" transform="translate(-272.085 -104.595)" fill="#263238"/>
    <path id="Caminho_10985" data-name="Caminho 10985" d="M325.218,126.484a10.508,10.508,0,0,1-5.492-1.184,2.718,2.718,0,0,1-1.306-2.112.145.145,0,0,1,.128-.15.133.133,0,0,1,.15.128,2.479,2.479,0,0,0,1.184,1.907c2.518,1.668,8.338,1.112,10.15.556a3.848,3.848,0,0,0,2.84-2.652,2.3,2.3,0,0,0-.928-2.223.133.133,0,0,1,0-.195.139.139,0,0,1,.195,0,2.59,2.59,0,0,1,1.028,2.518,4.1,4.1,0,0,1-3.024,2.863A18.172,18.172,0,0,1,325.218,126.484Z" transform="translate(-272.116 -111.667)" fill="#263238"/>
    <path id="Caminho_10986" data-name="Caminho 10986" d="M297.813,139.427a3.419,3.419,0,0,0-.595,2.507c.183,1.167,1.317,1.245,2.14.5s1.54-2.09.934-3.057a1.456,1.456,0,0,0-2.479.05Z" transform="translate(-262.682 -119.746)" fill="#7f3e3b"/>
    <path id="Caminho_10987" data-name="Caminho 10987" d="M298.89,219.16s2.7,31.957,5.509,49.967c2.262,14.547,4.052,48.55,4.052,48.55H314.8s2.257-32.985,1.112-47.371c-2.907-36.409,3.58-39.378-3.1-51.14Z" transform="translate(-263.442 -155.477)" fill="#eb7824"/>
    <path id="Caminho_10988" data-name="Caminho 10988" d="M308.478,240.89a31.017,31.017,0,0,0-6,9.05c.739,7.182,1.618,15.153,2.552,22.135A61.357,61.357,0,0,0,308.478,240.89Z" transform="translate(-265.037 -165.128)" opacity="0.4"/>
    <path id="Caminho_10989" data-name="Caminho 10989" d="M285.477,218.8s-5.864,34.9-6.787,50.634c2.3,14.547,11.718,45.3,11.718,45.3l5.775-2.1s-3.2-33.53-6.67-42.707c7.821-26.332,13.569-32.991,11.9-50.929C297.4,219,285.477,218.8,285.477,218.8Z" transform="translate(-254.471 -155.317)" fill="#eb7824"/>
    <path id="Caminho_10990" data-name="Caminho 10990" d="M297.585,389.961l7.8-2.118-.445-3.113-8.355,2.262Z" transform="translate(-262.421 -229.011)" fill="#263238"/>
    <path id="Caminho_10991" data-name="Caminho 10991" d="M314.484,394.124h8.088l.422-2.835L314.44,391Z" transform="translate(-270.348 -231.796)" fill="#263238"/>
    <path id="Caminho_10992" data-name="Caminho 10992" d="M308.633,217.064l.85,1.7c.067.133-.089.267-.306.267H289.345c-.167,0-.311-.083-.322-.195l-.172-1.668c0-.117.139-.217.322-.217h19.15A.35.35,0,0,1,308.633,217.064Z" transform="translate(-258.983 -154.493)" fill="#eb7824"/>
    <path id="Caminho_10993" data-name="Caminho 10993" d="M308.633,217.064l.85,1.7c.067.133-.089.267-.306.267H289.345c-.167,0-.311-.083-.322-.195l-.172-1.668c0-.117.139-.217.322-.217h19.15A.35.35,0,0,1,308.633,217.064Z" transform="translate(-258.983 -154.493)" opacity="0.5"/>
    <path id="Caminho_10994" data-name="Caminho 10994" d="M319.459,219.037h.511c.106,0,.183-.056.178-.117L319.9,216.7c0-.067-.095-.117-.195-.117h-.517c-.1,0-.178.05-.172.117l.239,2.223C319.27,218.992,319.359,219.037,319.459,219.037Z" transform="translate(-272.382 -154.331)" fill="#eb7824"/>
    <path id="Caminho_10995" data-name="Caminho 10995" d="M300.616,180.618a.289.289,0,0,1-.272-.206c-1.812-6.7-5.559-12.229-7.376-13.063a.634.634,0,0,0-.473-.078.278.278,0,1,1-.228-.506,1.112,1.112,0,0,1,.934.078c1.923.912,5.725,6.359,7.627,13.213,1.362,0,3.463-.183,3.974-.228.634-.756,5.292-6.581,3.552-12.957a.272.272,0,0,1,.195-.339.278.278,0,0,1,.339.195c1.94,7.093-3.685,13.491-3.747,13.552a.256.256,0,0,1-.178.094C304.935,180.374,302.161,180.618,300.616,180.618Z" transform="translate(-260.421 -132.099)" fill="#eb7824"/>
    <path id="Caminho_10996" data-name="Caminho 10996" d="M314.608,189.024c-3.029-5.675-4.269-6.076-4.808-7.9a9.449,9.449,0,0,1,1.723-2.779c-.367-.106-1.156-.261-1.668-.356.056-.25.117-.495.172-.734a5.3,5.3,0,0,0-1.668.078v-.556a7.227,7.227,0,0,0-2.151-.139q.095.395.183.8c-.556.106-1.4.278-1.807.395a8.005,8.005,0,0,1,1.7,3.1c-1.634,2.807-7.982,20.851,2.346,22.235S317.632,194.7,314.608,189.024Z" transform="translate(-265.202 -136.58)" fill="#eb7824"/>
    <path id="Caminho_10997" data-name="Caminho 10997" d="M314.608,189.024c-3.029-5.675-4.269-6.076-4.808-7.9a9.449,9.449,0,0,1,1.723-2.779c-.367-.106-1.156-.261-1.668-.356.056-.25.117-.495.172-.734a5.3,5.3,0,0,0-1.668.078v-.556a7.227,7.227,0,0,0-2.151-.139q.095.395.183.8c-.556.106-1.4.278-1.807.395a8.005,8.005,0,0,1,1.7,3.1c-1.634,2.807-7.982,20.851,2.346,22.235S317.632,194.7,314.608,189.024Z" transform="translate(-265.202 -136.58)" fill="#fff" opacity="0.4"/>
    <path id="Caminho_10998" data-name="Caminho 10998" d="M308.192,183.305a3.493,3.493,0,0,0-.083.873c0,.206.556.345,1.173.406s3.207.161,3.124-.128.128-.684.139-.928-1.028-.256-1.9-.222S308.364,182.994,308.192,183.305Z" transform="translate(-267.536 -139.494)" fill="#eb7824"/>
    <path id="Caminho_10999" data-name="Caminho 10999" d="M297.112,219.037h.511c.1,0,.178-.056.172-.117l-.239-2.223c0-.067-.094-.117-.2-.117h-.495c-.1,0-.178.05-.172.117l.239,2.223C296.918,218.992,297.007,219.037,297.112,219.037Z" transform="translate(-262.465 -154.331)" fill="#eb7824"/>
  </g>
</svg>
