<svg id="FOMO-rafiki" xmlns="http://www.w3.org/2000/svg" width="277.935" height="207.095" viewBox="0 0 277.935 207.095">
  <g id="freepik--background-complete--inject-206" transform="translate(0 0)">
    <rect id="Retângulo_457" data-name="Retângulo 457" width="277.935" height="0.139" transform="translate(0 181.992)" fill="#ebebeb"/>
    <rect id="Retângulo_458" data-name="Retângulo 458" width="18.41" height="0.139" transform="translate(231.675 190.936)" fill="#ebebeb"/>
    <rect id="Retângulo_459" data-name="Retângulo 459" width="4.831" height="0.139" transform="translate(179.285 192.447)" fill="#ebebeb"/>
    <rect id="Retângulo_460" data-name="Retângulo 460" width="10.667" height="0.139" transform="translate(220.452 185.777)" fill="#ebebeb"/>
    <rect id="Retângulo_461" data-name="Retângulo 461" width="24.008" height="0.139" transform="translate(29.161 186.711)" fill="#ebebeb"/>
    <rect id="Retângulo_462" data-name="Retângulo 462" width="3.519" height="0.139" transform="translate(58.122 186.711)" fill="#ebebeb"/>
    <rect id="Retângulo_463" data-name="Retângulo 463" width="52.074" height="0.139" transform="translate(73.08 189.057)" fill="#ebebeb"/>
    <path id="Caminho_10781" data-name="Caminho 10781" d="M148.711,212.2H41.378a3.174,3.174,0,0,1-3.168-3.174V58.146A3.174,3.174,0,0,1,41.378,55H148.711a3.174,3.174,0,0,1,3.174,3.174V209.026A3.174,3.174,0,0,1,148.711,212.2ZM41.378,55.111a3.035,3.035,0,0,0-3.029,3.035v150.88a3.035,3.035,0,0,0,3.029,3.035H148.711a3.041,3.041,0,0,0,3.035-3.035V58.146a3.041,3.041,0,0,0-3.035-3.035Z" transform="translate(-16.97 -55)" fill="#ebebeb"/>
    <path id="Caminho_10782" data-name="Caminho 10782" d="M365.012,212.2H257.674a3.18,3.18,0,0,1-3.174-3.174V58.146A3.18,3.18,0,0,1,257.674,55H365.012a3.174,3.174,0,0,1,3.163,3.146v150.88A3.174,3.174,0,0,1,365.012,212.2ZM257.674,55.111a3.041,3.041,0,0,0-3.035,3.035v150.88a3.041,3.041,0,0,0,3.035,3.035H365.012a3.041,3.041,0,0,0,3.035-3.035V58.146a3.041,3.041,0,0,0-3.035-3.035Z" transform="translate(-113.031 -55)" fill="#ebebeb"/>
    <rect id="Retângulo_464" data-name="Retângulo 464" width="95.204" height="50.473" transform="translate(28.372 127.861)" fill="#f0f0f0"/>
    <rect id="Retângulo_465" data-name="Retângulo 465" width="45.859" height="90.584" transform="translate(121.263 130.168) rotate(90)" fill="#e6e6e6"/>
    <rect id="Retângulo_466" data-name="Retângulo 466" width="45.859" height="10.133" transform="translate(40.806 130.168) rotate(90)" fill="#e0e0e0"/>
    <rect id="Retângulo_467" data-name="Retângulo 467" width="50.473" height="5.748" transform="translate(129.317 127.861) rotate(90)" fill="#e6e6e6"/>
    <rect id="Retângulo_468" data-name="Retângulo 468" width="2.463" height="90.584" transform="translate(121.263 151.864) rotate(90)" fill="#f0f0f0"/>
    <path id="Caminho_10783" data-name="Caminho 10783" d="M59.888,379.478H57.9l-.984-3.658h2.968Z" transform="translate(-25.28 -197.486)" fill="#f0f0f0"/>
    <path id="Caminho_10784" data-name="Caminho 10784" d="M211.08,379.478h1.984l.984-3.658H211.08Z" transform="translate(-93.747 -197.486)" fill="#f0f0f0"/>
    <path id="Caminho_10785" data-name="Caminho 10785" d="M73.823,379.478H71.838l-.978-3.658h2.963Z" transform="translate(-31.471 -197.486)" fill="#e6e6e6"/>
    <path id="Caminho_10786" data-name="Caminho 10786" d="M225.01,379.478H227l.978-3.658H225.01Z" transform="translate(-99.934 -197.486)" fill="#e6e6e6"/>
    <rect id="Retângulo_469" data-name="Retângulo 469" width="4.819" height="20.022" transform="translate(38.872 131.847)" fill="#f0f0f0"/>
    <rect id="Retângulo_470" data-name="Retângulo 470" width="12.891" height="20.022" transform="translate(56.582 151.864) rotate(180)" fill="#e0e0e0"/>
    <rect id="Retângulo_471" data-name="Retângulo 471" width="2.718" height="17.732" transform="translate(45.253 134.137)" fill="#fafafa"/>
    <rect id="Retângulo_472" data-name="Retângulo 472" width="7.26" height="17.732" transform="translate(55.237 151.864) rotate(180)" fill="#ebebeb"/>
    <path id="Caminho_10787" data-name="Caminho 10787" d="M96.1,314.854H92.078l-2.318-16.7h4.024Z" transform="translate(-39.865 -162.99)" fill="#fafafa"/>
    <path id="Caminho_10788" data-name="Caminho 10788" d="M99.318,314.854h10.756l-2.318-16.7H97Z" transform="translate(-43.081 -162.99)" fill="#ebebeb"/>
    <rect id="Retângulo_473" data-name="Retângulo 473" width="4.819" height="14.625" transform="translate(69.984 161.402)" fill="#f0f0f0"/>
    <rect id="Retângulo_474" data-name="Retângulo 474" width="7.154" height="14.625" transform="translate(81.957 176.027) rotate(180)" fill="#e0e0e0"/>
    <rect id="Retângulo_475" data-name="Retângulo 475" width="2.718" height="17.732" transform="translate(77.383 158.295)" fill="#fafafa"/>
    <rect id="Retângulo_476" data-name="Retângulo 476" width="7.26" height="17.732" transform="translate(87.36 176.027) rotate(180)" fill="#ebebeb"/>
    <path id="Caminho_10789" data-name="Caminho 10789" d="M67,358.319H62.978L60.66,341.61h4.024Z" transform="translate(-26.941 -182.292)" fill="#f0f0f0"/>
    <path id="Caminho_10790" data-name="Caminho 10790" d="M70.218,358.319H80.974L78.656,341.61H67.9Z" transform="translate(-30.156 -182.292)" fill="#e0e0e0"/>
    <rect id="Retângulo_477" data-name="Retângulo 477" width="4.819" height="20.022" transform="translate(79.962 147.044) rotate(90)" fill="#e6e6e6"/>
    <rect id="Retângulo_478" data-name="Retângulo 478" width="4.819" height="7.393" transform="translate(87.355 147.044) rotate(90)" fill="#e0e0e0"/>
    <rect id="Retângulo_479" data-name="Retângulo 479" width="3.724" height="6.743" transform="translate(87.355 147.594) rotate(90)" fill="#f0f0f0"/>
    <rect id="Retângulo_480" data-name="Retângulo 480" width="3.758" height="20.022" transform="translate(81.196 143.286) rotate(90)" fill="#f0f0f0"/>
    <rect id="Retângulo_481" data-name="Retângulo 481" width="3.758" height="7.393" transform="translate(88.589 143.286) rotate(90)" fill="#e6e6e6"/>
    <rect id="Retângulo_482" data-name="Retângulo 482" width="2.902" height="6.743" transform="translate(88.589 143.714) rotate(90)" fill="#f0f0f0"/>
    <rect id="Retângulo_483" data-name="Retângulo 483" width="5.192" height="21.562" transform="translate(107.127 170.835) rotate(90)" fill="#f5f5f5"/>
    <rect id="Retângulo_484" data-name="Retângulo 484" width="5.192" height="7.966" transform="translate(115.087 170.835) rotate(90)" fill="#e0e0e0"/>
    <rect id="Retângulo_485" data-name="Retângulo 485" width="4.008" height="7.265" transform="translate(115.087 171.425) rotate(90)" fill="#f0f0f0"/>
    <rect id="Retângulo_486" data-name="Retângulo 486" width="4.197" height="17.432" transform="translate(105.993 162.586) rotate(90)" fill="#fafafa"/>
    <rect id="Retângulo_487" data-name="Retângulo 487" width="4.197" height="6.437" transform="translate(112.436 162.581) rotate(90)" fill="#e0e0e0"/>
    <rect id="Retângulo_488" data-name="Retângulo 488" width="3.241" height="5.876" transform="translate(112.43 163.059) rotate(90)" fill="#f5f5f5"/>
    <rect id="Retângulo_489" data-name="Retângulo 489" width="4.197" height="17.432" transform="translate(60.734 171.808) rotate(90)" fill="#fafafa"/>
    <rect id="Retângulo_490" data-name="Retângulo 490" width="4.197" height="6.437" transform="translate(67.166 171.808) rotate(90)" fill="#e0e0e0"/>
    <rect id="Retângulo_491" data-name="Retângulo 491" width="3.241" height="5.876" transform="translate(67.171 172.286) rotate(90)" fill="#f5f5f5"/>
    <rect id="Retângulo_492" data-name="Retângulo 492" width="4.047" height="21.562" transform="translate(108.45 166.783) rotate(90)" fill="#f0f0f0"/>
    <rect id="Retângulo_493" data-name="Retângulo 493" width="4.047" height="7.966" transform="translate(116.416 166.783) rotate(90)" fill="#e6e6e6"/>
    <rect id="Retângulo_494" data-name="Retângulo 494" width="3.124" height="7.265" transform="translate(116.41 167.244) rotate(90)" fill="#f0f0f0"/>
    <rect id="Retângulo_495" data-name="Retângulo 495" width="3.908" height="16.22" transform="translate(89.612 136.421)" fill="#f0f0f0"/>
    <rect id="Retângulo_496" data-name="Retângulo 496" width="10.445" height="16.22" transform="translate(103.964 152.642) rotate(180)" fill="#e0e0e0"/>
    <rect id="Retângulo_497" data-name="Retângulo 497" width="3.752" height="14.364" transform="translate(98.406 138.278)" fill="#fafafa"/>
    <rect id="Retângulo_498" data-name="Retângulo 498" width="6.415" height="14.364" transform="translate(108.572 152.642) rotate(180)" fill="#ebebeb"/>
    <rect id="Retângulo_499" data-name="Retângulo 499" width="1.873" height="0.862" rx="0.431" transform="translate(235.183 111.624) rotate(180)" fill="#e0e0e0"/>
    <path id="Caminho_10791" data-name="Caminho 10791" d="M445.776,186.521l-11.534,11.534a8.156,8.156,0,0,1,11.534-11.534Z" transform="translate(-191.799 -112.352)" fill="#e6e6e6"/>
    <path id="Caminho_10792" data-name="Caminho 10792" d="M427.118,185.223l4.5,4.5,5.826-5.826-4.5-4.5a4.125,4.125,0,0,0-5.826,0h0A4.125,4.125,0,0,0,427.118,185.223Z" transform="translate(-189.161 -109.714)" fill="#e6e6e6"/>
    <rect id="Retângulo_500" data-name="Retângulo 500" width="0.973" height="27.149" transform="translate(218.758 88.788) rotate(-135)" fill="#e6e6e6"/>
    <rect id="Retângulo_501" data-name="Retângulo 501" width="0.973" height="27.149" transform="matrix(-0.86, 0.51, -0.51, -0.86, 232.597, 111.651)" fill="#e6e6e6"/>
    <path id="Caminho_10793" data-name="Caminho 10793" d="M425.06,179.028a1.668,1.668,0,1,0,1.668-1.668A1.668,1.668,0,0,0,425.06,179.028Z" transform="translate(-188.782 -109.344)" fill="#e6e6e6"/>
    <path id="Caminho_10794" data-name="Caminho 10794" d="M391,213.293a1.067,1.067,0,1,0,.313-.76A1.073,1.073,0,0,0,391,213.293Z" transform="translate(-173.655 -124.826)" fill="#e6e6e6"/>
    <path id="Caminho_10795" data-name="Caminho 10795" d="M409.623,255.02h7.9l.617,3.141H409Z" transform="translate(-181.649 -143.835)" fill="#e6e6e6"/>
    <rect id="Retângulo_502" data-name="Retângulo 502" width="117.377" height="19.35" transform="translate(250.808 133.675) rotate(180)" fill="#ebebeb"/>
    <rect id="Retângulo_503" data-name="Retângulo 503" width="43.18" height="17.049" transform="translate(178.023 132.525) rotate(180)" fill="#f5f5f5"/>
    <rect id="Retângulo_504" data-name="Retângulo 504" width="43.18" height="17.049" transform="translate(222.742 132.525) rotate(180)" fill="#f5f5f5"/>
    <path id="Caminho_10796" data-name="Caminho 10796" d="M403.922,343.8h2.59l-5.536-48.316h-2.6Z" transform="translate(-176.933 -161.805)" fill="#f5f5f5"/>
    <path id="Caminho_10797" data-name="Caminho 10797" d="M444.992,343.8h2.6l-5.542-48.316h-2.6Z" transform="translate(-195.173 -161.805)" fill="#f5f5f5"/>
    <path id="Caminho_10798" data-name="Caminho 10798" d="M349.32,222.33H358.4l3.78,21.312H353.1Z" transform="translate(-155.144 -129.316)" fill="#e0e0e0"/>
    <path id="Caminho_10799" data-name="Caminho 10799" d="M311.765,189h50.768l-1.54,30.884H310.22Z" transform="translate(-137.778 -114.514)" fill="#e6e6e6"/>
    <path id="Caminho_10800" data-name="Caminho 10800" d="M313.923,190.32h48.361l-1.473,29.417H312.45Z" transform="translate(-138.769 -115.1)" fill="#fafafa"/>
    <path id="Caminho_10801" data-name="Caminho 10801" d="M280.22,230.729h17.532a13.936,13.936,0,0,1,13.341,10.634l4.63,19.344,9.517-.033h0a9.45,9.45,0,0,1,9.283,7.682l1.267,6.62a4.908,4.908,0,0,1,4.024,3.674h-47a13.93,13.93,0,0,1-13.341-10.628l-6.67-27.793a7.565,7.565,0,0,1,7.421-9.5Zm46.054,44.2h7.032l-1.178-6.115a6.987,6.987,0,0,0-6.854-5.67h0l-8.927.028,1.112,4.708A9.216,9.216,0,0,0,326.273,274.927Z" transform="translate(-121.047 -133.046)" fill="#e6e6e6"/>
    <path id="Caminho_10802" data-name="Caminho 10802" d="M303.211,316.94H301.2l-7.9,36.387h2.007Z" transform="translate(-130.264 -171.336)" fill="#e0e0e0"/>
    <path id="Caminho_10803" data-name="Caminho 10803" d="M316.771,316.94h-2.007l-7.9,36.387h2.007Z" transform="translate(-136.286 -171.336)" fill="#e0e0e0"/>
    <path id="Caminho_10804" data-name="Caminho 10804" d="M377.9,316.94h2.012l7.9,36.387H385.81Z" transform="translate(-167.837 -171.336)" fill="#e0e0e0"/>
    <path id="Caminho_10805" data-name="Caminho 10805" d="M364.35,316.94h2.007l7.9,36.387h-2.007Z" transform="translate(-161.819 -171.336)" fill="#e0e0e0"/>
    <rect id="Retângulo_505" data-name="Retângulo 505" width="24.241" height="29.645" transform="translate(231.331 42.724) rotate(180)" fill="#f0f0f0"/>
    <rect id="Retângulo_506" data-name="Retângulo 506" width="27.888" height="29.645" transform="translate(229.769 42.724) rotate(180)" fill="#f5f5f5"/>
    <rect id="Retângulo_507" data-name="Retângulo 507" width="24.97" height="23.213" transform="translate(227.434 15.42) rotate(90)" fill="#fff"/>
    <rect id="Retângulo_508" data-name="Retângulo 508" width="12.868" height="11.962" transform="translate(221.809 21.473) rotate(90)" fill="#f5f5f5"/>
    <rect id="Retângulo_509" data-name="Retângulo 509" width="24.241" height="29.645" transform="translate(190.419 56.51) rotate(180)" fill="#f0f0f0"/>
    <rect id="Retângulo_510" data-name="Retângulo 510" width="27.888" height="29.645" transform="translate(188.862 56.51) rotate(180)" fill="#f5f5f5"/>
    <rect id="Retângulo_511" data-name="Retângulo 511" width="24.97" height="23.213" transform="translate(186.527 29.2) rotate(90)" fill="#fff"/>
    <rect id="Retângulo_512" data-name="Retângulo 512" width="12.868" height="11.962" rx="5.981" transform="translate(180.897 35.253) rotate(90)" fill="#f5f5f5"/>
    <rect id="Retângulo_513" data-name="Retângulo 513" width="83.569" height="98.133" transform="translate(120.268 108.105) rotate(180)" fill="#e6e6e6"/>
    <rect id="Retângulo_514" data-name="Retângulo 514" width="84.67" height="98.133" transform="translate(119.301 108.105) rotate(180)" fill="#f0f0f0"/>
    <rect id="Retângulo_515" data-name="Retângulo 515" width="83.569" height="1.795" transform="translate(120.268 109.901) rotate(180)" fill="#e6e6e6"/>
    <rect id="Retângulo_516" data-name="Retângulo 516" width="84.67" height="1.795" transform="translate(118.206 109.901) rotate(180)" fill="#f0f0f0"/>
    <rect id="Retângulo_517" data-name="Retângulo 517" width="92.369" height="78.906" transform="translate(116.421 12.852) rotate(90)" fill="#fafafa"/>
    <path id="Caminho_10806" data-name="Caminho 10806" d="M137.5,170.493,121.988,78.13H114l15.514,92.363Z" transform="translate(-50.631 -65.273)" fill="#fff"/>
    <path id="Caminho_10807" data-name="Caminho 10807" d="M173.762,170.493,158.248,78.13H150.26l15.514,92.363Z" transform="translate(-66.735 -65.273)" fill="#fff"/>
    <path id="Caminho_10808" data-name="Caminho 10808" d="M206.822,125.447c.122,0,.217-.145.217-.322v-43.7c0-.178-.094-.328-.217-.328s-.222.15-.222.328v43.7C206.622,125.3,206.722,125.447,206.822,125.447Z" transform="translate(-91.757 -66.592)" fill="#f0f0f0"/>
    <path id="Caminho_10809" data-name="Caminho 10809" d="M123.947,170.493,108.433,78.13H105.32l15.514,92.363Z" transform="translate(-46.776 -65.273)" fill="#fff"/>
    <rect id="Retângulo_518" data-name="Retângulo 518" width="92.369" height="0.367" transform="translate(37.882 12.857) rotate(90)" fill="#e6e6e6"/>
    <path id="Caminho_10810" data-name="Caminho 10810" d="M61.08,87.35h83.575l.261-7.21H61.347Z" transform="translate(-27.128 -66.165)" fill="#e0e0e0" opacity="0.5"/>
    <path id="Caminho_10811" data-name="Caminho 10811" d="M61.08,108.67h83.575l.261-7.21H61.347Z" transform="translate(-27.128 -75.634)" fill="#e0e0e0" opacity="0.5"/>
    <path id="Caminho_10812" data-name="Caminho 10812" d="M61.08,129.99h83.575l.261-7.21H61.347Z" transform="translate(-27.128 -85.103)" fill="#e0e0e0" opacity="0.5"/>
    <path id="Caminho_10813" data-name="Caminho 10813" d="M61.08,151.32h83.575l.261-7.21H61.347Z" transform="translate(-27.128 -94.576)" fill="#e0e0e0" opacity="0.5"/>
    <path id="Caminho_10814" data-name="Caminho 10814" d="M61.08,172.64h83.575l.261-7.21H61.347Z" transform="translate(-27.128 -104.045)" fill="#e0e0e0" opacity="0.5"/>
    <path id="Caminho_10815" data-name="Caminho 10815" d="M61.08,193.96h83.575l.261-7.21H61.347Z" transform="translate(-27.128 -113.514)" fill="#e0e0e0" opacity="0.5"/>
    <path id="Caminho_10816" data-name="Caminho 10816" d="M61.08,98.01h83.575l.261-7.21H61.347Z" transform="translate(-27.128 -70.9)" fill="#e0e0e0" opacity="0.5"/>
    <path id="Caminho_10817" data-name="Caminho 10817" d="M61.08,119.33h83.575l.261-7.21H61.347Z" transform="translate(-27.128 -80.369)" fill="#e0e0e0" opacity="0.5"/>
    <path id="Caminho_10818" data-name="Caminho 10818" d="M61.08,140.66h83.575l.261-7.21H61.347Z" transform="translate(-27.128 -89.842)" fill="#e0e0e0" opacity="0.5"/>
    <path id="Caminho_10819" data-name="Caminho 10819" d="M61.08,161.98h83.575l.261-7.21H61.347Z" transform="translate(-27.128 -99.311)" fill="#e0e0e0" opacity="0.5"/>
    <path id="Caminho_10820" data-name="Caminho 10820" d="M61.08,183.3h83.575l.261-7.21H61.347Z" transform="translate(-27.128 -108.78)" fill="#e0e0e0" opacity="0.5"/>
    <path id="Caminho_10821" data-name="Caminho 10821" d="M61.08,204.62h83.575l.261-7.21H61.347Z" transform="translate(-27.128 -118.249)" fill="#e0e0e0" opacity="0.5"/>
  </g>
  <g id="freepik--Shadow--inject-206" transform="translate(31.19 194.51)">
    <ellipse id="freepik--path--inject-206" cx="107.777" cy="6.292" rx="107.777" ry="6.292" fill="#f5f5f5"/>
  </g>
  <g id="freepik--Table--inject-206" transform="translate(37.882 119.525)">
    <path id="Caminho_10822" data-name="Caminho 10822" d="M73.066,373.753H70.42l3.335-51.223h5.981Z" transform="translate(-69.158 -293.343)" fill="#263238"/>
    <path id="Caminho_10823" data-name="Caminho 10823" d="M152.36,373.753h2.652l-3.335-51.223H145.69Z" transform="translate(-102.588 -293.343)" fill="#263238"/>
    <path id="Caminho_10824" data-name="Caminho 10824" d="M120.063,319.7H69.923a1.784,1.784,0,0,1-1.773-1.773h0a1.779,1.779,0,0,1,1.773-1.773h50.139a1.779,1.779,0,0,1,1.773,1.773h0A1.784,1.784,0,0,1,120.063,319.7Z" transform="translate(-68.15 -290.51)" fill="#eb7824"/>
    <path id="Caminho_10825" data-name="Caminho 10825" d="M139.435,314.39H123.209a.489.489,0,0,0-.489.489h0a.5.5,0,0,0,.489.489h16.226a.5.5,0,0,0,.489-.489h0a.489.489,0,0,0-.489-.489Z" transform="translate(-92.386 -289.728)" fill="#263238"/>
    <path id="Caminho_10826" data-name="Caminho 10826" d="M103,288.433c.628-4.514,2.451-12.857,6.954-9.7,2.324,1.634-4.5,9.528-4.508,10.712A2.212,2.212,0,0,1,103,288.433Z" transform="translate(-83.628 -273.583)" fill="#eb7824"/>
    <path id="Caminho_10827" data-name="Caminho 10827" d="M103,288.433c.628-4.514,2.451-12.857,6.954-9.7,2.324,1.634-4.5,9.528-4.508,10.712A2.212,2.212,0,0,1,103,288.433Z" transform="translate(-83.628 -273.583)" opacity="0.2"/>
    <path id="Caminho_10828" data-name="Caminho 10828" d="M91.2,288.526c-2.579-4.1-6.743-11.29-1.112-12.918,4.669-1.356,3.013,11.117,3.819,12.073A2.41,2.41,0,0,1,91.2,288.526Z" transform="translate(-76.648 -272.458)" fill="#eb7824"/>
    <path id="Caminho_10829" data-name="Caminho 10829" d="M91.2,288.526c-2.579-4.1-6.743-11.29-1.112-12.918,4.669-1.356,3.013,11.117,3.819,12.073A2.41,2.41,0,0,1,91.2,288.526Z" transform="translate(-76.648 -272.458)" opacity="0.2"/>
    <path id="Caminho_10830" data-name="Caminho 10830" d="M97.543,284.836c-.806-5.826-1.484-16.826,5.214-14.492,3.458,1.212-2.223,13.413-1.818,14.886A2.9,2.9,0,0,1,97.543,284.836Z" transform="translate(-80.983 -270.024)" fill="#eb7824"/>
    <rect id="Retângulo_519" data-name="Retângulo 519" width="14.147" height="11.879" rx="2.38" transform="translate(11.034 13.761)" fill="#263238"/>
  </g>
  <g id="freepik--Character--inject-206" transform="translate(47.249 76.706)">
    <g id="freepik--Bed--inject-206" transform="translate(0 86.636)">
      <rect id="Retângulo_520" data-name="Retângulo 520" width="180.107" height="34.13" rx="9.8" transform="translate(1.668 1.595)" fill="#eb7824"/>
      <g id="Grupo_16314" data-name="Grupo 16314" transform="translate(4.447 30.884)" opacity="0.1">
        <rect id="Retângulo_521" data-name="Retângulo 521" width="1.39" height="0.556" transform="translate(173.153)" fill="#fff"/>
        <path id="Caminho_10831" data-name="Caminho 10831" d="M266.7,404.966H263.88v-.556H266.7Zm-5.631,0h-2.818v-.556h2.818Zm-5.631,0h-2.818v-.556h2.818Zm-5.637,0H247v-.556h2.779Zm-5.631,0h-2.813v-.556h2.813Zm-5.631,0h-2.813v-.556h2.813Zm-5.631,0h-2.818v-.556h2.818Zm-5.631,0h-2.818v-.556h2.818Zm-5.631,0h-2.818v-.556h2.818Zm-5.631,0H213.2v-.556h2.818Zm-5.637,0h-2.813v-.556h2.813Zm-5.631,0h-2.813v-.556h2.818Zm-5.631,0H196.3v-.556h2.813Zm-5.631,0h-2.818v-.556h2.818Zm-5.631,0h-2.818v-.556h2.818Zm-5.631,0H179.4v-.556h2.818Zm-5.631,0h-2.818v-.556h2.818Zm-5.637,0h-2.813v-.556h2.813Zm-5.631,0h-2.818v-.556h2.813Zm-5.631,0h-2.813v-.556h2.813Zm-5.631,0h-2.818v-.556h2.818Zm-5.631,0h-2.818v-.556h2.818Zm-5.631,0h-2.818v-.556H142.8Zm-5.631,0h-2.818v-.556h2.818Zm-5.637,0H128.72v-.556h2.813Zm-5.631,0h-2.813v-.556H125.9Zm-5.631,0h-2.79v-.556h2.779Zm-5.631,0h-2.818v-.556h2.818Zm-5.631,0h-2.818v-.556h2.818Zm-5.631,0H100.56v-.556h2.818Z" transform="translate(-96.358 -404.41)" fill="#fff"/>
        <rect id="Retângulo_522" data-name="Retângulo 522" width="1.39" height="0.556" fill="#fff"/>
      </g>
      <rect id="Retângulo_523" data-name="Retângulo 523" width="166.511" height="1.734" transform="translate(8.466 35.726)" fill="#263238"/>
      <rect id="Retângulo_524" data-name="Retângulo 524" width="50.79" height="34.13" rx="9.8" transform="translate(1.668 1.595)" opacity="0.2"/>
      <path id="Caminho_10832" data-name="Caminho 10832" d="M268.437,370.284s-19.361-4.647-38.65-4.647-31.912,7.226-45.787,7.226-22.891-5.97-44.675-5.97S85,370.284,85,370.284v-14.6a6.832,6.832,0,0,1,6.832-6.832H261.605a6.832,6.832,0,0,1,6.832,6.832Z" transform="translate(-85 -348.85)" fill="#eb7824"/>
      <path id="Caminho_10833" data-name="Caminho 10833" d="M268.437,370.284s-19.361-4.647-38.65-4.647-31.912,7.226-45.787,7.226-22.891-5.97-44.675-5.97S85,370.284,85,370.284v-14.6a6.832,6.832,0,0,1,6.832-6.832H261.605a6.832,6.832,0,0,1,6.832,6.832Z" transform="translate(-85 -348.85)" fill="#fff" opacity="0.8"/>
      <path id="Caminho_10834" data-name="Caminho 10834" d="M226,414.849c0-2.079,1.957-6.531,9.389-6.67s7.582,6.948,7.582,6.948Z" transform="translate(-147.622 -375.199)" fill="#eb7824"/>
      <path id="Caminho_10835" data-name="Caminho 10835" d="M226,414.849c0-2.079,1.957-6.531,9.389-6.67s7.582,6.948,7.582,6.948Z" transform="translate(-147.622 -375.199)" fill="#fff" opacity="0.6"/>
      <path id="Caminho_10836" data-name="Caminho 10836" d="M254.418,420.332H225.746a.556.556,0,0,1-.556-.556h0a.556.556,0,0,1,.556-.556h28.672a.556.556,0,0,1,.556.556h0A.556.556,0,0,1,254.418,420.332Z" transform="translate(-147.263 -380.103)" fill="#eb7824"/>
      <path id="Caminho_10837" data-name="Caminho 10837" d="M258.29,415.669c0-2.079,1.951-6.531,9.389-6.67s7.582,6.943,7.582,6.943Z" transform="translate(-161.963 -375.563)" fill="#eb7824"/>
      <path id="Caminho_10838" data-name="Caminho 10838" d="M258.29,415.669c0-2.079,1.951-6.531,9.389-6.67s7.582,6.943,7.582,6.943Z" transform="translate(-161.963 -375.563)" fill="#fff" opacity="0.6"/>
      <path id="Caminho_10839" data-name="Caminho 10839" d="M286.715,421.111H258.044a.556.556,0,0,1-.584-.556h0a.556.556,0,0,1,.584-.556h28.672a.556.556,0,0,1,.556.556h0A.556.556,0,0,1,286.715,421.111Z" transform="translate(-161.595 -380.449)" fill="#eb7824"/>
    </g>
    <path id="Caminho_10840" data-name="Caminho 10840" d="M226.7,237.771l-2.068-1.834a4.664,4.664,0,0,1-1.534-4.086l.111-.878a2.274,2.274,0,0,1,1.723-1.929l2.657-.645a2.285,2.285,0,0,1,2.7,1.506l.417,1.267s1.957,4.264,1.262,7.677l-.956.161a5.2,5.2,0,0,1-4.314-1.24Z" transform="translate(-146.317 -208.69)" fill="#7f3e3b"/>
    <path id="Caminho_10841" data-name="Caminho 10841" d="M257.843,253.446l-.372.45-.306.345-.589.639c-.395.417-.795.806-1.2,1.19-.795.762-1.629,1.468-2.479,2.146a41.4,41.4,0,0,1-5.392,3.63,40.169,40.169,0,0,1-5.914,2.735c-1.017.384-2.057.712-3.1,1.017a26.393,26.393,0,0,1-3.185.728l-.806.15-.317.056c-.217.033-.434.067-.656.089a7.118,7.118,0,0,1-1.529-.033,6.82,6.82,0,0,1-3.068-1.2,7.193,7.193,0,0,1-1.8-1.846,9.038,9.038,0,0,1-1.228-2.846,13.486,13.486,0,0,1-.356-2.1,21.594,21.594,0,0,1-.05-3.474c.061-1.112.167-2.118.295-3.135.295-2.029.673-3.98,1.145-5.9a56.22,56.22,0,0,1,1.668-5.687,3.035,3.035,0,0,1,5.887.912v.094c.139,3.674.156,7.432.439,10.923.056.867.139,1.718.25,2.524a17.429,17.429,0,0,0,.417,2.162,2.579,2.579,0,0,0,.25.661c.061.117.156.1-.061-.278a2.951,2.951,0,0,0-.806-.845,4.063,4.063,0,0,0-1.762-.706,3.835,3.835,0,0,0-.823-.028,2.854,2.854,0,0,0-.306.033h.028l.556-.178c.767-.239,1.518-.517,2.262-.812s1.484-.6,2.223-.951a38.294,38.294,0,0,0,4.2-2.335,42.464,42.464,0,0,0,3.891-2.824c.623-.5,1.217-1.034,1.8-1.556.295-.261.556-.556.839-.789l.65-.645.456-.45a6.009,6.009,0,0,1,8.816,8.149Z" transform="translate(-147.38 -213.158)" fill="#7f3e3b"/>
    <path id="Caminho_10842" data-name="Caminho 10842" d="M260.71,245c-11.167,2.813-15.564,6.793-18.9,9.333,6.4,3.274,4.247,14.008,5.964,15.82s15.008-8.177,18.082-11.923S268.208,247.563,260.71,245Z" transform="translate(-154.644 -216.091)" fill="#eb7824"/>
    <path id="Caminho_10843" data-name="Caminho 10843" d="M254.821,296.2c-12.023-4.508-22.085-22.907-36.621-24.236a7.271,7.271,0,0,0-6.887,3.624c-6.287,10.712-11.512,23.041-15.787,29.4-3.029,3.03-7.7,5.987-11.673,6.5-3.035.389-2.1,3.2.056,3.2,5.386,0,5.031-.089,8.1-.189,2.624-.089,3.135.233,5.236.189,1.74-.039,2.223-1.668,2.379-3.569,2.835-2.273,5.22-4.186,7.293-6.042h0c4.725-4.219,7.893-8.194,11.4-15.742,4.6,10.817,15.181,25.359,25.5,25.359,10.562,0,13.474-.889,15.8-6.315l.233-.556a8.744,8.744,0,0,0-5.031-11.623Z" transform="translate(-128.043 -228.055)" fill="#7f3e3b"/>
    <path id="Caminho_10844" data-name="Caminho 10844" d="M254.821,296.2c-12.023-4.508-22.085-22.907-36.621-24.236a7.271,7.271,0,0,0-6.887,3.624c-6.287,10.712-11.512,23.041-15.787,29.4-3.029,3.03-7.7,5.987-11.673,6.5-3.035.389-2.1,3.2.056,3.2,5.386,0,5.031-.089,8.1-.189,2.624-.089,3.135.233,5.236.189,1.74-.039,2.223-1.668,2.379-3.569,2.835-2.273,5.22-4.186,7.293-6.042h0c4.725-4.219,7.893-8.194,11.4-15.742,4.6,10.817,15.181,25.359,25.5,25.359,10.562,0,13.474-.889,15.8-6.315l.233-.556a8.744,8.744,0,0,0-5.031-11.623Z" transform="translate(-128.043 -228.055)" opacity="0.2"/>
    <path id="Caminho_10845" data-name="Caminho 10845" d="M234.259,193.586c-9.555,2.329-16,10.256-12.891,14.48s.723,3.191,2.062,7.521,2.941,8.244,1.829,17.988a35.459,35.459,0,0,0,2.579,17.565s18.749,2.546,23.9-8.894-2.524-21.206,1.312-30.79S248.05,190.217,234.259,193.586Z" transform="translate(-145.214 -192.993)" fill="#263238"/>
    <path id="Caminho_10846" data-name="Caminho 10846" d="M225.125,220.049a.128.128,0,0,1-.078,0c-6.387-3.758-7.11-8.2-6.587-11.262,1.112-6.643,8.938-12.657,15.242-13.9a.156.156,0,0,1,.061.3c-6.2,1.228-13.9,7.137-15.008,13.658-.723,4.252,1.5,8.038,6.437,10.939a.156.156,0,0,1-.078.289Z" transform="translate(-144.213 -193.835)" fill="#263238"/>
    <path id="Caminho_10847" data-name="Caminho 10847" d="M224.718,227.054a.15.15,0,0,1-.094-.033c-8.477-6.5-9.105-12.9-8.093-17.132,1.734-7.421,9.783-13.763,16.215-15.008a.156.156,0,0,1,.061.3c-6.337,1.251-14.269,7.5-15.976,14.8-1.384,5.942,1.373,11.757,7.977,16.821a.15.15,0,0,1,.033.217.161.161,0,0,1-.122.039Z" transform="translate(-143.255 -193.831)" fill="#263238"/>
    <path id="Caminho_10848" data-name="Caminho 10848" d="M297.167,232.387C297.8,232.126,296.545,232.621,297.167,232.387Z" transform="translate(-179.151 -210.454)" fill="#eb7824"/>
    <path id="Caminho_10849" data-name="Caminho 10849" d="M296.244,242.126c-3.363-5.486-10.606-12.3-16.632-10.033a99.354,99.354,0,0,0-13.124,6.115c-1.356.789-2.735,1.668-4.041,2.5a10.934,10.934,0,0,0-3.758,14.2c1.445,2.779,0,11.44,7.326,12.674,3.613,4.4.489,13.952-.617,21.273a6.954,6.954,0,0,0,6.9,7.954h33.908C312.27,291.687,304.61,255.784,296.244,242.126Z" transform="translate(-161.596 -210.159)" fill="#eb7824"/>
    <path id="Caminho_10850" data-name="Caminho 10850" d="M282.31,312.82c-5.631.867-9.522,4.753-10.628,12.073a6.954,6.954,0,0,0,6.9,7.954h18.41Z" transform="translate(-167.879 -246.212)" opacity="0.2"/>
    <path id="Caminho_10851" data-name="Caminho 10851" d="M308.962,262.78c1.084,7.882-4.175,23.263-14.742,17.788C298.839,265.565,308.962,262.78,308.962,262.78Z" transform="translate(-177.921 -223.987)" opacity="0.2"/>
    <path id="Caminho_10852" data-name="Caminho 10852" d="M269.786,221.41a29.612,29.612,0,0,0,8.572,7.627,2.162,2.162,0,0,1,.556,3.363,49.809,49.809,0,0,0-9.111,13.8,13.046,13.046,0,0,1-3.5-9.478c2.685-2.779-4.091-6.581-5.281-7.337Z" transform="translate(-163.176 -205.614)" fill="#7f3e3b"/>
    <path id="Caminho_10853" data-name="Caminho 10853" d="M268.026,224.27,261,230.64c1.112.7,6.965,4,5.742,6.67a9.772,9.772,0,0,0,2.779-6.715,11.24,11.24,0,0,0-1.5-6.326Z" transform="translate(-163.167 -206.884)" opacity="0.2"/>
    <path id="Caminho_10854" data-name="Caminho 10854" d="M252.7,202.783c4.447,5.559,6.481,7.782,6.337,12.852-.217,7.621-7.877,11.779-13.9,7.66-5.4-3.713-11.807-12.146-8.672-18.827A9.572,9.572,0,0,1,252.7,202.783Z" transform="translate(-151.904 -195.68)" fill="#7f3e3b"/>
    <path id="Caminho_10855" data-name="Caminho 10855" d="M251.045,206.566c-7.054,3.552-16.715,4.48-15.436-2.162s9.255-7.521,14.075-6.6S258.927,205.893,251.045,206.566Z" transform="translate(-151.839 -194.994)" fill="#263238"/>
    <path id="Caminho_10856" data-name="Caminho 10856" d="M264.45,208.613c1.851,7.571,7.226,10.206,8.371,5.52S269.353,204.033,264.45,208.613Z" transform="translate(-164.699 -199.16)" fill="#263238"/>
    <path id="Caminho_10857" data-name="Caminho 10857" d="M256.086,225.874c.345.467.378,1.023.078,1.251s-.834.033-1.178-.434-.378-1.023-.072-1.245S255.741,225.412,256.086,225.874Z" transform="translate(-160.37 -207.365)" fill="#263238"/>
    <path id="Caminho_10858" data-name="Caminho 10858" d="M245.894,233.657c.345.461.378,1.023.078,1.251s-.828,0-1.178-.434-.378-1.023-.072-1.251S245.566,233.19,245.894,233.657Z" transform="translate(-155.843 -210.818)" fill="#263238"/>
    <path id="Caminho_10859" data-name="Caminho 10859" d="M244.111,233.17l-1.351.506S244.005,234.121,244.111,233.17Z" transform="translate(-155.066 -210.837)" fill="#263238"/>
    <path id="Caminho_10860" data-name="Caminho 10860" d="M250.91,233.32a15.578,15.578,0,0,1,.556,4.191,2.481,2.481,0,0,0,1.884-.917Z" transform="translate(-158.686 -210.903)" fill="#630f0f"/>
    <path id="Caminho_10861" data-name="Caminho 10861" d="M261.489,235.969a6.176,6.176,0,0,1-.75.617.178.178,0,0,1-.239-.044.167.167,0,0,1,.044-.233,4.586,4.586,0,0,0,2.062-3.6.17.17,0,0,1,.339-.011,4.753,4.753,0,0,1-1.456,3.269Z" transform="translate(-162.932 -210.557)" fill="#263238"/>
    <path id="Caminho_10862" data-name="Caminho 10862" d="M265.13,212.476a4.558,4.558,0,0,1-.139,3.752c-.784,1.445-2.574.806-3.53-.734-.862-1.39-1.49-3.808-.145-4.708S264.519,210.87,265.13,212.476Z" transform="translate(-162.962 -200.743)" fill="#7f3e3b"/>
    <path id="Caminho_10863" data-name="Caminho 10863" d="M249.612,220.967a.339.339,0,0,1,.217-.161,2.679,2.679,0,0,0,1.912-1.534.345.345,0,1,1,.645.233,3.4,3.4,0,0,1-2.4,1.962.339.339,0,0,1-.411-.25A.35.35,0,0,1,249.612,220.967Z" transform="translate(-158.089 -204.548)" fill="#263238"/>
    <path id="Caminho_10864" data-name="Caminho 10864" d="M240.343,227.345a.334.334,0,0,1,.222-.117.345.345,0,0,1,.378.295,3.385,3.385,0,0,1-1.028,2.929.345.345,0,0,1-.478-.044.339.339,0,0,1,.044-.478,2.69,2.69,0,0,0,.784-2.324A.334.334,0,0,1,240.343,227.345Z" transform="translate(-153.556 -208.197)" fill="#263238"/>
    <path id="Caminho_10865" data-name="Caminho 10865" d="M254.271,225.38l-1.351.511S254.137,226.336,254.271,225.38Z" transform="translate(-159.578 -207.377)" fill="#263238"/>
    <path id="Caminho_10866" data-name="Caminho 10866" d="M226.347,272.1l-5.625,1.006a1.523,1.523,0,0,1-1.668-.978l-4-11.473a1.045,1.045,0,0,1,.817-1.417l5.625-1a1.529,1.529,0,0,1,1.668.978l4,11.479a1.039,1.039,0,0,1-.817,1.4Z" transform="translate(-142.727 -221.965)" fill="#fff"/>
    <path id="Caminho_10867" data-name="Caminho 10867" d="M225.036,272.325l-5.62,1a1.545,1.545,0,0,1-1.668-.978l-4-11.479a1.04,1.04,0,0,1,.817-1.412l5.625-1a1.534,1.534,0,0,1,1.668.978l4,11.479a1.034,1.034,0,0,1-.823,1.412Z" transform="translate(-142.15 -222.059)" fill="#eb7824"/>
    <path id="Caminho_10868" data-name="Caminho 10868" d="M222.41,266.585c.122.661-.189,1.2-.689,1.2a1.351,1.351,0,0,1-1.112-1.2c-.122-.656.189-1.2.695-1.2A1.356,1.356,0,0,1,222.41,266.585Z" transform="translate(-145.216 -225.147)" fill="#fff"/>
    <path id="Caminho_10869" data-name="Caminho 10869" d="M152.2,335.9c.489-1.94,1-3.53,8.449-5.325,0,0-5.1-6.026-7.065-4.591-3.569,2.6-13.9,3.847-20.317,2.752-2.846-.489-1.968,2.613.089,3.118a34.645,34.645,0,0,1,9.35,3.491c2.285,1.145,3.241,3.23,5.3,3.23C150.55,338.6,151.7,337.879,152.2,335.9Z" transform="translate(-105.63 -251.96)" fill="#7f3e3b"/>
    <path id="Caminho_10870" data-name="Caminho 10870" d="M252.825,302.959c-12.39-4.58-35.7-12.7-52.846-15.72a9.077,9.077,0,0,0-6.837,1.534c-14.908,10.606-28.394,21.218-34.292,23.519-1.668.645,4.447,6.115,4.447,6.115,11.623-4.113,24.225-4.892,32.424-13.9,28.249,14.842,35.709,16.915,46.02,16.915,10.561,0,13.474-.889,15.8-6.315l.239-.556a8.7,8.7,0,0,0-4.958-11.6Z" transform="translate(-117.671 -234.788)" fill="#7f3e3b"/>
    <path id="Caminho_10871" data-name="Caminho 10871" d="M234.92,287.68c6.982,6.065,25.2,15.959,32.107,8.672A270.079,270.079,0,0,0,234.92,287.68Z" transform="translate(-151.584 -235.046)" opacity="0.2"/>
    <path id="Caminho_10872" data-name="Caminho 10872" d="M295.867,305.961c7.443,8.1-6.115,20.734-9.183,23.1a.1.1,0,0,0,.061.183H316.3s9.906-20.25-19.767-24.575a.778.778,0,0,0-.667,1.3Z" transform="translate(-174.554 -242.588)" fill="#eb7824"/>
    <path id="Caminho_10873" data-name="Caminho 10873" d="M228.939,276.494l-2.418-1.351a4.664,4.664,0,0,0-4.364-.106l-.789.395a2.268,2.268,0,0,0-1.256,2.257l.267,2.724a2.274,2.274,0,0,0,2.307,2.057h1.334s4.669.445,7.665-1.329l-.161-.956A5.192,5.192,0,0,0,228.939,276.494Z" transform="translate(-145.002 -229.214)" fill="#7f3e3b"/>
    <path id="Caminho_10874" data-name="Caminho 10874" d="M281.491,247.011l-.322,1.012-.311.912c-.211.606-.439,1.184-.661,1.773-.461,1.162-.962,2.3-1.479,3.435a66.412,66.412,0,0,1-3.53,6.587,62.884,62.884,0,0,1-4.308,6.209c-.384.5-.806.984-1.217,1.473s-.828.967-1.279,1.434l-1.456,1.54a7.711,7.711,0,0,1-2.185,1.534,9.56,9.56,0,0,1-1.757.639,13.461,13.461,0,0,1-2.674.395c-.795.039-1.518.028-2.223,0-1.39-.072-2.679-.222-3.936-.406a70.517,70.517,0,0,1-7.176-1.568,100.831,100.831,0,0,1-13.435-4.619A3.013,3.013,0,0,1,235.1,261.6h.072c4.486.556,9.038,1.178,13.463,1.623,2.224.206,4.408.406,6.5.439a28.978,28.978,0,0,0,2.974-.039c.45-.039.878-.089,1.234-.156a3.182,3.182,0,0,0,.723-.2s0-.039-.145,0a2.651,2.651,0,0,0-.778.556c-.139.15-.039.033,0,0l.117-.156.228-.306.467-.611c.311-.4.606-.823.895-1.256s.595-.834.873-1.273c1.156-1.723,2.185-3.552,3.2-5.4s1.918-3.774,2.779-5.714c.445-.967.839-1.946,1.251-2.918l.556-1.456.278-.711.233-.623.122-.328a6.02,6.02,0,1,1,11.374,3.947Z" transform="translate(-150.161 -213.438)" fill="#7f3e3b"/>
    <path id="Caminho_10875" data-name="Caminho 10875" d="M295.507,238.144c-7.415,8.8-6.887,11.2-8.127,15.22,7.11-1.112,11.384,10.117,13.83,10.562s5.881-13.23,6.2-18.077S303.078,235.826,295.507,238.144Z" transform="translate(-174.883 -212.792)" fill="#eb7824"/>
    <path id="Caminho_10876" data-name="Caminho 10876" d="M336.5,371.313a.139.139,0,0,1-.139-.139V348.739a.139.139,0,0,1,.278,0v22.435a.139.139,0,0,1-.139.139Z" transform="translate(-196.637 -262.103)" fill="#fff"/>
    <path id="Caminho_10877" data-name="Caminho 10877" d="M335.957,390.573h0a.817.817,0,0,1-.817-.817v-1.329a.817.817,0,0,1,.817-.817h0a.817.817,0,0,1,.817.817v1.329A.817.817,0,0,1,335.957,390.573Z" transform="translate(-196.095 -279.428)" fill="#fff"/>
    <path id="Caminho_10878" data-name="Caminho 10878" d="M335.957,390.573h0a.817.817,0,0,1-.817-.817v-1.329a.817.817,0,0,1,.817-.817h0a.817.817,0,0,1,.817.817v1.329A.817.817,0,0,1,335.957,390.573Z" transform="translate(-196.095 -279.428)" fill="#eb7824" opacity="0.4"/>
    <ellipse id="Elipse_21" data-name="Elipse 21" cx="1.868" cy="1.868" rx="1.868" ry="1.868" transform="translate(136.866 109.866)" fill="#fff"/>
    <path id="Caminho_10879" data-name="Caminho 10879" d="M334.138,392.974a1.284,1.284,0,1,1-1.278-1.284A1.284,1.284,0,0,1,334.138,392.974Z" transform="translate(-194.509 -281.24)" fill="#eb7824" opacity="0.2"/>
    <path id="Caminho_10880" data-name="Caminho 10880" d="M311.859,357.406a.139.139,0,0,1-.139-.139V345.388a2.184,2.184,0,0,0-2.19-2.19h-3.491c-.306,0-.739,0-1.245.033-2.635.1-7.171.272-9.4-1.012-4.275.673-11.029.978-22.235.978a.139.139,0,1,1,0-.278c10.973,0,17.649-.289,21.907-.923a2.567,2.567,0,0,1-.65-.673,2.748,2.748,0,0,1,.161-2.818c1.056-2.057,3.446-2.713,5.347-2.64,1.668.061,2.935.65,3.285,1.5a1.581,1.581,0,0,1-.484,1.745c-1.256,1.379-2.979,2.368-6.859,3.03,2.279,1.062,6.615.9,8.927.812.506,0,.945-.033,1.256-.033h3.491a2.468,2.468,0,0,1,2.468,2.468v11.857a.139.139,0,0,1-.15.161ZM299.629,336.16c-1.757,0-3.891.65-4.819,2.5a2.162,2.162,0,0,0,.65,3.3c4.041-.645,5.792-1.629,7.043-3.007a1.34,1.34,0,0,0,.439-1.451c-.306-.734-1.529-1.273-3.041-1.329Z" transform="translate(-168.505 -256.445)" fill="#fff"/>
    <ellipse id="Elipse_22" data-name="Elipse 22" cx="1.868" cy="1.868" rx="1.868" ry="1.868" transform="translate(142.614 101.617)" fill="#fff"/>
    <path id="Caminho_10881" data-name="Caminho 10881" d="M342.237,375.738h0a.828.828,0,0,0,.823-.823v-1.323a.828.828,0,0,0-.823-.823h0a.823.823,0,0,0-.817.823v1.323a.823.823,0,0,0,.817.823Z" transform="translate(-198.884 -272.837)" fill="#fff"/>
    <path id="Caminho_10882" data-name="Caminho 10882" d="M342.237,375.738h0a.828.828,0,0,0,.823-.823v-1.323a.828.828,0,0,0-.823-.823h0a.823.823,0,0,0-.817.823v1.323a.823.823,0,0,0,.817.823Z" transform="translate(-198.884 -272.837)" fill="#eb7824" opacity="0.4"/>
  </g>
  <g id="freepik--Notifications--inject-206" transform="translate(58 5.14)">
    <path id="Caminho_10883" data-name="Caminho 10883" d="M307.763,71.619A12.787,12.787,0,0,0,314.989,87.6a12.4,12.4,0,0,0,16.293-6.531c2.5-6.22-.556-13.841-7.226-15.981C316.629,62.7,309.675,65.543,307.763,71.619Z" transform="translate(-194.4 -64.246)" fill="#eb7824"/>
    <path id="Caminho_10884" data-name="Caminho 10884" d="M324.553,73.56,321.09,83.766l11.345-.384Z" transform="translate(-200.606 -68.383)" fill="#fff"/>
    <path id="Caminho_10885" data-name="Caminho 10885" d="M107.77,105.754,144.663,91.24a5.381,5.381,0,0,1,7.226,3.83,176.546,176.546,0,0,1,3.469,20.484,5.392,5.392,0,0,1-3.563,5.6c-4.186,1.479-11.162,3.891-17.749,6.009a20,20,0,0,0,9.65,6.115s-12.179,1.762-17.293-3.8c-1.834.523-3.5.967-4.875,1.279a5.381,5.381,0,0,1-5.409-1.862c-3.074-3.785-7.627-10.384-10.856-15.109a5.386,5.386,0,0,1,2.507-8.032Z" transform="translate(-104.341 -76.068)" fill="#eb7824"/>
    <path id="Caminho_10886" data-name="Caminho 10886" d="M107.77,105.754,144.663,91.24a5.381,5.381,0,0,1,7.226,3.83,176.546,176.546,0,0,1,3.469,20.484,5.392,5.392,0,0,1-3.563,5.6c-4.186,1.479-11.162,3.891-17.749,6.009a20,20,0,0,0,9.65,6.115s-12.179,1.762-17.293-3.8c-1.834.523-3.5.967-4.875,1.279a5.381,5.381,0,0,1-5.409-1.862c-3.074-3.785-7.627-10.384-10.856-15.109a5.386,5.386,0,0,1,2.507-8.032Z" transform="translate(-104.341 -76.068)" fill="#fff" opacity="0.4"/>
    <path id="Caminho_10887" data-name="Caminho 10887" d="M125.894,122.419l25.631-7.977a1.946,1.946,0,0,0,1.273-2.429h0a1.946,1.946,0,0,0-2.429-1.273l-25.609,7.971a1.951,1.951,0,0,0-1.279,2.429h0a1.946,1.946,0,0,0,2.412,1.279Z" transform="translate(-112.804 -84.857)" fill="#fff"/>
    <path id="Caminho_10888" data-name="Caminho 10888" d="M132.724,137.016l18.138-6.787a1.946,1.946,0,0,0,1.112-2.5h0a1.946,1.946,0,0,0-2.5-1.14l-18.116,6.787a1.951,1.951,0,0,0-1.112,2.5h0a1.946,1.946,0,0,0,2.474,1.134Z" transform="translate(-115.792 -91.882)" fill="#fff"/>
    <path id="Caminho_10889" data-name="Caminho 10889" d="M320.87,168.646c3.1.283,9.405-1.734,13.074-6.987-5.214-3.469-8.427-8.861-8.055-14.708.611-9.533,10.506-16.676,22.1-15.915s20.5,9.072,19.889,18.6-10.506,16.676-22.1,15.909a25.2,25.2,0,0,1-4.914-.8A25.353,25.353,0,0,1,320.87,168.646Z" transform="translate(-200.508 -93.885)" fill="#eb7824"/>
    <path id="Caminho_10890" data-name="Caminho 10890" d="M320.87,168.646c3.1.283,9.405-1.734,13.074-6.987-5.214-3.469-8.427-8.861-8.055-14.708.611-9.533,10.506-16.676,22.1-15.915s20.5,9.072,19.889,18.6-10.506,16.676-22.1,15.909a25.2,25.2,0,0,1-4.914-.8A25.353,25.353,0,0,1,320.87,168.646Z" transform="translate(-200.508 -93.885)" opacity="0.2"/>
    <path id="Caminho_10891" data-name="Caminho 10891" d="M361.172,146.8c-6.915-7.2-13.958,3.73-5.253,15.142C372.912,160.465,378.287,145.652,361.172,146.8Z" transform="translate(-214.279 -99.885)" fill="#fff"/>
    <path id="Caminho_10892" data-name="Caminho 10892" d="M251.723,127.058a19.515,19.515,0,0,0,2.374-.15c4.308-.556,7.782-2.357,9.45-4.975a.506.506,0,0,0-.267-.762c-2.529-.839-3.924-3.552-5.27-6.17-1.668-3.252-3.407-6.62-7.337-6.254h0a5.38,5.38,0,0,0-3.93,1.884c-1.8,2.285-1.262,6.015-.784,9.305.306,2.107.623,4.28,0,4.881a.506.506,0,0,0-.156.372.556.556,0,0,0,.161.372C247.02,126.519,249.188,127.058,251.723,127.058Zm10.628-5.17c-1.668,2.1-4.664,3.541-8.383,4.008-2.835.356-5.62,0-6.943-.817.556-1.112.295-2.985-.039-5.286-.45-3.091-.956-6.587.556-8.533a4.382,4.382,0,0,1,3.224-1.5c3.257-.3,4.686,2.485,6.342,5.7C258.46,118.059,259.833,120.733,262.351,121.889Z" transform="translate(-167.031 -83.999)" fill="#eb7824"/>
    <path id="Caminho_10893" data-name="Caminho 10893" d="M260.261,141.8a4.358,4.358,0,0,0,1.873-.439c1.551-.762,2.323-2.19,1.89-3.48a.508.508,0,0,0-.962.328c.295.884-.467,1.79-1.373,2.223a2.957,2.957,0,0,1-3.924-1.112.511.511,0,0,0-.706-.145.517.517,0,0,0-.145.706A3.936,3.936,0,0,0,260.261,141.8Z" transform="translate(-172.067 -96.798)" fill="#eb7824"/>
    <path id="Caminho_10894" data-name="Caminho 10894" d="M252.983,108.778a.461.461,0,0,0,.122,0,.506.506,0,0,0,.372-.6,9.418,9.418,0,0,0-.695-1.551.507.507,0,1,0-.906.456,9.447,9.447,0,0,1,.6,1.3A.522.522,0,0,0,252.983,108.778Z" transform="translate(-169.842 -82.945)" fill="#eb7824"/>
    <path id="Caminho_10895" data-name="Caminho 10895" d="M267.628,113.175a.555.555,0,0,0,.133,0,.506.506,0,0,0,.356-.623c-.445-1.668-2.829-4.575-4.158-5.653a.508.508,0,0,0-.639.789c1.334,1.112,3.463,3.819,3.819,5.125a.511.511,0,0,0,.489.361Z" transform="translate(-174.865 -83.139)" fill="#eb7824"/>
    <path id="Caminho_10896" data-name="Caminho 10896" d="M242.974,121.988h.078a.511.511,0,0,0,.428-.556,17.846,17.846,0,0,1-.145-5.07.509.509,0,0,0-.978-.278c-.45,1.618.089,5.336.117,5.5A.506.506,0,0,0,242.974,121.988Z" transform="translate(-165.559 -87.105)" fill="#eb7824"/>
    <path id="Caminho_10897" data-name="Caminho 10897" d="M113.072,215.931a13.235,13.235,0,0,0,4.236-2.324c2.813-2.223,4.447-5,4.558-7.577a.556.556,0,0,0-.189-.411.511.511,0,0,0-.434-.1c-2.1.478-4.208-.817-6.248-2.073-2.579-1.584-5.247-3.224-7.9-1.256h0a4.5,4.5,0,0,0-1.99,3.052c-.295,2.4,1.668,4.8,3.43,6.921,1.039,1.262,2.223,2.7,2.051,3.335a.5.5,0,0,0,.056.4.511.511,0,0,0,.334.233A4.542,4.542,0,0,0,113.072,215.931Zm7.721-9.311a10.29,10.29,0,0,1-4.119,6.192,10.047,10.047,0,0,1-5.07,2.357c-.117-1.023-1.112-2.223-2.285-3.658-1.618-1.957-3.446-4.175-3.2-6.148a3.463,3.463,0,0,1,1.584-2.357h0c2.1-1.556,4.258-.233,6.759,1.306C116.479,205.575,118.553,206.826,120.793,206.62Z" transform="translate(-104.668 -125.111)" fill="#eb7824"/>
    <path id="Caminho_10898" data-name="Caminho 10898" d="M126.472,221.9a3.513,3.513,0,0,0,1.929-1.473,2.489,2.489,0,0,0-.172-3.335.511.511,0,1,0-.656.778c.556.456.4,1.367-.028,2.029a2.34,2.34,0,0,1-3.1.867.508.508,0,1,0-.439.917A3.4,3.4,0,0,0,126.472,221.9Z" transform="translate(-112.948 -132.063)" fill="#eb7824"/>
    <path id="Caminho_10899" data-name="Caminho 10899" d="M107.473,203.629a.478.478,0,0,0,.217-.128.506.506,0,0,0,0-.706,8.489,8.489,0,0,0-1.162-.806.511.511,0,0,0-.7.161.506.506,0,0,0,.161.7,9.237,9.237,0,0,1,.984.667A.523.523,0,0,0,107.473,203.629Z" transform="translate(-104.966 -125.388)" fill="#eb7824"/>
    <path id="Caminho_10900" data-name="Caminho 10900" d="M119.62,200.536a.462.462,0,0,0,.222-.133.511.511,0,0,0,0-.723,13.131,13.131,0,0,0-5.364-2.223.508.508,0,0,0-.139,1.006,12.069,12.069,0,0,1,4.8,1.951A.511.511,0,0,0,119.62,200.536Z" transform="translate(-108.587 -123.407)" fill="#eb7824"/>
    <path id="Caminho_10901" data-name="Caminho 10901" d="M110.424,224.328a.511.511,0,0,0,.361-.556c-.133-1.417-2.007-3.7-2.223-3.952a.511.511,0,0,0-.784.65,9.644,9.644,0,0,1,1.99,3.4.506.506,0,0,0,.556.456A.261.261,0,0,0,110.424,224.328Z" transform="translate(-105.828 -133.275)" fill="#eb7824"/>
    <path id="Caminho_10902" data-name="Caminho 10902" d="M388.993,253.98a6.048,6.048,0,0,0,3.335-.773.556.556,0,0,0,.211-.345.512.512,0,0,0-.111-.389c-.439-.556.056-2.335.556-4.058.762-2.746,1.623-5.853.328-8a4.647,4.647,0,0,0-3.163-2.051h0c-3.335-.739-5.175,1.94-6.948,4.53-1.412,2.057-2.874,4.186-5.069,4.614a.511.511,0,0,0-.361.723c1.173,2.418,3.891,4.33,7.521,5.259a15.07,15.07,0,0,0,3.7.495Zm2.39-1.4c-1.206.528-3.541.506-5.842-.083-3.03-.778-5.375-2.279-6.554-4.169,2.223-.745,3.658-2.84,5.047-4.869,1.729-2.524,3.219-4.7,5.892-4.108h0a3.613,3.613,0,0,1,2.513,1.579c1.067,1.779.272,4.664-.434,7.226-.506,1.862-.939,3.413-.606,4.425Zm-1.345-13.73Z" transform="translate(-225.757 -141.52)" fill="#eb7824"/>
    <path id="Caminho_10903" data-name="Caminho 10903" d="M387.321,265.39a3.43,3.43,0,0,0,2.657-1.29.506.506,0,1,0-.767-.661,2.44,2.44,0,0,1-3.335.489c-.689-.45-1.223-1.262-.895-1.94a.5.5,0,0,0-.233-.678.511.511,0,0,0-.678.233,2.614,2.614,0,0,0,1.245,3.235A3.7,3.7,0,0,0,387.321,265.39Z" transform="translate(-228.487 -151.746)" fill="#eb7824"/>
    <path id="Caminho_10904" data-name="Caminho 10904" d="M400.345,238.716a.506.506,0,0,0,.473-.317,11.316,11.316,0,0,1,.656-1.051.511.511,0,1,0-.845-.556,9.588,9.588,0,0,0-.762,1.256.511.511,0,0,0,.306.65A.658.658,0,0,0,400.345,238.716Z" transform="translate(-235.58 -140.747)" fill="#eb7824"/>
    <path id="Caminho_10905" data-name="Caminho 10905" d="M407.322,250.966a.506.506,0,0,0,.489-.367,15.989,15.989,0,0,0,.689-4.664.5.5,0,0,0-.556-.428.511.511,0,0,0-.428.556,15.145,15.145,0,0,1-.661,4.236.511.511,0,0,0,.35.628Z" transform="translate(-238.688 -144.748)" fill="#eb7824"/>
  </g>
</svg>
