<svg id="Winners-rafiki" xmlns="http://www.w3.org/2000/svg" width="277.935" height="219.324" viewBox="0 0 277.935 219.324">
  <g id="freepik--background-complete--inject-215" transform="translate(0 0)">
    <rect id="Retângulo_599" data-name="Retângulo 599" width="277.935" height="0.139" transform="translate(0 194.221)" fill="#ebebeb"/>
    <rect id="Retângulo_600" data-name="Retângulo 600" width="18.41" height="0.139" transform="translate(231.675 203.165)" fill="#ebebeb"/>
    <rect id="Retângulo_601" data-name="Retângulo 601" width="4.831" height="0.139" transform="translate(179.285 204.677)" fill="#ebebeb"/>
    <rect id="Retângulo_602" data-name="Retângulo 602" width="10.667" height="0.139" transform="translate(220.452 198.006)" fill="#ebebeb"/>
    <rect id="Retângulo_603" data-name="Retângulo 603" width="24.008" height="0.139" transform="translate(29.161 198.94)" fill="#ebebeb"/>
    <rect id="Retângulo_604" data-name="Retângulo 604" width="3.519" height="0.139" transform="translate(58.122 198.94)" fill="#ebebeb"/>
    <rect id="Retângulo_605" data-name="Retângulo 605" width="52.074" height="0.139" transform="translate(73.08 201.286)" fill="#ebebeb"/>
    <path id="Caminho_11081" data-name="Caminho 11081" d="M148.711,212.2H41.378a3.174,3.174,0,0,1-3.168-3.174V58.146A3.174,3.174,0,0,1,41.378,55H148.711a3.174,3.174,0,0,1,3.174,3.174V209.026A3.174,3.174,0,0,1,148.711,212.2ZM41.378,55.111a3.035,3.035,0,0,0-3.029,3.035v150.88a3.035,3.035,0,0,0,3.029,3.035H148.711a3.041,3.041,0,0,0,3.035-3.035V58.146a3.041,3.041,0,0,0-3.035-3.035Z" transform="translate(-16.97 -42.771)" fill="#ebebeb"/>
    <path id="Caminho_11082" data-name="Caminho 11082" d="M365.012,212.2H257.674a3.18,3.18,0,0,1-3.174-3.174V58.146A3.18,3.18,0,0,1,257.674,55H365.012a3.174,3.174,0,0,1,3.163,3.146v150.88A3.174,3.174,0,0,1,365.012,212.2ZM257.674,55.111a3.041,3.041,0,0,0-3.035,3.035v150.88a3.041,3.041,0,0,0,3.035,3.035H365.012a3.041,3.041,0,0,0,3.035-3.035V58.146a3.041,3.041,0,0,0-3.035-3.035Z" transform="translate(-113.031 -42.771)" fill="#ebebeb"/>
    <path id="Caminho_11083" data-name="Caminho 11083" d="M87.954,78h6.982S93,84.848,89.249,86.894c-2.034,1.112-6.359-2.223-6.359-2.223S88.015,82.7,87.954,78Z" transform="translate(-36.814 -52.986)" fill="#ebebeb"/>
    <path id="Caminho_11084" data-name="Caminho 11084" d="M150.335,85.89s-2.023,3.335-4.247,3.819a9.717,9.717,0,0,1-1.479,5.653C148.407,95.084,153.009,90.587,150.335,85.89Z" transform="translate(-64.226 -56.49)" fill="#f5f5f5"/>
    <path id="Caminho_11085" data-name="Caminho 11085" d="M58.717,139.742a6.42,6.42,0,0,1-4.264-2.412c-1.545,1.023-1.3,3.246-1.3,3.246a22.935,22.935,0,0,0,5.559,2.407A11.824,11.824,0,0,0,58.717,139.742Z" transform="translate(-23.602 -79.336)" fill="#e0e0e0"/>
    <path id="Caminho_11086" data-name="Caminho 11086" d="M444.337,201.547a6.491,6.491,0,0,1-4.263-2.407c-1.54,1.017-1.3,3.241-1.3,3.241a22.935,22.935,0,0,0,5.559,2.407,11.824,11.824,0,0,0,0-3.241Z" transform="translate(-194.869 -106.788)" fill="#e0e0e0"/>
    <path id="Caminho_11087" data-name="Caminho 11087" d="M105.425,133.63a27.633,27.633,0,0,1-2.779-4.63s-1.573,1.762-1.479,2.874,3.241,2.59,3.241,2.59Z" transform="translate(-44.929 -75.637)" fill="#f5f5f5"/>
    <path id="Caminho_11088" data-name="Caminho 11088" d="M100.19,45.92c-1.429-1.29-6.47-3.652-6.47-3.652s3.635-1.512,5.559-1.112,3.068,4.125,3.068,4.125Z" transform="translate(-41.624 -36.592)" fill="#f5f5f5"/>
    <path id="Caminho_11089" data-name="Caminho 11089" d="M201.116,74.986a29.056,29.056,0,0,0,4.636-.956,8.89,8.89,0,0,1-2.2,2.874c-1.084.65-3.2-.667-3.2-.667Z" transform="translate(-88.986 -51.223)" fill="#f5f5f5"/>
    <path id="Caminho_11090" data-name="Caminho 11090" d="M407.658,87.924,403,85.461s3.7-3.891,6.921-3.891c1.745,0,3.452,3.724,3.452,3.724S409.276,84.772,407.658,87.924Z" transform="translate(-178.985 -54.571)" fill="#f5f5f5"/>
    <path id="Caminho_11091" data-name="Caminho 11091" d="M337.2,41.684s3.363-2.023,5.559-1.4a9.689,9.689,0,0,1,3.952-4.3C343.2,34.458,337.036,36.281,337.2,41.684Z" transform="translate(-149.758 -34.096)" fill="#f0f0f0"/>
    <path id="Caminho_11092" data-name="Caminho 11092" d="M57.731,211.878s.628-2.529,1.946-3.257a6.431,6.431,0,0,1-.167-3.891C57.159,205.669,55.113,209.416,57.731,211.878Z" transform="translate(-25.096 -109.271)" fill="#f0f0f0"/>
    <path id="Caminho_11093" data-name="Caminho 11093" d="M423.79,35.874A6.509,6.509,0,0,1,426.43,40c1.84-.178,2.663-2.257,2.663-2.257A23.533,23.533,0,0,0,425.3,33,11.873,11.873,0,0,0,423.79,35.874Z" transform="translate(-188.218 -33)" fill="#e6e6e6"/>
    <path id="Caminho_11094" data-name="Caminho 11094" d="M261.072,45.526a3.735,3.735,0,0,1-2.824-.106,2.127,2.127,0,0,0,.195,2.007,13.257,13.257,0,0,0,3.474-.239,7.033,7.033,0,0,0-.845-1.662Z" transform="translate(-114.611 -38.516)" fill="#e6e6e6"/>
    <path id="Caminho_11095" data-name="Caminho 11095" d="M445.27,86.3a27.931,27.931,0,0,1,.289,5.392s2.223-.817,2.651-1.845-1.668-3.808-1.668-3.808Z" transform="translate(-197.758 -56.557)" fill="#ebebeb"/>
    <path id="Caminho_11096" data-name="Caminho 11096" d="M374.065,95.593c-1.467,1.2-4.514,5.753-4.514,5.753s-.934-3.758-.278-5.559,4.447-2.368,4.447-2.368Z" transform="translate(-163.902 -59.834)" fill="#f5f5f5"/>
    <path id="Caminho_11097" data-name="Caminho 11097" d="M95.528,233.575l.434,3.58a12.163,12.163,0,0,1,.156,1.79l-.072,1.79c-.094,2.385-.239,4.769-.461,7.154a.3.3,0,0,1-.328.272.311.311,0,0,1-.272-.272c-.222-2.385-.367-4.769-.461-7.154l-.072-1.79a12.164,12.164,0,0,1,.156-1.79l.434-3.58a.245.245,0,0,1,.272-.217.25.25,0,0,1,.217.217Z" transform="translate(-41.948 -121.985)" fill="#fafafa"/>
    <path id="Caminho_11098" data-name="Caminho 11098" d="M95.528,272.2l.434,3.58a12.084,12.084,0,0,1,.156,1.784l-.072,1.79c-.094,2.385-.239,4.775-.461,7.16a.3.3,0,1,1-.6,0c-.222-2.385-.367-4.775-.461-7.16l-.072-1.79a12.081,12.081,0,0,1,.156-1.784l.434-3.58a.245.245,0,0,1,.489,0Z" transform="translate(-41.948 -139.129)" fill="#f0f0f0"/>
    <path id="Caminho_11099" data-name="Caminho 11099" d="M75.5,265.534l-4.308.428a17.5,17.5,0,0,1-2.151.156l-2.157-.072q-4.314-.133-8.61-.461a.3.3,0,1,1,0-.6c2.868-.222,5.737-.367,8.61-.461l2.151-.072a17.5,17.5,0,0,1,2.151.156l4.308.434a.245.245,0,0,1,.222.272A.25.25,0,0,1,75.5,265.534Z" transform="translate(-25.746 -135.794)" fill="#ebebeb"/>
    <path id="Caminho_11100" data-name="Caminho 11100" d="M106.195,251.111l-1.112,1.734a4.1,4.1,0,0,1-.617.812l-.762.667c-1.023.878-2.073,1.734-3.191,2.524a.306.306,0,0,1-.422-.422c.789-1.112,1.668-2.168,2.524-3.191l.673-.762a3.891,3.891,0,0,1,.823-.6l1.734-1.112a.261.261,0,0,1,.35.078A.256.256,0,0,1,106.195,251.111Z" transform="translate(-44.432 -129.698)" fill="#f0f0f0"/>
    <path id="Caminho_11101" data-name="Caminho 11101" d="M85.412,270.517l-1.551,2.157a6.542,6.542,0,0,1-.817,1.039l-.973.884c-1.312,1.162-2.646,2.3-4.047,3.38a.3.3,0,0,1-.422-.056.311.311,0,0,1,0-.367c1.078-1.4,2.223-2.735,3.38-4.047l.884-.973a6.8,6.8,0,0,1,1.039-.811l2.162-1.551a.245.245,0,0,1,.345.056A.25.25,0,0,1,85.412,270.517Z" transform="translate(-34.439 -138.314)" fill="#fafafa"/>
    <path id="Caminho_11102" data-name="Caminho 11102" d="M79.114,249.474,75.1,246.061a25.5,25.5,0,0,1-1.968-1.745l-1.807-1.907q-3.613-3.808-7.1-7.754a.3.3,0,0,1,0-.417.289.289,0,0,1,.395,0q3.952,3.469,7.782,7.1l1.907,1.8c.639.6,1.167,1.306,1.745,1.968l3.407,4.019a.246.246,0,1,1-.345.35Z" transform="translate(-28.486 -122.341)" fill="#f0f0f0"/>
    <path id="Caminho_11103" data-name="Caminho 11103" d="M339.807,108.347l-3.6.445a12.16,12.16,0,0,1-1.79.156l-1.79-.072c-2.385-.094-4.769-.239-7.154-.461a.306.306,0,0,1-.272-.328.311.311,0,0,1,.272-.272c2.385-.222,4.769-.367,7.154-.461l1.79-.072a12.162,12.162,0,0,1,1.79.156l3.58.434a.245.245,0,0,1,0,.489Z" transform="translate(-144.431 -65.99)" fill="#fafafa"/>
    <path id="Caminho_11104" data-name="Caminho 11104" d="M301.154,108.338l-3.58.434a12.084,12.084,0,0,1-1.784.156l-1.79-.072c-2.385-.094-4.769-.239-7.16-.461a.3.3,0,1,1,0-.6c2.39-.222,4.775-.367,7.16-.461l1.79-.072a12.084,12.084,0,0,1,1.784.156l3.58.434a.245.245,0,0,1,0,.489Z" transform="translate(-127.261 -65.981)" fill="#f0f0f0"/>
    <path id="Caminho_11105" data-name="Caminho 11105" d="M318.369,88.328l-.434-4.308a17.5,17.5,0,0,1-.156-2.151l.072-2.151c.095-2.868.239-5.742.461-8.61a.3.3,0,0,1,.6,0c.222,2.868.367,5.742.461,8.61l.072,2.151a17.48,17.48,0,0,1-.156,2.151l-.434,4.308a.239.239,0,0,1-.267.222A.245.245,0,0,1,318.369,88.328Z" transform="translate(-141.136 -49.801)" fill="#ebebeb"/>
    <path id="Caminho_11106" data-name="Caminho 11106" d="M329.17,119l-1.734-1.112a3.891,3.891,0,0,1-.823-.6l-.673-.778c-.878-1.023-1.734-2.073-2.524-3.191a.306.306,0,0,1,.072-.422.3.3,0,0,1,.35,0c1.112.789,2.168,1.668,3.191,2.524l.762.673a3.891,3.891,0,0,1,.6.823l1.112,1.734a.261.261,0,0,1-.078.35A.256.256,0,0,1,329.17,119Z" transform="translate(-143.615 -68.459)" fill="#f0f0f0"/>
    <path id="Caminho_11107" data-name="Caminho 11107" d="M308.4,98.222l-2.162-1.551a6.805,6.805,0,0,1-1.039-.817l-.884-.973c-1.162-1.312-2.3-2.646-3.38-4.047a.3.3,0,0,1,.056-.422.311.311,0,0,1,.367,0c1.4,1.078,2.735,2.223,4.047,3.38l.973.884a6.8,6.8,0,0,1,.817,1.039l1.551,2.162a.245.245,0,0,1-.345.345Z" transform="translate(-133.624 -58.472)" fill="#fafafa"/>
    <path id="Caminho_11108" data-name="Caminho 11108" d="M323.471,91.937l3.407-4.019a25.507,25.507,0,0,1,1.745-1.968l1.907-1.8q3.813-3.619,7.754-7.1a.3.3,0,0,1,.422.422q-3.48,3.952-7.1,7.782l-1.8,1.907a25.507,25.507,0,0,1-1.968,1.745l-4.019,3.407a.254.254,0,0,1-.345-.372Z" transform="translate(-143.631 -52.532)" fill="#f0f0f0"/>
  </g>
  <g id="freepik--Shadow--inject-215" transform="translate(31.19 206.739)">
    <ellipse id="freepik--path--inject-215" cx="107.777" cy="6.292" rx="107.777" ry="6.292" fill="#f5f5f5"/>
  </g>
  <g id="freepik--character-2--inject-215" transform="translate(158.517 50.37)">
    <path id="Caminho_11109" data-name="Caminho 11109" d="M357.337,182.466c-.356.261-.628.456-.939.661s-.606.395-.912.595c-.606.378-1.223.75-1.84,1.112-1.251.7-2.524,1.356-3.841,1.94a40.154,40.154,0,0,1-4.036,1.568c-.684.245-1.4.434-2.1.628l-1.073.261-.267.067-.189.039-.228.044a5.56,5.56,0,0,1-.978.095,5.5,5.5,0,0,1-1.99-.328,5.964,5.964,0,0,1-1.612-.889,8.421,8.421,0,0,1-1.962-2.223,16.731,16.731,0,0,1-1.823-4.358,33.966,33.966,0,0,1-1.156-8.488,1.6,1.6,0,0,1,3.135-.461v.078a53.365,53.365,0,0,0,2.5,7.276A13.34,13.34,0,0,0,339.694,183a2.836,2.836,0,0,0,.806.728c.217.095.189,0,.183,0a10.953,10.953,0,0,1,1.2-.434c.556-.228,1.162-.434,1.734-.684,1.156-.467,2.3-1.023,3.424-1.584s2.223-1.178,3.335-1.823c.556-.311,1.112-.639,1.629-.973l1.534-.984.128-.083a3.207,3.207,0,1,1,3.625,5.292Z" transform="translate(-306.141 -144.902)" fill="#ffb573"/>
    <path id="Caminho_11110" data-name="Caminho 11110" d="M334.4,174.625l.167-4.625-5.158,1.634a4.08,4.08,0,0,0,2.546,4.091Z" transform="translate(-304.814 -144.216)" fill="#ffb573"/>
    <path id="Caminho_11111" data-name="Caminho 11111" d="M331.546,164.872l-1.89,1.462a1.3,1.3,0,0,0-.5,1.145l.145,1.757,5.158-1.634-.906-2.2a1.306,1.306,0,0,0-2.007-.534Z" transform="translate(-304.703 -141.817)" fill="#ffb573"/>
    <path id="Caminho_11112" data-name="Caminho 11112" d="M370.139,176.691c-3.608.617-7.4,4.519-7.4,4.519s.923,4.247,1.668,8.477C373.946,188.459,376.959,175.529,370.139,176.691Z" transform="translate(-319.621 -147.155)" fill="#eb7824"/>
    <path id="Caminho_11113" data-name="Caminho 11113" d="M368.423,181.132a307.129,307.129,0,0,1,0,33.1l22.618,1.668c1.984-11.873,1.6-23.13,1.818-34.375.061-3.23-.895-6.2-4.113-6.5-1.19-.111-3.891-.145-4.942-.122a81.2,81.2,0,0,0-9.494.667c-.678.117-1.351.25-1.984.4a5,5,0,0,0-3.9,5.17Z" transform="translate(-322.142 -146.387)" fill="#eb7824"/>
    <path id="Caminho_11114" data-name="Caminho 11114" d="M403.48,186.76s1.59,5.2,4.853,6.4c0-2.073.033-4.147.072-6.215Z" transform="translate(-337.715 -151.659)" opacity="0.2"/>
    <path id="Caminho_11115" data-name="Caminho 11115" d="M337.92,242.83S321.595,258.572,316,270.223c-5.82,12.118-16.337,35.153-16.337,35.153l3.457,1.729s20.056-26.092,21.4-33.185c7.315-12.39,25.781-18.1,28.944-28.744A75.708,75.708,0,0,0,337.92,242.83Z" transform="translate(-291.605 -176.562)" fill="#ffb573"/>
    <path id="Caminho_11116" data-name="Caminho 11116" d="M380.341,245.66s-2.468,22.274-1.723,34.658c.823,13.569,7.782,38.11,7.782,38.11l3.335-.172s1.006-20.917-2.824-35.881c2.224-9.922,8.749-24.458,8.56-35.053a100.94,100.94,0,0,0-15.131-1.662Z" transform="translate(-326.611 -177.819)" fill="#ffb573"/>
    <path id="Caminho_11117" data-name="Caminho 11117" d="M396.151,372.862a5.3,5.3,0,0,1-2.157-3.852s-3.98,1.829-3.7,3.335.206,6.331-2.429,9.355c-.367.422.734.912,1.951.456,2.068-.773,2.251-1.545,2.779-3.3.456-1.5,2.718-3.068,3.63-3.924C396.985,374.2,396.985,373.646,396.151,372.862Z" transform="translate(-330.747 -232.602)" fill="#ffb573"/>
    <path id="Caminho_11118" data-name="Caminho 11118" d="M295.72,359.188c.478-1.034.334-2.507,1.551-4.058,0,0-2.223-2.746-3.363-1.745s-4.447,1.807-8.249.556c-.556-.178-.856,1.434.322,1.973,1.957.895,3.4,1.529,5.069,2.29a21.973,21.973,0,0,1,2.74,1.729C294.709,360.428,295.237,360.25,295.72,359.188Z" transform="translate(-285.17 -225.565)" fill="#ffb573"/>
    <path id="Caminho_11119" data-name="Caminho 11119" d="M381.7,167.428c2.724-1.112,2.485-3.491,1.812-5.7l5.87-5.275c-.45,3.13-.989,8.288,1.284,10.245,0,0-1.284,4.252-7.488,5.336C380.751,171.1,380.106,167.968,381.7,167.428Z" transform="translate(-327.655 -138.198)" fill="#ffb573"/>
    <path id="Caminho_11120" data-name="Caminho 11120" d="M389.015,160.25l-3.335,3.157a9.407,9.407,0,0,1,.384,1.668c.895.078,3.291-1.223,3.335-2.613A7.648,7.648,0,0,0,389.015,160.25Z" transform="translate(-329.81 -139.885)" opacity="0.2"/>
    <path id="Caminho_11121" data-name="Caminho 11121" d="M420,134.765l-2.7-4.208,5.247-1.317s1.668,4.213,0,5.292Z" transform="translate(-343.853 -126.113)" fill="#ffb573"/>
    <path id="Caminho_11122" data-name="Caminho 11122" d="M402.693,157.581l.306-.128.378-.172.778-.372c.517-.261,1.034-.556,1.54-.845A27.431,27.431,0,0,0,408.6,154.1a22.618,22.618,0,0,0,2.551-2.329c.384-.422.745-.856,1.112-1.3l.456-.617a3.294,3.294,0,0,0,.272-.467,3.608,3.608,0,0,0,.183-.484,2.78,2.78,0,0,0,.111-.634c.067-.6.139-1.2.161-1.8s.044-1.212.056-1.818a13.328,13.328,0,0,0-.072-1.823,26.966,26.966,0,0,0-.506-3.635c-.128-.6-.256-1.206-.434-1.79-.078-.295-.178-.584-.272-.873l-.272-.795-.083-.228a1.584,1.584,0,0,1,2.779-1.456c.272.372.461.645.667.973s.378.628.556.951c.356.639.667,1.3.962,1.962a24.581,24.581,0,0,1,1.329,4.152,25.938,25.938,0,0,1,.623,4.341c.05.734.05,1.462.044,2.223a7.435,7.435,0,0,1-.095,1.356,8.939,8.939,0,0,1-.361,1.44,10.294,10.294,0,0,1-.589,1.34l-.183.322-.15.256-.3.489a20.154,20.154,0,0,1-1.334,1.879,24.114,24.114,0,0,1-3.152,3.28,26.682,26.682,0,0,1-3.635,2.64c-.645.378-1.3.739-1.979,1.073-.339.167-.678.328-1.034.484l-.556.222-.628.233a3.207,3.207,0,0,1-2.34-5.97Z" transform="translate(-336.405 -127.956)" fill="#ffb573"/>
    <path id="Caminho_11123" data-name="Caminho 11123" d="M399.464,173.2c2.657,0,7.6-2.1,7.6-2.1s2.918,5.381,3.335,8.2a12.913,12.913,0,0,1-7.115,5.181C400.042,182.784,398.569,178.538,399.464,173.2Z" transform="translate(-335.817 -144.704)" fill="#eb7824"/>
    <path id="Caminho_11124" data-name="Caminho 11124" d="M346,267.47s-6.481-2.657-10.139-7.226c4.113-7.871,13.685-19.033,16.5-19.861a22.334,22.334,0,0,1,1.24-2.663l18.344,2.729C370.958,249.354,351.741,263.051,346,267.47Z" transform="translate(-307.683 -174.292)" fill="#263238"/>
    <path id="Caminho_11125" data-name="Caminho 11125" d="M373.953,258.313c-2.513,1.145-5,7.36-5.753,12.279a119.429,119.429,0,0,0,10.617-9.339C376.788,259.641,374.454,258.091,373.953,258.313Z" transform="translate(-322.046 -183.429)" opacity="0.2"/>
    <path id="Caminho_11126" data-name="Caminho 11126" d="M373.865,269.223s4.758,1.323,13.146-.145c1.534-8.416,7.6-21.54,5.631-25.42a4.286,4.286,0,0,0,.245-2.779L370.263,238.1C368.407,240.913,373.665,260.835,373.865,269.223Z" transform="translate(-322.787 -174.461)" fill="#263238"/>
    <path id="Caminho_11127" data-name="Caminho 11127" d="M417.435,124.184l2.863-.556a.884.884,0,0,1,.984.556l.99,2.574-5.247,1.317-.289-2.935a.867.867,0,0,1,.7-.956Z" transform="translate(-343.599 -123.614)" fill="#ffb573"/>
    <path id="Caminho_11128" data-name="Caminho 11128" d="M382.787,139.075c-3.6-.384-5.264,1.773-2.963,5.981C382.709,141.01,382.787,139.075,382.787,139.075Z" transform="translate(-326.739 -130.462)" fill="#263238"/>
    <path id="Caminho_11129" data-name="Caminho 11129" d="M390.837,144.828c-1.045,4.075-1.451,6.509-3.941,8.227-3.741,2.579-8.466-.289-8.655-4.591-.172-3.891,1.562-9.878,5.914-10.745a5.737,5.737,0,0,1,6.682,7.11Z" transform="translate(-326.5 -129.827)" fill="#ffb573"/>
    <path id="Caminho_11130" data-name="Caminho 11130" d="M389.921,145.953l-3.041-1.668s.428-2.529,2.023-3.424a4.8,4.8,0,0,1-2.223-3.674,10.784,10.784,0,0,1-6.671-.611c-2.385-1.44-2.29-4.219-.472-5.275.595,1.845,1.545,2.813,3.791,1.757s5.381-1.44,6.565.322,4.091.345,5.7,1.857a2.735,2.735,0,0,1-.962,4.714C397.4,142.162,394.912,145.475,389.921,145.953Z" transform="translate(-326.485 -127.028)" fill="#263238"/>
    <path id="Caminho_11131" data-name="Caminho 11131" d="M405.61,146.44a3.28,3.28,0,0,1,3.713,2.29C408.417,147.807,406.649,146.49,405.61,146.44Z" transform="translate(-338.661 -133.729)" fill="#263238"/>
    <path id="Caminho_11132" data-name="Caminho 11132" d="M406,145.879a2.585,2.585,0,0,0,3.385-.639A6.26,6.26,0,0,1,406,145.879Z" transform="translate(-338.834 -133.219)" fill="#263238"/>
    <path id="Caminho_11133" data-name="Caminho 11133" d="M399.482,154.922a4,4,0,0,1-2.568,1.668c-1.379.239-1.929-1.028-1.429-2.257.45-1.112,1.712-2.568,3.041-2.223A1.757,1.757,0,0,1,399.482,154.922Z" transform="translate(-334.083 -136.247)" fill="#ffb573"/>
    <path id="Caminho_11134" data-name="Caminho 11134" d="M388.62,149.964a.619.619,0,0,1-.517.556c-.222,0-.345-.35-.278-.684a.619.619,0,0,1,.511-.556C388.554,149.28,388.682,149.63,388.62,149.964Z" transform="translate(-330.754 -135.013)" fill="#263238"/>
    <path id="Caminho_11135" data-name="Caminho 11135" d="M381.793,148.67a.614.614,0,0,1-.511.556c-.217,0-.345-.35-.283-.689s.3-.556.517-.528S381.859,148.336,381.793,148.67Z" transform="translate(-327.723 -134.447)" fill="#263238"/>
    <path id="Caminho_11136" data-name="Caminho 11136" d="M382.6,149.87a12.229,12.229,0,0,1-2.151,2.563,1.979,1.979,0,0,0,1.545.611Z" transform="translate(-327.487 -135.275)" fill="#ed893e"/>
    <path id="Caminho_11137" data-name="Caminho 11137" d="M384.929,157.358a3.012,3.012,0,0,1-.756-.056.106.106,0,0,1-.083-.117.1.1,0,0,1,.122-.078,2.685,2.685,0,0,0,2.362-.623.1.1,0,1,1,.145.139A2.779,2.779,0,0,1,384.929,157.358Z" transform="translate(-329.103 -138.2)" fill="#263238"/>
    <path id="Caminho_11138" data-name="Caminho 11138" d="M391.96,146.433a.211.211,0,0,1-.172-.139,1.612,1.612,0,0,0-.984-1.067.2.2,0,0,1-.139-.245.195.195,0,0,1,.245-.139,1.979,1.979,0,0,1,1.262,1.329.195.195,0,0,1-.128.25A.217.217,0,0,1,391.96,146.433Z" transform="translate(-332.02 -133.039)" fill="#263238"/>
    <path id="Caminho_11139" data-name="Caminho 11139" d="M380.091,144.042a.2.2,0,0,1-.083-.356,1.962,1.962,0,0,1,1.784-.4.195.195,0,0,1,.128.25.2.2,0,0,1-.25.128,1.6,1.6,0,0,0-1.412.334A.211.211,0,0,1,380.091,144.042Z" transform="translate(-327.256 -132.321)" fill="#263238"/>
  </g>
  <g id="freepik--Cup--inject-215" transform="translate(67.282 46.065)">
    <path id="Caminho_11140" data-name="Caminho 11140" d="M238.261,315.759h-9.722L227.01,282.89h12.779Z" transform="translate(-168.104 -190.049)" fill="#eb7824"/>
    <path id="Caminho_11141" data-name="Caminho 11141" d="M239.29,293.517h0a9.544,9.544,0,0,1-11.79,0h0L227,282.9h12.785Z" transform="translate(-168.1 -190.053)" opacity="0.2"/>
    <path id="Caminho_11142" data-name="Caminho 11142" d="M157.7,201.578c-13.491,0-26.32-10.095-29.85-23.48l-6.281-23.863a13.63,13.63,0,0,1,2.168-11.923,13.1,13.1,0,0,1,10.523-5H153.48a4.625,4.625,0,0,1,0,9.244H134.269a3.847,3.847,0,0,0-3.2,1.39,4.447,4.447,0,0,0-.556,3.924l6.292,23.869c2.451,9.3,11.64,16.587,20.912,16.587a4.625,4.625,0,1,1,0,9.244Z" transform="translate(-121.039 -125.391)" fill="#eb7824"/>
    <path id="Caminho_11143" data-name="Caminho 11143" d="M286.177,201.586a4.625,4.625,0,1,1,0-9.244c9.272,0,18.46-7.287,20.912-16.587l6.287-23.869a4.447,4.447,0,0,0-.556-3.924,3.847,3.847,0,0,0-3.2-1.39H290.407a4.625,4.625,0,1,1,0-9.244h19.211a13.1,13.1,0,0,1,10.523,5,13.63,13.63,0,0,1,2.168,11.923l-6.287,23.863C312.492,191.492,299.657,201.586,286.177,201.586Z" transform="translate(-192.257 -125.399)" fill="#eb7824"/>
    <g id="Grupo_16331" data-name="Grupo 16331" transform="translate(16.36 11.929)" opacity="0.2">
      <path id="Caminho_11144" data-name="Caminho 11144" d="M171.171,141.955a4.625,4.625,0,0,0-4.619-4.625H150.47l1.112,9.244h14.97a4.619,4.619,0,0,0,4.619-4.619Z" transform="translate(-150.47 -137.33)"/>
      <path id="Caminho_11145" data-name="Caminho 11145" d="M175.484,231.5a21.638,21.638,0,0,1-14.414-6l.65,5.386a41.284,41.284,0,0,0,1.484,7.071,29.2,29.2,0,0,0,12.279,2.779,4.625,4.625,0,1,0,0-9.244Z" transform="translate(-155.178 -176.489)"/>
      <path id="Caminho_11146" data-name="Caminho 11146" d="M281.67,236.137a4.625,4.625,0,0,0,4.619,4.619,29.205,29.205,0,0,0,12.285-2.779,41.28,41.28,0,0,0,1.484-7.071l.645-5.386a21.616,21.616,0,0,1-14.414,6A4.625,4.625,0,0,0,281.67,236.137Z" transform="translate(-208.74 -176.498)"/>
      <path id="Caminho_11147" data-name="Caminho 11147" d="M294.043,137.33a4.625,4.625,0,0,0,0,9.244h14.964l1.112-9.244Z" transform="translate(-212.252 -137.33)"/>
    </g>
    <rect id="Retângulo_606" data-name="Retângulo 606" width="3.936" height="0.556" transform="translate(57.277)" fill="#eb7824"/>
    <rect id="Retângulo_607" data-name="Retângulo 607" width="14.13" height="0.556" transform="translate(39.723)" fill="#eb7824"/>
    <path id="Caminho_11148" data-name="Caminho 11148" d="M203.953,216.547h0a38.527,38.527,0,0,1-38.4-35.387l-4.83-59.111a2.474,2.474,0,0,1,2.468-2.679h81.529a2.479,2.479,0,0,1,2.468,2.679l-4.831,59.111A38.533,38.533,0,0,1,203.953,216.547Z" transform="translate(-138.66 -117.424)" fill="#eb7824"/>
    <path id="Caminho_11149" data-name="Caminho 11149" d="M196.778,210.823a.967.967,0,0,1-1.056,1.584,32.385,32.385,0,0,1-18.755-26.787l-4.38-53.53a1.473,1.473,0,0,1,1.462-1.59h6.643a1.462,1.462,0,0,1,1.462,1.356L186.416,188a35.82,35.82,0,0,0,10.323,22.791Z" transform="translate(-143.931 -122.368)" fill="#fff" opacity="0.1"/>
    <path id="Caminho_11150" data-name="Caminho 11150" d="M241.129,351.766H201.535a1.7,1.7,0,0,1-1.668-2.012l1.24-6.587a6.854,6.854,0,0,1,6.732-5.586h26.987a6.854,6.854,0,0,1,6.732,5.586l1.24,6.587a1.7,1.7,0,0,1-1.668,2.012Z" transform="translate(-156.036 -214.338)" fill="#eb7824"/>
    <path id="Caminho_11151" data-name="Caminho 11151" d="M242.8,359.48h-42.93a1.7,1.7,0,0,0,1.668,2.012h39.595a1.7,1.7,0,0,0,1.668-2.012Z" transform="translate(-156.036 -224.065)" opacity="0.2"/>
    <rect id="Retângulo_608" data-name="Retângulo 608" width="67.416" height="28.149" rx="3.04" transform="translate(31.585 137.428)" fill="#eb7824"/>
    <rect id="Retângulo_609" data-name="Retângulo 609" width="67.416" height="28.149" rx="3.04" transform="translate(31.585 137.428)" fill="#fff" opacity="0.7"/>
  </g>
  <g id="freepik--character-1--inject-215" transform="translate(58.409 97.572)">
    <path id="Caminho_11152" data-name="Caminho 11152" d="M137.382,216.3c-1.5-7.782,11.067-10.128,16.726-5.164,5.525,4.847,2.646,9.105,10.506,7.827s8.66,6.254,4.547,9,2.457,8.4-4.5,10.839c-8.6,3.018-16.676.284-22.479-2.579S130.484,219.82,137.382,216.3Z" transform="translate(-118.042 -208.53)" fill="#263238"/>
    <path id="Caminho_11153" data-name="Caminho 11153" d="M174.8,307.6s26.91,14.775,25.5,24.114c-3.435,21.045-3.53,32.19-3.53,32.19H193s-3.574-21.056-1.668-31.807c-2.346-4.819-31.24-3.819-29.283-24.519Z" transform="translate(-130.34 -252.521)" fill="#263238"/>
    <path id="Caminho_11154" data-name="Caminho 11154" d="M162.31,315.64c1.112,7.871,7.6,11.779,14.18,14.23C171.626,324.362,166.084,318.464,162.31,315.64Z" transform="translate(-130.496 -256.101)" opacity="0.2"/>
    <path id="Caminho_11155" data-name="Caminho 11155" d="M220.995,407.65h-4.4a.367.367,0,0,0-.378.328l-.445,3.613a.834.834,0,0,0,.839.856c1.934-.033,2.868-.139,5.314-.139,1.5,0,2.418.156,4.5.156s2.085-1.99,1.206-2.173c-3.891-.817-4.447-1.267-5.792-2.335A1.362,1.362,0,0,0,220.995,407.65Z" transform="translate(-154.239 -296.965)" fill="#263238"/>
    <path id="Caminho_11156" data-name="Caminho 11156" d="M177.734,247.414c1.2.372,2.468.773,3.708,1.112s2.5.734,3.741,1.045,2.5.611,3.724.845c.606.106,1.223.222,1.812.289l.445.061.428.033.422.033h.072s-.056.039-.033.044.083-.033.172-.156a3.857,3.857,0,0,0,.5-1.2,17,17,0,0,0,.467-3.524c.067-1.256.056-2.546,0-3.835s-.133-2.618-.233-3.891v-.044a1.223,1.223,0,0,1,2.39-.434,41.044,41.044,0,0,1,1.512,8.143,18.727,18.727,0,0,1-.133,4.447,8.11,8.11,0,0,1-.85,2.546,4.72,4.72,0,0,1-1.112,1.351,4.225,4.225,0,0,1-1.829.884c-.161.033-.334.061-.489.078h-1.573l-.556-.028c-.739-.033-1.44-.122-2.151-.211-1.4-.183-2.779-.439-4.108-.745a69.42,69.42,0,0,1-7.91-2.223,2.457,2.457,0,0,1,1.529-4.664Z" transform="translate(-135.942 -221.144)" fill="#803e3c"/>
    <path id="Caminho_11157" data-name="Caminho 11157" d="M207.755,233.1l-3.235,2.223s.233.395.834,1.356,1.6,1.551,2.507.945C210.112,236.5,207.755,233.1,207.755,233.1Z" transform="translate(-149.243 -219.443)" fill="#7f3e3b"/>
    <path id="Caminho_11158" data-name="Caminho 11158" d="M204.387,232.6l.706-.85a1.3,1.3,0,0,1,2.007,0l.461.556-3.235,2.223-.189-.723A1.3,1.3,0,0,1,204.387,232.6Z" transform="translate(-149.049 -218.634)" fill="#7f3e3b"/>
    <path id="Caminho_11159" data-name="Caminho 11159" d="M166.708,260.662c.222,4.052-.133,11-1.112,23.508H145.919c.311-7.5-.15-10.289-4.575-24.191a2.568,2.568,0,0,1,1.829-3.269,54.018,54.018,0,0,1,5.5-1.112,61.912,61.912,0,0,1,8.822-.778c1.156,0,2.362.05,3.48.117a6.076,6.076,0,0,1,5.731,5.725Z" transform="translate(-121.131 -229.089)" fill="#7f3e3b"/>
    <path id="Caminho_11160" data-name="Caminho 11160" d="M144.238,265.3a15.364,15.364,0,0,1-.256,5.914c-.372-1.329-.789-2.752-1.262-4.308Z" transform="translate(-121.796 -233.744)" opacity="0.2"/>
    <path id="Caminho_11161" data-name="Caminho 11161" d="M166.1,268.876c0-1.868-2.424-4.2-4.119-4.586A13.373,13.373,0,0,1,166.1,268.876Z" transform="translate(-130.35 -233.295)" opacity="0.2"/>
    <path id="Caminho_11162" data-name="Caminho 11162" d="M154.61,238.25c.806,2.779,1.823,7.938,0,10.006,0,0,1.034,2.813,6.309,2.346,5.8-.517,2.513-3.124,2.513-3.124-3.23-.478-3.335-2.829-3-5.086Z" transform="translate(-127.076 -221.73)" fill="#7f3e3b"/>
    <path id="Caminho_11163" data-name="Caminho 11163" d="M158.848,241.29l3.446,2.451a9.1,9.1,0,0,0-.128,1.59c-1.228-.072-3.007-1.251-3.246-2.507A4.18,4.18,0,0,1,158.848,241.29Z" transform="translate(-128.941 -223.08)" opacity="0.2"/>
    <path id="Caminho_11164" data-name="Caminho 11164" d="M145.828,224.947c2.3,4.175,3.18,5.992,6.393,7.176,4.836,1.773,9.45-1.957,8.466-6.737-.906-4.3-4.508-10.411-9.528-10.134a6.5,6.5,0,0,0-5.331,9.694Z" transform="translate(-122.802 -211.512)" fill="#7f3e3b"/>
    <path id="Caminho_11165" data-name="Caminho 11165" d="M142.775,221.382c1.946-2.657,5,3,5.364,4.786s-.467,4.3-3.246,4.1S140.69,224.234,142.775,221.382Z" transform="translate(-121.378 -213.928)" fill="#263238"/>
    <path id="Caminho_11166" data-name="Caminho 11166" d="M142.86,217.373c4.125,2.023,6.52.845,8.188-.2s7.6-.461,6.254-1.807a7.377,7.377,0,0,0-6.809-2.018C147.1,213.876,142.86,217.373,142.86,217.373Z" transform="translate(-121.858 -210.614)" fill="#263238"/>
    <path id="Caminho_11167" data-name="Caminho 11167" d="M111.66,405.829l-4.508-1.24a.345.345,0,0,0-.406.189l-1.612,3.474a.656.656,0,0,0,.428.9c1.579.406,2.223-.083,3.974,1,1.317.812,3.08.9,5.114.9,1.712,0,1.907-1.784,1.162-1.923-3.335-.623-2.979-1.729-3.558-2.868a.928.928,0,0,0-.595-.434Z" transform="translate(-105.078 -295.601)" fill="#263238"/>
    <path id="Caminho_11168" data-name="Caminho 11168" d="M145.771,307.62s-2.84,17.432-5.559,31.618a7.949,7.949,0,0,1-3.252,5.459c-9.694,5.92-24.041,18.522-24.041,18.522L108.75,361.9s13.53-20.867,20.567-21.812c0-5.848-5.559-20.739,2.179-32.463Z" transform="translate(-106.709 -252.539)" fill="#263238"/>
    <path id="Caminho_11169" data-name="Caminho 11169" d="M148.821,305.892a.873.873,0,0,0-.395,1.139c.206.306,12.018.634,15.092.612s6.426-.172,6.231-.723-.072-1.49-.484-1.512S150.05,305.536,148.821,305.892Z" transform="translate(-124.295 -251.556)" fill="#eb7824"/>
    <path id="Caminho_11170" data-name="Caminho 11170" d="M158.745,228.982c.167.35.489.556.717.439s.278-.478.117-.828-.489-.556-.717-.439S158.584,228.61,158.745,228.982Z" transform="translate(-128.871 -217.231)" fill="#263238"/>
    <path id="Caminho_11171" data-name="Caminho 11171" d="M165.91,225.62c.161.35.484.556.712.439s.283-.484.117-.834-.484-.556-.717-.434A.589.589,0,0,0,165.91,225.62Z" transform="translate(-132.046 -215.737)" fill="#263238"/>
    <path id="Caminho_11172" data-name="Caminho 11172" d="M166,224.429l.728-.639S166.6,224.646,166,224.429Z" transform="translate(-132.135 -215.308)" fill="#263238"/>
    <path id="Caminho_11173" data-name="Caminho 11173" d="M164.62,228.05a10.511,10.511,0,0,0,2.3,1.668,1.668,1.668,0,0,1-1.112.823Z" transform="translate(-131.522 -217.2)" fill="#630f0f"/>
    <path id="Caminho_11174" data-name="Caminho 11174" d="M163.11,235.923a3.964,3.964,0,0,0,.556-.2.117.117,0,0,0,.056-.156.111.111,0,0,0-.15-.05,3.074,3.074,0,0,1-2.779,0,.117.117,0,0,0-.156.033.122.122,0,0,0,.033.161A3.207,3.207,0,0,0,163.11,235.923Z" transform="translate(-129.745 -220.509)" fill="#263238"/>
    <path id="Caminho_11175" data-name="Caminho 11175" d="M146.843,237.819a3.48,3.48,0,0,0,2.474.984c1.217-.028,1.479-1.206.839-2.173-.556-.867-1.89-1.907-2.974-1.412a1.568,1.568,0,0,0-.339,2.6Z" transform="translate(-123.384 -220.326)" fill="#7f3e3b"/>
    <path id="Caminho_11176" data-name="Caminho 11176" d="M156.035,226.864a.228.228,0,0,0,.161-.211,2.68,2.68,0,0,1,1.162-1.818.228.228,0,0,0,.061-.317.217.217,0,0,0-.311-.061,3.1,3.1,0,0,0-1.367,2.185.228.228,0,0,0,.222.233Z" transform="translate(-127.578 -215.586)" fill="#263238"/>
    <path id="Caminho_11177" data-name="Caminho 11177" d="M165.837,220.84a.239.239,0,0,0,.156-.161.228.228,0,0,0-.167-.278,2.223,2.223,0,0,0-2.029.422.228.228,0,0,0,0,.322.222.222,0,0,0,.322,0h0a1.818,1.818,0,0,1,1.612-.317A.228.228,0,0,0,165.837,220.84Z" transform="translate(-131.127 -213.764)" fill="#263238"/>
    <path id="Caminho_11178" data-name="Caminho 11178" d="M137.263,263.009c-1.729,1.9-3.474,3.941-5.07,5.981-.8,1.023-1.556,2.073-2.223,3.124a17.785,17.785,0,0,0-1.7,3.118,4.391,4.391,0,0,0-.334,1.234v.15a.438.438,0,0,1,0,.05l.044.178.089.356.133.411a35.792,35.792,0,0,0,1.467,3.5c1.112,2.379,2.374,4.775,3.58,7.165h0a1.223,1.223,0,0,1-2.023,1.345,62.027,62.027,0,0,1-4.953-6.67,29.652,29.652,0,0,1-2.107-3.8l-.233-.556c-.072-.195-.139-.406-.211-.611l-.1-.306c-.033-.128-.072-.306-.1-.45a6.839,6.839,0,0,1-.072-.862,8.711,8.711,0,0,1,.484-2.724,21.891,21.891,0,0,1,1.979-4.113c.75-1.245,1.562-2.407,2.4-3.541s1.7-2.223,2.6-3.3,1.807-2.09,2.813-3.13a2.454,2.454,0,0,1,3.574,3.363Z" transform="translate(-113.237 -230.853)" fill="#803e3c"/>
    <path id="Caminho_11179" data-name="Caminho 11179" d="M158.87,227.789l.723-.639S159.5,228.012,158.87,227.789Z" transform="translate(-128.968 -216.8)" fill="#263238"/>
    <path id="Caminho_11180" data-name="Caminho 11180" d="M138.74,310.74l4.814,1.946-4.319,2.285s-2.579-1.7-2.4-3.685Z" transform="translate(-119.177 -253.925)" fill="#7f3e3b"/>
    <path id="Caminho_11181" data-name="Caminho 11181" d="M146.519,318.187l-2.085.962a.984.984,0,0,1-1.145-.239l-2.129-2.385,4.319-2.285,1.479,2.568a.978.978,0,0,1-.439,1.379Z" transform="translate(-121.103 -255.479)" fill="#7f3e3b"/>
    <path id="Caminho_11182" data-name="Caminho 11182" d="M165.521,257.981a8.912,8.912,0,0,0-1.429-2.9,5.671,5.671,0,0,0-1.973-.339c.856,2.479,3.157,8.416-5.175,9.072s-11.329-7.738-11.329-7.738a3.066,3.066,0,0,0-2.046.528c2.551,6.115,5.142,12.229,1.668,14.191a45.357,45.357,0,0,1,.506,10.478c3.374-.678,16.86-2.529,22.452-1.812-.056-3.763-.228-6.971-.478-9.694C169.807,267.152,166.766,260.443,165.521,257.981Z" transform="translate(-122.173 -229.053)" fill="#eb7824"/>
    <path id="Caminho_11183" data-name="Caminho 11183" d="M165.521,257.981a8.912,8.912,0,0,0-1.429-2.9,5.671,5.671,0,0,0-1.973-.339c.856,2.479,3.157,8.416-5.175,9.072s-11.329-7.738-11.329-7.738a3.066,3.066,0,0,0-2.046.528c2.551,6.115,5.142,12.229,1.668,14.191a45.357,45.357,0,0,1,.506,10.478c3.374-.678,16.86-2.529,22.452-1.812-.056-3.763-.228-6.971-.478-9.694C169.807,267.152,166.766,260.443,165.521,257.981Z" transform="translate(-122.173 -229.053)" fill="#fafafa" opacity="0.8"/>
  </g>
</svg>
