<svg id="Wallet-rafiki" xmlns="http://www.w3.org/2000/svg" width="277.935" height="207.095" viewBox="0 0 277.935 207.095">
  <g id="freepik--background-complete--inject-231" transform="translate(0 0)">
    <rect id="Retângulo_561" data-name="Retângulo 561" width="277.935" height="0.139" transform="translate(0 181.992)" fill="#ebebeb"/>
    <rect id="Retângulo_562" data-name="Retângulo 562" width="12.885" height="0.139" transform="translate(83.403 185.538)" fill="#ebebeb"/>
    <rect id="Retângulo_563" data-name="Retângulo 563" width="31.501" height="0.139" transform="translate(223.515 188.518)" fill="#ebebeb"/>
    <rect id="Retângulo_564" data-name="Retângulo 564" width="31.501" height="0.139" transform="translate(23.747 188.518)" fill="#ebebeb"/>
    <path id="Caminho_11000" data-name="Caminho 11000" d="M148.711,212.2H41.378a3.174,3.174,0,0,1-3.168-3.174V58.146A3.174,3.174,0,0,1,41.378,55H148.711a3.174,3.174,0,0,1,3.174,3.174h0V209.026A3.174,3.174,0,0,1,148.711,212.2ZM41.378,55.111a3.035,3.035,0,0,0-3.029,3.035v150.88a3.035,3.035,0,0,0,3.029,3.035H148.711a3.046,3.046,0,0,0,3.035-3.035V58.146a3.046,3.046,0,0,0-3.035-3.035Z" transform="translate(-16.97 -55)" fill="#ebebeb"/>
    <path id="Caminho_11001" data-name="Caminho 11001" d="M365.012,212.2H257.674a3.185,3.185,0,0,1-3.174-3.174V58.146A3.18,3.18,0,0,1,257.674,55H365.012a3.174,3.174,0,0,1,3.163,3.146v150.88a3.168,3.168,0,0,1-3.163,3.174ZM257.674,55.111a3.046,3.046,0,0,0-3.035,3.035v150.88a3.046,3.046,0,0,0,3.035,3.035H365.012a3.046,3.046,0,0,0,3.035-3.035V58.146a3.046,3.046,0,0,0-3.035-3.035Z" transform="translate(-113.031 -55)" fill="#ebebeb"/>
    <rect id="Retângulo_565" data-name="Retângulo 565" width="12.835" height="44.42" transform="translate(162.303 137.872)" fill="#e6e6e6"/>
    <rect id="Retângulo_566" data-name="Retângulo 566" width="12.835" height="44.42" transform="translate(153.214 137.872)" fill="#e6e6e6"/>
    <path id="Caminho_11002" data-name="Caminho 11002" d="M292.293,377.4h2.435V370.46h-5Z" transform="translate(-128.678 -195.105)" fill="#f0f0f0"/>
    <rect id="Retângulo_567" data-name="Retângulo 567" width="12.835" height="44.42" transform="translate(88.694 137.872)" fill="#e6e6e6"/>
    <rect id="Retângulo_568" data-name="Retângulo 568" width="66.649" height="41.006" transform="translate(99.406 137.872)" fill="#f0f0f0"/>
    <path id="Caminho_11003" data-name="Caminho 11003" d="M268.356,336.2H242.23a2.551,2.551,0,0,1-2.54-2.54V308.695a2.54,2.54,0,0,1,2.54-2.535h26.1a2.54,2.54,0,0,1,2.54,2.535v24.964a2.551,2.551,0,0,1-2.513,2.54ZM242.23,306.738a1.979,1.979,0,0,0-1.979,1.968V333.67a1.979,1.979,0,0,0,1.957,2h26.126a1.979,1.979,0,0,0,1.99-1.962V308.695a1.968,1.968,0,0,0-1.973-1.968Z" transform="translate(-106.454 -166.548)" fill="#e0e0e0"/>
    <path id="Caminho_11004" data-name="Caminho 11004" d="M210.336,336.2H184.21a2.551,2.551,0,0,1-2.54-2.54V308.695a2.54,2.54,0,0,1,2.54-2.535h26.126a2.54,2.54,0,0,1,2.54,2.535h0v24.964A2.546,2.546,0,0,1,210.336,336.2ZM184.21,306.738a1.968,1.968,0,0,0-1.973,1.968V333.67a1.973,1.973,0,0,0,1.973,1.973h26.126a1.984,1.984,0,0,0,1.979-1.973V308.695a1.979,1.979,0,0,0-1.979-1.968Z" transform="translate(-80.685 -166.548)" fill="#e0e0e0"/>
    <path id="Caminho_11005" data-name="Caminho 11005" d="M226.921,316.433a2.451,2.451,0,1,1,2.451-2.457h0a2.457,2.457,0,0,1-2.451,2.457Z" transform="translate(-99.694 -168.933)" fill="#fafafa"/>
    <path id="Caminho_11006" data-name="Caminho 11006" d="M246.688,316.433a2.451,2.451,0,1,1,2.435-2.468v.05a2.446,2.446,0,0,1-2.435,2.418Z" transform="translate(-108.466 -168.933)" fill="#fafafa"/>
    <path id="Caminho_11007" data-name="Caminho 11007" d="M181.26,377.4h-2.44V370.46h5Z" transform="translate(-79.419 -195.105)" fill="#f0f0f0"/>
    <rect id="Retângulo_569" data-name="Retângulo 569" width="12.835" height="44.42" transform="translate(84.609 137.872)" fill="#e6e6e6"/>
    <path id="Caminho_11008" data-name="Caminho 11008" d="M168.867,377.4h2.44V370.46h-5Z" transform="translate(-73.863 -195.105)" fill="#f0f0f0"/>
    <rect id="Retângulo_570" data-name="Retângulo 570" width="66.649" height="41.006" transform="translate(30.795 137.872)" fill="#f0f0f0"/>
    <path id="Caminho_11009" data-name="Caminho 11009" d="M144.926,336.2H118.8a2.54,2.54,0,0,1-2.54-2.54V308.695a2.54,2.54,0,0,1,2.54-2.535h26.1a2.54,2.54,0,0,1,2.54,2.535v24.964a2.54,2.54,0,0,1-2.513,2.54ZM118.8,306.738a1.968,1.968,0,0,0-1.973,1.968V333.67a1.979,1.979,0,0,0,1.957,2H144.91a1.984,1.984,0,0,0,2-1.962V308.695a1.979,1.979,0,0,0-1.973-1.968Z" transform="translate(-51.635 -166.548)" fill="#e0e0e0"/>
    <path id="Caminho_11010" data-name="Caminho 11010" d="M86.933,336.2H60.84a2.54,2.54,0,0,1-2.54-2.54h0V308.695a2.535,2.535,0,0,1,2.54-2.535H86.933a2.535,2.535,0,0,1,2.54,2.535v24.964A2.546,2.546,0,0,1,86.933,336.2ZM60.84,306.738a1.968,1.968,0,0,0-1.979,1.968V333.67a1.979,1.979,0,0,0,1.957,2H86.944a1.973,1.973,0,0,0,1.979-1.973V308.684a1.968,1.968,0,0,0-1.979-1.968Z" transform="translate(-25.893 -166.548)" fill="#e0e0e0"/>
    <path id="Caminho_11011" data-name="Caminho 11011" d="M103.5,316.433a2.451,2.451,0,1,1,2.446-2.457h0a2.446,2.446,0,0,1-2.446,2.457Z" transform="translate(-44.875 -168.933)" fill="#fafafa"/>
    <path id="Caminho_11012" data-name="Caminho 11012" d="M123.268,316.433a2.451,2.451,0,1,1,2.435-2.468v.05a2.446,2.446,0,0,1-2.435,2.418Z" transform="translate(-53.651 -168.933)" fill="#fafafa"/>
    <path id="Caminho_11013" data-name="Caminho 11013" d="M57.835,377.4H55.4V370.46h4.992Z" transform="translate(-24.605 -195.105)" fill="#f0f0f0"/>
    <rect id="Retângulo_571" data-name="Retângulo 571" width="23.88" height="23.88" transform="translate(124.693 14.742)" fill="#ebebeb"/>
    <rect id="Retângulo_572" data-name="Retângulo 572" width="1.056" height="23.88" transform="translate(148.578 14.747)" fill="#e0e0e0"/>
    <rect id="Retângulo_573" data-name="Retângulo 573" width="17.41" height="17.41" transform="translate(127.933 17.982)" fill="#fff"/>
    <path id="Caminho_11014" data-name="Caminho 11014" d="M245.429,102.623h0a4.119,4.119,0,0,1-5.831,0h0a4.125,4.125,0,0,1,0-5.826h0a4.13,4.13,0,0,1,5.831,0h0a4.125,4.125,0,0,1,0,5.826Z" transform="translate(-105.878 -73.028)" fill="#f5f5f5"/>
    <rect id="Retângulo_574" data-name="Retângulo 574" width="27.999" height="27.999" transform="translate(97.183 45.448)" fill="#ebebeb"/>
    <rect id="Retângulo_575" data-name="Retângulo 575" width="1.24" height="27.999" transform="translate(125.182 45.453)" fill="#e0e0e0"/>
    <rect id="Retângulo_576" data-name="Retângulo 576" width="20.412" height="20.412" transform="translate(100.979 49.244)" fill="#fff"/>
    <rect id="Retângulo_577" data-name="Retângulo 577" width="8.705" height="8.705" transform="translate(106.827 55.092)" fill="#f5f5f5"/>
    <rect id="Retângulo_578" data-name="Retângulo 578" width="15.159" height="3.541" transform="translate(235.261 36.443)" fill="#e6e6e6"/>
    <rect id="Retângulo_579" data-name="Retângulo 579" width="62.747" height="3.541" transform="translate(172.514 36.443)" fill="#f5f5f5"/>
    <rect id="Retângulo_580" data-name="Retângulo 580" width="17.666" height="18.805" transform="translate(190.502 17.643)" fill="#e0e0e0"/>
    <rect id="Retângulo_581" data-name="Retângulo 581" width="4.525" height="18.805" transform="translate(185.977 17.643)" fill="#f0f0f0"/>
    <rect id="Retângulo_582" data-name="Retângulo 582" width="13.269" height="21.701" transform="translate(199.529 14.742)" fill="#e6e6e6"/>
    <rect id="Retângulo_583" data-name="Retângulo 583" width="3.835" height="21.701" transform="translate(195.699 14.742)" fill="#f0f0f0"/>
    <rect id="Retângulo_584" data-name="Retângulo 584" width="11.19" height="18.805" transform="translate(203.443 17.643)" fill="#f0f0f0"/>
    <rect id="Retângulo_585" data-name="Retângulo 585" width="2.557" height="18.805" transform="translate(200.886 17.643)" fill="#fafafa"/>
    <rect id="Retângulo_586" data-name="Retângulo 586" width="14.675" height="15.62" transform="translate(212.598 20.823)" fill="#e6e6e6"/>
    <rect id="Retângulo_587" data-name="Retângulo 587" width="3.758" height="15.62" transform="translate(208.84 20.823)" fill="#fafafa"/>
    <rect id="Retângulo_588" data-name="Retângulo 588" width="11.023" height="18.032" transform="translate(220.096 18.416)" fill="#e6e6e6"/>
    <rect id="Retângulo_589" data-name="Retângulo 589" width="3.185" height="18.032" transform="translate(216.911 18.416)" fill="#f0f0f0"/>
    <rect id="Retângulo_590" data-name="Retângulo 590" width="10.706" height="15.62" transform="translate(223.343 20.823)" fill="#f0f0f0"/>
    <rect id="Retângulo_591" data-name="Retângulo 591" width="2.123" height="15.62" transform="translate(221.219 20.823)" fill="#fafafa"/>
    <path id="Caminho_11015" data-name="Caminho 11015" d="M386.2,275.733c4.747-6.2,16.048-8.51,19.956-12.424,5.114-5.131,5.092-12.829.734-15.609-3.78-2.412-16.32,13.9-17.727,15.731a33.9,33.9,0,0,0-7.182,15.436c.106-3.83.206-7.354.289-10.067.261-8.855.589-11.707.745-12.579.556-.434,1.145-.928,1.5-1.2,3.035-2.262,9.761-4.958,13.124-8.244,4.914-4.8,4.119-10.561.673-12.69-3.6-2.223-9.967,3.052-13.341,8.294s-1.934,10.267-2.879,14.586a84.884,84.884,0,0,0-.595,8.594,17.788,17.788,0,0,0-6.859-11.09c-4.653-3.713-8.672-8.238-12.507-7.654s-1.751,6.57,1.262,10.773c2.7,3.741,16.037,7.476,18,10.484-.233,6.115-.439,13.813-.584,21.006-1.051-3.713-.328-4.024-4.636-9.728-2.557-3.38-13.063-7.56-14.308-5.225s.65,6.715,4.614,9.789c3.2,2.479,10.261,2.474,11.935,4.013.384.356,1.668,1.734,2.368,2.529-.172,8.772-.245,16.515-.161,19.161l.689.028c-.033-.684.044-5.147.183-11.056,1.723-3.141,13.341-5,16.9-8.249,3.747-3.419,6.437-7.41,4.83-10.083-1.34-2.223-11.884.8-16.2,4.491a15.345,15.345,0,0,0-5.4,8.61c.095-4.024.211-8.338.317-12.424C382.81,279.946,384.772,277.6,386.2,275.733Z" transform="translate(-159.906 -134.309)" fill="#e6e6e6"/>
    <path id="Caminho_11016" data-name="Caminho 11016" d="M397.523,374.878h-12.04c-.661,0-1.228-.856-1.356-2.046l-.856-7.782h16.459l-.85,7.782C398.74,374.022,398.178,374.878,397.523,374.878Z" transform="translate(-170.222 -192.703)" fill="#f0f0f0"/>
    <path id="Caminho_11017" data-name="Caminho 11017" d="M398.875,363.469H381.726c-.411,0-.756-.556-.8-1.323l-.35-5.759c-.056-.884.317-1.668.8-1.668h17.854c.478,0,.85.773.795,1.668l-.35,5.759C399.636,362.9,399.286,363.469,398.875,363.469Z" transform="translate(-169.023 -188.115)" fill="#f0f0f0"/>
    <g id="freepik--Shadow--inject-62--inject-231" transform="translate(31.19 194.51)">
      <ellipse id="freepik--path--inject-62--inject-231" cx="107.777" cy="6.292" rx="107.777" ry="6.292" fill="#f5f5f5"/>
    </g>
  </g>
  <g id="freepik--Coins--inject-231" transform="translate(91.499 1.226)">
    <path id="Caminho_11018" data-name="Caminho 11018" d="M192.343,143.432c-1.228,2.985-8.46,2.779-16.037-.345s-12.729-8.077-11.5-11.062c.289-.689,1.112-3.274,1.934-3.63,2.824-1.2,8.2,1.49,14.019,3.891,5.42,2.223,11.618,3.674,12.579,6.615C193.916,140.691,192.693,142.581,192.343,143.432Z" transform="translate(-164.613 -88.692)" fill="#eb7824"/>
    <path id="Caminho_11019" data-name="Caminho 11019" d="M193.329,138.933c.461,2.34-.556,3.463-1,4.53s-1.723,1.768-3.519,2.012a6.313,6.313,0,0,1-.678.078,18.568,18.568,0,0,1-4.119-.217,3.706,3.706,0,0,1-.589-.095,32.749,32.749,0,0,1-4.708-1.212l-.556-.189c-.617-.217-1.251-.456-1.884-.717s-1.234-.556-1.829-.817l-.511-.245a33.1,33.1,0,0,1-4.041-2.368l-.456-.322a18.148,18.148,0,0,1-3.074-2.746c-.139-.156-.267-.306-.389-.461-1.2-1.512-1.668-2.957-1.2-4.108.311-.739.978-3.269,1.934-3.635a6.632,6.632,0,0,1,3.6,0l.556.133a86.469,86.469,0,0,1,9.856,3.769c4.213,1.74,9.2,3.546,11.645,5.631a5.567,5.567,0,0,1,.417.389A5,5,0,0,1,193.329,138.933Z" transform="translate(-164.605 -88.724)" opacity="0.2"/>
    <g id="Grupo_16315" data-name="Grupo 16315" transform="translate(1.387 39.086)" opacity="0.2">
      <path id="Caminho_11020" data-name="Caminho 11020" d="M172.258,127.787l-.256.467-4.514,8.077c-.139-.156-.267-.306-.389-.461l4.336-7.749.339-.6Z" transform="translate(-167.1 -127.52)"/>
    </g>
    <g id="Grupo_16316" data-name="Grupo 16316" transform="translate(4.85 42.393)" opacity="0.2">
      <path id="Caminho_11021" data-name="Caminho 11021" d="M178.438,133.726l-4.653,8.338-.456-.322,4.625-8.271Z" transform="translate(-173.33 -133.47)"/>
    </g>
    <g id="Grupo_16317" data-name="Grupo 16317" transform="translate(13.561 47.135)" opacity="0.2">
      <path id="Caminho_11022" data-name="Caminho 11022" d="M193.953,142.295l-4.4,7.877-.556-.189L193.447,142Z" transform="translate(-189 -142)"/>
    </g>
    <g id="Grupo_16318" data-name="Grupo 16318" transform="translate(9.347 44.912)" opacity="0.2">
      <path id="Caminho_11023" data-name="Caminho 11023" d="M186.606,138.295l-4.675,8.377-.511-.245,4.7-8.427Z" transform="translate(-181.42 -138)"/>
    </g>
    <g id="Grupo_16319" data-name="Grupo 16319" transform="translate(18.825 48.675)" opacity="0.2">
      <path id="Caminho_11024" data-name="Caminho 11024" d="M203.345,145.048l-4.286,7.66a3.709,3.709,0,0,1-.589-.094l4.386-7.843Z" transform="translate(-198.47 -144.77)"/>
    </g>
    <path id="Caminho_11025" data-name="Caminho 11025" d="M194.143,140.225c-1.228,2.985-8.371,2.868-15.953-.261s-12.729-8.077-11.5-11.062,8.371-2.863,15.953.261S195.371,137.224,194.143,140.225Z" transform="translate(-165.452 -88.087)" fill="#eb7824"/>
    <path id="Caminho_11026" data-name="Caminho 11026" d="M194.132,140.768c-.867,2.107-6.437,1.812-12.435-.661s-10.156-6.192-9.289-8.3,6.437-1.812,12.44.661S195,138.661,194.132,140.768Z" transform="translate(-168.02 -89.714)" fill="#fff" opacity="0.2"/>
    <path id="Caminho_11027" data-name="Caminho 11027" d="M262.807,104.589c1.979,2.551-1.79,8.727-8.277,13.747s-13.341,7.021-15.314,4.447c-.456-.589-2.3-2.563-2.19-3.485.372-3.041,5.37-6.365,10.35-10.222,4.636-3.591,8.966-8.249,12-7.621C261.212,101.86,262.246,103.867,262.807,104.589Z" transform="translate(-196.767 -76.832)" fill="#eb7824"/>
    <path id="Caminho_11028" data-name="Caminho 11028" d="M259.381,101.54c2.262.767,2.729,2.223,3.435,3.113s.678,2.374,0,4.058c-.078.206-.172.411-.272.623a18.409,18.409,0,0,1-2.223,3.469c-.117.156-.245.306-.372.461a32.648,32.648,0,0,1-3.4,3.491l-.428.372c-.495.428-1.017.856-1.556,1.273s-1.078.812-1.623,1.184c-.15.111-.311.217-.461.322a32.554,32.554,0,0,1-4.069,2.324c-.172.089-.339.161-.5.239a18.344,18.344,0,0,1-3.919,1.3c-.2.044-.395.078-.589.106-1.907.283-3.4,0-4.158-1.006-.489-.634-2.351-2.474-2.19-3.48a6.554,6.554,0,0,1,1.784-3.13c.122-.139.256-.278.395-.422a83.058,83.058,0,0,1,8.171-6.67c3.608-2.779,7.654-6.22,10.673-7.3a5.67,5.67,0,0,1,.556-.172,5.24,5.24,0,0,1,.75-.156Z" transform="translate(-196.776 -76.895)" opacity="0.2"/>
    <g id="Grupo_16320" data-name="Grupo 16320" transform="translate(41.688 38.486)" opacity="0.2">
      <path id="Caminho_11029" data-name="Caminho 11029" d="M240.073,126.44l.278.456,4.758,7.932c-.2.044-.395.078-.589.106l-4.564-7.627-.356-.556Z" transform="translate(-239.6 -126.44)"/>
    </g>
    <g id="Grupo_16321" data-name="Grupo 16321" transform="translate(46.235 37.163)" opacity="0.2">
      <path id="Caminho_11030" data-name="Caminho 11030" d="M248.258,124.06l4.9,8.171c-.172.089-.339.161-.5.239l-4.881-8.127Z" transform="translate(-247.78 -124.06)"/>
    </g>
    <g id="Grupo_16322" data-name="Grupo 16322" transform="translate(54.634 32.127)" opacity="0.2">
      <path id="Caminho_11031" data-name="Caminho 11031" d="M263.368,115l4.641,7.738-.428.372-4.692-7.827Z" transform="translate(-262.89 -115)"/>
    </g>
    <g id="Grupo_16323" data-name="Grupo 16323" transform="translate(50.726 34.467)" opacity="0.2">
      <path id="Caminho_11032" data-name="Caminho 11032" d="M256.344,119.21l4.936,8.221c-.15.111-.311.217-.461.322l-4.958-8.26Z" transform="translate(-255.86 -119.21)"/>
    </g>
    <g id="Grupo_16324" data-name="Grupo 16324" transform="translate(58.536 28.374)" opacity="0.2">
      <path id="Caminho_11033" data-name="Caminho 11033" d="M270.388,108.25l4.514,7.532c-.117.156-.245.306-.372.461l-4.619-7.7Z" transform="translate(-269.91 -108.25)"/>
    </g>
    <ellipse id="Elipse_27" data-name="Elipse 27" cx="14.847" cy="5.842" rx="14.847" ry="5.842" transform="translate(37.187 39.176) rotate(-37.76)" fill="#eb7824"/>
    <ellipse id="Elipse_28" data-name="Elipse 28" cx="11.751" cy="4.13" rx="11.751" ry="4.13" transform="translate(40.928 38.44) rotate(-37.76)" fill="#fff" opacity="0.2"/>
    <path id="Caminho_11034" data-name="Caminho 11034" d="M208.112,76.376c-.634,3.658-8.838,5.2-18.132,3.535s-16.3-5.964-15.653-9.622c.15-.85.411-3.947,1.284-4.564,2.885-2.034,9.589-.334,16.726.934,6.67,1.184,13.969,1.279,15.776,4.352C209.207,72.9,208.3,75.331,208.112,76.376Z" transform="translate(-168.904 -60.57)" fill="#eb7824"/>
    <path id="Caminho_11035" data-name="Caminho 11035" d="M208.108,71.07c1.112,2.524.228,4.03,0,5.342s-1.5,2.407-3.458,3.13c-.239.094-.489.172-.745.25a21.507,21.507,0,0,1-4.692.773,4.065,4.065,0,0,0-.684.039,38.206,38.206,0,0,1-5.6-.206l-.65-.083c-.75-.094-1.523-.206-2.3-.345s-1.523-.295-2.262-.467c-.211-.044-.422-.1-.634-.15a37.212,37.212,0,0,1-5.125-1.668c-.206-.078-.4-.167-.595-.245a21.161,21.161,0,0,1-4.136-2.34c-.195-.139-.372-.278-.556-.422-1.723-1.406-2.607-2.918-2.357-4.325.167-.912.3-3.891,1.279-4.564a7.245,7.245,0,0,1,4.047-.889h.667c3.335.111,7.632,1.039,12.018,1.818,5.17.923,11.223,1.729,14.48,3.474a6.119,6.119,0,0,1,.556.334,5.917,5.917,0,0,1,.745.545Z" transform="translate(-168.9 -60.622)" opacity="0.2"/>
    <g id="Grupo_16325" data-name="Grupo 16325" transform="translate(7.768 3.527)" opacity="0.2">
      <path id="Caminho_11036" data-name="Caminho 11036" d="M182.4,63.733l-.178.584-3.091,10.195c-.195-.139-.372-.278-.556-.422l2.968-9.778.233-.762Z" transform="translate(-178.58 -63.55)"/>
    </g>
    <g id="Grupo_16326" data-name="Grupo 16326" transform="translate(12.46 6.362)" opacity="0.2">
      <path id="Caminho_11037" data-name="Caminho 11037" d="M190.8,68.845l-3.185,10.5c-.206-.078-.4-.167-.595-.245l3.168-10.45Z" transform="translate(-187.02 -68.65)"/>
    </g>
    <g id="Grupo_16327" data-name="Grupo 16327" transform="translate(23.372 9.658)" opacity="0.2">
      <path id="Caminho_11038" data-name="Caminho 11038" d="M210.319,74.769,207.3,84.713l-.65-.083L209.7,74.58Z" transform="translate(-206.65 -74.58)"/>
    </g>
    <g id="Grupo_16328" data-name="Grupo 16328" transform="translate(18.18 8.124)" opacity="0.2">
      <path id="Caminho_11039" data-name="Caminho 11039" d="M201.151,72.02l-3.207,10.562c-.211-.044-.422-.1-.634-.15l3.224-10.612Z" transform="translate(-197.31 -71.82)"/>
    </g>
    <g id="Grupo_16329" data-name="Grupo 16329" transform="translate(29.625 10.097)" opacity="0.2">
      <path id="Caminho_11040" data-name="Caminho 11040" d="M221.524,75.553l-2.941,9.678a4.062,4.062,0,0,0-.684.039l3.007-9.9Z" transform="translate(-217.9 -75.37)"/>
    </g>
    <ellipse id="Elipse_29" data-name="Elipse 29" cx="6.726" cy="17.099" rx="6.726" ry="17.099" transform="translate(4.794 13.244) rotate(-79.91)" fill="#eb7824"/>
    <ellipse id="Elipse_30" data-name="Elipse 30" cx="4.753" cy="13.53" rx="4.753" ry="13.53" transform="translate(9.003 11.992) rotate(-79.91)" fill="#fff" opacity="0.2"/>
  </g>
  <g id="freepik--Wallet--inject-231" transform="translate(34.392 55.901)">
    <path id="Caminho_11041" data-name="Caminho 11041" d="M219.928,253.629l-57.2,3.335a16.853,16.853,0,0,0-5.853,1.423L94.736,286.181a5.2,5.2,0,0,0-3,5.814L102,340.55a5.253,5.253,0,0,0,7.5,3.546l61.329-30.617,56.632-1.9a4.908,4.908,0,0,0,4.719-5.659l-7.576-46.493C224.214,257.031,222.391,253.557,219.928,253.629Z" transform="translate(-75.086 -199.118)" fill="#eb7824"/>
    <path id="Caminho_11042" data-name="Caminho 11042" d="M219.928,253.629l-57.2,3.335a16.853,16.853,0,0,0-5.853,1.423L94.736,286.181a5.2,5.2,0,0,0-3,5.814L102,340.55a5.253,5.253,0,0,0,7.5,3.546l61.329-30.617,56.632-1.9a4.908,4.908,0,0,0,4.719-5.659l-7.576-46.493C224.214,257.031,222.391,253.557,219.928,253.629Z" transform="translate(-75.086 -199.118)" opacity="0.1"/>
    <rect id="Retângulo_592" data-name="Retângulo 592" width="40.829" height="79.484" transform="matrix(0.735, -0.678, 0.678, 0.735, 0.001, 50.569)" fill="#eb7824"/>
    <path id="Caminho_11043" data-name="Caminho 11043" d="M145.756,255.2l-30.022,27.671L61.87,224.437l19.7-18.16,10.322-9.517,1.718,1.868Z" transform="translate(-61.87 -173.861)" fill="#fafafa" opacity="0.5"/>
    <rect id="Retângulo_593" data-name="Retângulo 593" width="36.026" height="74.348" transform="matrix(0.735, -0.678, 0.678, 0.735, 3.725, 50.886)" fill="none" stroke="#eb7824" stroke-miterlimit="10" stroke-width="1"/>
    <ellipse id="Elipse_31" data-name="Elipse 31" cx="7.482" cy="9.383" rx="7.482" ry="9.383" transform="matrix(0.735, -0.678, 0.678, 0.735, 29.905, 63.755)" fill="#eb7824"/>
    <path id="Caminho_11044" data-name="Caminho 11044" d="M131.157,259.156l-10.667,3.685L97.31,206.276l10.322-9.517,1.718,1.868Z" transform="translate(-77.61 -173.861)" opacity="0.1"/>
    <rect id="Retângulo_594" data-name="Retângulo 594" width="40.829" height="79.484" transform="translate(17.242 13.917) rotate(-19.93)" fill="#eb7824"/>
    <rect id="Retângulo_595" data-name="Retângulo 595" width="40.829" height="79.484" transform="translate(17.242 13.917) rotate(-19.93)" fill="#fafafa" opacity="0.5"/>
    <rect id="Retângulo_596" data-name="Retângulo 596" width="36.026" height="74.348" transform="translate(20.55 15.65) rotate(-19.93)" fill="none" stroke="#eb7824" stroke-miterlimit="10" stroke-width="1"/>
    <ellipse id="Elipse_32" data-name="Elipse 32" cx="7.482" cy="9.383" rx="7.482" ry="9.383" transform="translate(39.727 37.634) rotate(-19.93)" fill="#eb7824"/>
    <path id="Caminho_11045" data-name="Caminho 11045" d="M222.048,257.179l-56.421,3.18a16.153,16.153,0,0,0-5.787,1.417L98.617,289.414a5.2,5.2,0,0,0-2.946,5.8l10.267,48.577a5.2,5.2,0,0,0,7.415,3.563l60.423-30.445,55.854-1.768a4.864,4.864,0,0,0,4.647-5.642l-7.6-46.487C226.284,260.592,224.483,257.113,222.048,257.179Z" transform="translate(-76.833 -200.695)" fill="#eb7824"/>
    <line id="Linha_8" data-name="Linha 8" y1="2.979" x2="48.411" transform="translate(91.09 65.189)" fill="none" stroke="#000" stroke-linecap="round" stroke-linejoin="round" stroke-width="2" opacity="0.2"/>
    <line id="Linha_9" data-name="Linha 9" x2="8.844" y2="40.623" transform="translate(85.293 69.42)" fill="none" stroke="#000" stroke-linecap="round" stroke-linejoin="round" stroke-width="2" opacity="0.2"/>
    <path id="Caminho_11046" data-name="Caminho 11046" d="M109.23,346.43l6.237,31.245S120.247,365.28,109.23,346.43Z" transform="translate(-82.904 -240.334)" fill="#fafafa" opacity="0.2"/>
    <path id="Caminho_11047" data-name="Caminho 11047" d="M110.7,328.614c.217.556,55.4-23.124,55.4-23.124a29.039,29.039,0,0,1-15.209,26.348C134.28,341.149,110.7,328.614,110.7,328.614Z" transform="translate(-83.557 -222.152)" fill="#fafafa" opacity="0.2"/>
    <ellipse id="Elipse_33" data-name="Elipse 33" cx="2.39" cy="2.39" rx="2.39" ry="2.39" transform="translate(61.407 102.605)" fill="#eb7824"/>
    <path id="Caminho_11048" data-name="Caminho 11048" d="M210.41,305.49s6.843,10.3,5.186,27.844" transform="translate(-127.841 -222.152)" opacity="0.2"/>
    <g id="Grupo_16330" data-name="Grupo 16330" transform="translate(23.686 68.169)" opacity="0.2">
      <line id="Linha_10" data-name="Linha 10" y1="0.561" x2="1.273" transform="translate(0 25.092)" fill="none" stroke="#fafafa" stroke-linecap="round" stroke-linejoin="round" stroke-width="1"/>
      <line id="Linha_11" data-name="Linha 11" y1="22.78" x2="51.529" transform="translate(3.913 1.145)" fill="none" stroke="#fafafa" stroke-linecap="round" stroke-linejoin="round" stroke-width="1" stroke-dasharray="5.198 5.198"/>
      <line id="Linha_12" data-name="Linha 12" y1="0.561" x2="1.267" transform="translate(56.765)" fill="none" stroke="#fafafa" stroke-linecap="round" stroke-linejoin="round" stroke-width="1"/>
    </g>
    <line id="Linha_13" data-name="Linha 13" y1="2.985" x2="48.411" transform="translate(92.713 74.317)" fill="none" stroke="#000" stroke-linecap="round" stroke-linejoin="round" stroke-width="2" opacity="0.2"/>
    <line id="Linha_14" data-name="Linha 14" y1="2.985" x2="48.411" transform="translate(94.892 85.706)" fill="none" stroke="#000" stroke-linecap="round" stroke-linejoin="round" stroke-width="2" opacity="0.2"/>
  </g>
  <g id="freepik--Character--inject-231" transform="translate(146.321 30.179)">
    <path id="Caminho_11049" data-name="Caminho 11049" d="M283.992,169.56s-1.217,12.968-6.037,14.086a14.541,14.541,0,0,1-8.894-.889l-3.919-3.013-1.912,6.67s2.09,2.84,6.454.873c0,0,7.782,3.424,12.085,0s5.681-12.818,5.681-12.818Z" transform="translate(-263.23 -136.059)" fill="#b97964"/>
    <path id="Caminho_11050" data-name="Caminho 11050" d="M305.766,136.512s-3.363-5.731-1.834-16.12,10.239-11.673,13.6-10.923,6.115,3.98,8.4,10.128,3.135,7.749,6.954,6.67,13.98-4.447,16.809-1.451a7.026,7.026,0,0,1,1.907,6.337s14.136-3.435,12.913,9.172S342.9,164.7,323.493,152.243,305.766,136.512,305.766,136.512Z" transform="translate(-281.13 -109.292)" fill="#263238"/>
    <path id="Caminho_11051" data-name="Caminho 11051" d="M304.3,213.146s-3.841,33.035-3.713,48.527,5.631,52,5.631,52h6.787s-.895-29.194-.767-39.183,1.918-26.515,1.918-26.515,2.173,14.853,4.736,20.1S335.668,291.9,345.53,297.66l4.608-4.23s-10.245-12.674-14.086-18.95-7.293-8.055-8.7-19.728,1.028-30.345-3.068-41.612Z" transform="translate(-279.82 -155.414)" fill="#263238"/>
    <path id="Caminho_11052" data-name="Caminho 11052" d="M322.169,259.08l-2.952-20.94a65.681,65.681,0,0,0,2.257,27.955Z" transform="translate(-287.833 -166.518)" opacity="0.2"/>
    <path id="Caminho_11053" data-name="Caminho 11053" d="M313.23,396.966l.228,6.487,4.553.378.228-.606V396.51Z" transform="translate(-285.437 -236.855)" fill="#b97964"/>
    <path id="Caminho_11054" data-name="Caminho 11054" d="M309.34,392.65l.417,2.429,7.816.189.495-2.918Z" transform="translate(-283.709 -235.007)" fill="#eb7824"/>
    <path id="Caminho_11055" data-name="Caminho 11055" d="M377.59,360.608l7.243-6.748,1.6,2.54-6.22,5.692Z" transform="translate(-314.021 -217.912)" fill="#eb7824"/>
    <path id="Caminho_11056" data-name="Caminho 11056" d="M383.87,363.091l4.78,4.024,3.068-3.608-3.924-4.058Z" transform="translate(-316.81 -220.395)" fill="#b97964"/>
    <path id="Caminho_11057" data-name="Caminho 11057" d="M394.45,366.116l2.891,1.779a1.062,1.062,0,0,1,.239,1.606c-2.1,2.368-7.449,8.383-7.982,8.8-.661.556-1.462-.378-1.668-1.212a9.666,9.666,0,0,0,1.668-3.3,23.608,23.608,0,0,0,0-2.991.984.984,0,0,1,.233-.684l3.23-3.791a1.067,1.067,0,0,1,1.39-.211Z" transform="translate(-318.613 -223.281)" fill="#263238"/>
    <path id="Caminho_11058" data-name="Caminho 11058" d="M313.506,409.293l.6,3.335a1.062,1.062,0,0,1-1.039,1.251c-3.163,0-11.212.033-11.884-.078-.839-.139-.689-1.34-.195-2.04a9.4,9.4,0,0,0,3.558-.973,24.021,24.021,0,0,0,2.223-1.979,1,1,0,0,1,.667-.284l4.975-.117A1.073,1.073,0,0,1,313.506,409.293Z" transform="translate(-279.82 -242.139)" fill="#263238"/>
    <path id="Caminho_11059" data-name="Caminho 11059" d="M323.233,168.992l6.937-4.869s-1.845-7.382-4.58-7.749-16.309-2.952-24.942,0c0,0-3.1.884-4.058,9.594l3.691,1.178s1.323,16.309,2.14,18.822h19.7S322.343,171.943,323.233,168.992Z" transform="translate(-278.046 -129.582)" fill="#eb7824"/>
    <path id="Caminho_11060" data-name="Caminho 11060" d="M338.141,175.848s2.629,7.5,3.1,11.54c0,0-6.248-2.49-7.86-3.63l-1.223-4.391-4.136-2.018-1.228,3.335,3.452,4.28s9.411,8.8,14.18,6.793-1.884-18.977-1.884-18.977Z" transform="translate(-291.459 -137.489)" fill="#b97964"/>
    <path id="Caminho_11061" data-name="Caminho 11061" d="M313.676,117.547s-2.407,4.8-2.224,8.71,2.157,5.5,5.909,6.053c0,0,1.6,5-2.6,5.509-.322.039-.434,1.312-.411,1.518.111.812.917,1.256,1.668,1.445a11.285,11.285,0,0,0,2.407.267,5.609,5.609,0,0,0,4.486-2c.089-.106.934-1.184.934-1.184s-2.007-.995-1.3-7.51a5.409,5.409,0,0,0,2.1-2.6,3.268,3.268,0,0,0,1.6-1.957c.3-1.3-.85-3.1-2.952-1.3,0,0-3.958-2-5.459-9.011a7.021,7.021,0,0,1-4.158,2.057Z" transform="translate(-284.642 -112.045)" fill="#b97964"/>
    <path id="Caminho_11062" data-name="Caminho 11062" d="M316.309,130.888l.339-2.568-1.818,2.012a1.79,1.79,0,0,0,1.479.556Z" transform="translate(-286.147 -117.743)" fill="#a24e3f"/>
    <path id="Caminho_11063" data-name="Caminho 11063" d="M319.39,135.574a3.252,3.252,0,0,0,2.841-.934" transform="translate(-288.172 -120.55)" fill="none" stroke="#222221" stroke-linecap="round" stroke-linejoin="round" stroke-width="0.75"/>
    <path id="Caminho_11064" data-name="Caminho 11064" d="M322.84,121.773a2.513,2.513,0,0,1,2.485.661" transform="translate(-289.705 -114.793)" fill="none" stroke="#222221" stroke-linecap="round" stroke-linejoin="round" stroke-width="1"/>
    <path id="Caminho_11065" data-name="Caminho 11065" d="M315.586,120.833s-1.112-.172-1.607.456" transform="translate(-285.77 -114.408)" fill="none" stroke="#222221" stroke-linecap="round" stroke-linejoin="round" stroke-width="1"/>
    <path id="Caminho_11066" data-name="Caminho 11066" d="M323.477,127.319c-.05.389-.3.673-.556.639s-.428-.372-.378-.762.3-.673.556-.639S323.527,126.93,323.477,127.319Z" transform="translate(-289.569 -116.959)" fill="#222221"/>
    <ellipse id="Elipse_34" data-name="Elipse 34" cx="0.706" cy="0.472" rx="0.706" ry="0.472" transform="matrix(0.129, -0.992, 0.992, 0.129, 28.443, 10.079)" fill="#222221"/>
    <path id="Caminho_11067" data-name="Caminho 11067" d="M322.858,126.254l-.878-.384a.556.556,0,0,0,.878.384Z" transform="translate(-289.323 -116.655)" fill="#222221"/>
    <path id="Caminho_11068" data-name="Caminho 11068" d="M315.018,124.774l-.878-.384a.556.556,0,0,0,.878.384Z" transform="translate(-285.841 -115.998)" fill="#222221"/>
    <path id="Caminho_11069" data-name="Caminho 11069" d="M305.84,208.961v2.318l21.345.178-.573-2.757Z" transform="translate(-282.154 -153.442)" fill="#eb7824"/>
    <path id="Caminho_11070" data-name="Caminho 11070" d="M305.84,208.961v2.318l21.345.178-.573-2.757Z" transform="translate(-282.154 -153.442)" fill="#fff" opacity="0.4"/>
  </g>
</svg>
