<svg xmlns="http://www.w3.org/2000/svg" xmlns:xlink="http://www.w3.org/1999/xlink" width="1200" height="111" viewBox="0 0 1200 111">
  <defs>
    <clipPath id="clip-path">
      <rect id="Retângulo_21" data-name="Retângulo 21" width="1200" height="111" rx="5" transform="translate(360 897)" fill="#e75025"/>
    </clipPath>
  </defs>
  <g id="Grupo_16337" data-name="Grupo 16337" transform="translate(-360 -897)">
    <rect id="Retângulo_20" data-name="Retângulo 20" width="1200" height="111" rx="5" transform="translate(360 897)" fill="#525457"/>
    <g id="Grupo_de_máscara_1" data-name="Grupo de máscara 1" clip-path="url(#clip-path)">
      <g id="Grupo_199" data-name="Grupo 199" transform="translate(-6192.985 -505.329)" opacity="0.1">
        <g id="g12" transform="translate(6574.929 1516.873)">
          <path id="path14" d="M0,0,16.306,1.065h0Z" fill="none" stroke="#fff" stroke-width="1.333"/>
        </g>
        <g id="g16" transform="translate(6574.93 1516.872)">
          <path id="path18" d="M1.428.093h0L-14.876-.972Z" transform="translate(14.876 0.972)" fill="none" stroke="#fff" stroke-width="1.333"/>
        </g>
        <g id="g20" transform="translate(6656.933 1368.329)">
          <path id="path22" d="M0,0V187.688l29.908-19.252V66.339Z" fill="none" stroke="#fff" stroke-width="1.333"/>
        </g>
        <g id="g24" transform="translate(6576.434 1457.708)">
          <path id="path26" d="M0,4.839l14.84.827V-50.4L0-44.147Z" transform="translate(0 50.397)" fill="none" stroke="#fff" stroke-width="1.333"/>
        </g>
        <g id="g28" transform="translate(6552.997 1371.067)">
          <path id="path30" d="M0,6.4,22,22.737,38.28,15.29v0L99.8-12.263v-54.42Z" transform="translate(0 66.684)" fill="none" stroke="#fff" stroke-width="1.333"/>
        </g>
        <g id="g32" transform="translate(6553.007 1516.925)">
          <path id="path34" d="M0,1.426,99.788,24.239V-9.9L38.267-13.835v-.019l-16.408-1Z" transform="translate(0 14.852)" fill="none" stroke="#fff" stroke-width="1.333"/>
        </g>
        <g id="g36" transform="translate(6552.985 1449.586)">
          <path id="path38" d="M0,6.849,19.31-7.531V-56.993L0-71.334Z" transform="translate(0 71.334)" fill="none" stroke="#fff" stroke-width="1.333"/>
        </g>
      </g>
    </g>
  </g>
</svg>
