<svg xmlns="http://www.w3.org/2000/svg" width="25.004" height="25.509" viewBox="0 0 25.004 25.509">
  <g id="google" transform="translate(0.05 0.018)">
    <path id="Caminho_4" data-name="Caminho 4" d="M284.35,225.692a15,15,0,0,0-.22-2.592H272.1v4.911h6.889a5.9,5.9,0,0,1-2.549,3.876v3.187h4.11A12.456,12.456,0,0,0,284.35,225.692Z" transform="translate(-259.396 -212.662)" fill="#4285f4"/>
    <path id="Caminho_5" data-name="Caminho 5" d="M40.3,334.61a12.209,12.209,0,0,0,8.454-3.079l-4.11-3.187a7.735,7.735,0,0,1-11.5-4.044H28.9v3.285A12.756,12.756,0,0,0,40.3,334.61Z" transform="translate(-27.593 -309.119)" fill="#34a853"/>
    <path id="Caminho_6" data-name="Caminho 6" d="M5.543,158.168a7.639,7.639,0,0,1,0-4.883V150H1.307a12.765,12.765,0,0,0,0,11.454Z" transform="translate(0 -142.988)" fill="#fbbc04"/>
    <path id="Caminho_7" data-name="Caminho 7" d="M40.3,5.03A6.931,6.931,0,0,1,45.19,6.942L48.831,3.3A12.258,12.258,0,0,0,40.3-.017a12.752,12.752,0,0,0-11.4,7.03L33.137,10.3A7.629,7.629,0,0,1,40.3,5.03Z" transform="translate(-27.593)" fill="#ea4335"/>
  </g>
</svg>
