<svg xmlns="http://www.w3.org/2000/svg" width="206.983" height="68.843" viewBox="0 0 206.983 68.843">
  <g id="Grupo_1" data-name="Grupo 1" transform="translate(-6552.985 -1368.329)">
    <g id="g12" transform="translate(6560.181 1417.039)">
      <path id="path14" d="M0,0,5.347.349h0Z" fill="#fff"/>
    </g>
    <g id="g16" transform="translate(6560.181 1417.039)">
      <path id="path18" d="M-9.53-.623h0l-5.347-.348Z" transform="translate(14.876 0.972)" fill="#fff"/>
    </g>
    <g id="g20" transform="translate(6587.071 1368.329)">
      <path id="path22" d="M0,0V61.546l9.807-6.313V21.754Z" fill="#fff"/>
    </g>
    <g id="g24" transform="translate(6560.674 1397.638)">
      <path id="path26" d="M0-32.284l4.866.271V-50.4L0-48.348Z" transform="translate(0 50.397)" fill="#fff"/>
    </g>
    <g id="g28" transform="translate(6552.989 1369.227)">
      <path id="path30" d="M0-42.718l7.213,5.357,5.34-2.442h0l20.173-9.034V-66.684Z" transform="translate(0 66.684)" fill="#fff"/>
    </g>
    <g id="g32" transform="translate(6552.992 1417.056)">
      <path id="path34" d="M0-9.514,32.722-2.033V-13.227L12.548-14.518v-.006l-5.38-.327Z" transform="translate(0 14.852)" fill="#fff"/>
    </g>
    <g id="g36" transform="translate(6552.985 1394.975)">
      <path id="path38" d="M0-45.7l6.332-4.715v-16.22L0-71.334Z" transform="translate(0 71.334)" fill="#fff"/>
    </g>
    <g id="g48" transform="translate(6684.489 1397.827)">
      <path id="path50" d="M-34.932-35.633c0-.012,0-.023-.007-.034v-.009h0a.331.331,0,0,0-.32-.249.338.338,0,0,0-.138.03,12.506,12.506,0,0,1-2.357.618,17.886,17.886,0,0,1-2.8.242q-3.675,0-5.149-1.887a8.451,8.451,0,0,1-1.475-5.316,8.144,8.144,0,0,1,1.574-5.22,5.7,5.7,0,0,1,4.758-1.982,11.632,11.632,0,0,1,2.708.291,19.783,19.783,0,0,1,1.9.559l.006,0a.389.389,0,0,0,.09.012.337.337,0,0,0,.331-.287l1.317-5.06a.348.348,0,0,0,.018-.1.336.336,0,0,0-.217-.312,18.036,18.036,0,0,0-3.011-.923,17.754,17.754,0,0,0-3.722-.362,13.584,13.584,0,0,0-5.51,1.06,12.354,12.354,0,0,0-4.106,2.878,12.4,12.4,0,0,0-2.588,4.252,15.065,15.065,0,0,0-.892,5.2,17.983,17.983,0,0,0,.748,5.294,11.042,11.042,0,0,0,2.368,4.228,11.292,11.292,0,0,0,4.134,2.825,15.628,15.628,0,0,0,5.992,1.04,20.7,20.7,0,0,0,4.157-.386,17.872,17.872,0,0,0,2.89-.816,0,0,0,0,0,0,0,.336.336,0,0,0,.211-.312.407.407,0,0,0-.011-.081Z" transform="translate(54.531 55.624)" fill="#fff"/>
    </g>
    <g id="g52" transform="translate(6641.779 1397.97)">
      <path id="path54" d="M-29.01-1.546h0a8.242,8.242,0,0,0-1.148-.311c-.548-.115-1.094-.209-1.643-.292s-1.1-.143-1.641-.191-1.018-.074-1.4-.074a26.352,26.352,0,0,0-5.874.605,44.187,44.187,0,0,0-4.334,1.2l-.005,0a.334.334,0,0,0-.226.317V23.205a.335.335,0,0,0,.336.335h6.53a.335.335,0,0,0,.336-.334h0V4.113a8.946,8.946,0,0,1,1.425-.266,12.845,12.845,0,0,1,1.619-.121,14.138,14.138,0,0,1,2.8.265q1.066.216,1.9.418a.338.338,0,0,0,.113.021.333.333,0,0,0,.329-.294l1.076-5.288a.329.329,0,0,0,.013-.084.337.337,0,0,0-.207-.31" transform="translate(45.285 2.413)" fill="#fff"/>
    </g>
    <g id="g56" transform="translate(6733.283 1397.923)">
      <path id="path58" d="M-38.162-12.319a9.338,9.338,0,0,0-1.787-3.674,8.089,8.089,0,0,0-3.408-2.393,14.863,14.863,0,0,0-5.39-.845,39.008,39.008,0,0,0-6.089.458,41.7,41.7,0,0,0-4.49.922.018.018,0,0,0-.008,0,.334.334,0,0,0-.238.319V6.435a.336.336,0,0,0,.336.335h6.53a.335.335,0,0,0,.336-.335.034.034,0,0,0,0-.015V-12.851c.451-.065.965-.121,1.548-.17s1.126-.073,1.642-.073q2.514,0,3.433,1.45a9.724,9.724,0,0,1,.918,4.929V6.43s0,0,0,.006a.335.335,0,0,0,.334.335h6.533a.334.334,0,0,0,.334-.335V-7.583a19.532,19.532,0,0,0-.531-4.736" transform="translate(59.572 19.231)" fill="#fff"/>
    </g>
    <g id="g60" transform="translate(6613.548 1390.062)">
      <path id="path62" d="M-38.417-4.664C-41.09-6.42-44.923-7.28-49.915-7.28h-9.723a.334.334,0,0,0-.332.334v33.19a.335.335,0,0,0,.336.335h6.868a.336.336,0,0,0,.336-.335h0V-.724c.386-.034.845-.065,1.374-.1s1.072-.048,1.623-.048a19.052,19.052,0,0,1,2.995.219,6.532,6.532,0,0,1,2.3.773,3.864,3.864,0,0,1,1.45,1.473,4.755,4.755,0,0,1,.51,2.319q0,2.9-1.984,3.963a12.38,12.38,0,0,1-5.6,1.062l-.038,0a.334.334,0,0,0-.335.335v0l0,5.764a.335.335,0,0,0,.335.335c4.969-.013,8.656-.913,11.342-2.688Q-34.407,10-34.4,3.962q0-5.99-4.013-8.626" transform="translate(59.971 7.28)" fill="#fff"/>
    </g>
    <g id="g64" transform="translate(6706.022 1397.826)">
      <path id="path66" d="M-38.329-6.546a11.443,11.443,0,0,0-3.932-2.707,12.927,12.927,0,0,0-5.053-.966,12.756,12.756,0,0,0-5,.966,11.705,11.705,0,0,0-3.965,2.707,12.453,12.453,0,0,0-2.612,4.2,15.239,15.239,0,0,0-.94,5.463,15.709,15.709,0,0,0,.919,5.484,12.415,12.415,0,0,0,2.56,4.253,11.3,11.3,0,0,0,3.939,2.731,12.341,12.341,0,0,0,3.56.887s.006,0,.011,0l.019,0a.336.336,0,0,0,.337-.335h0V10.5a.333.333,0,0,0-.242-.318s0,0,0,0a4.3,4.3,0,0,1-2.4-1.773,9.147,9.147,0,0,1-1.353-5.291,8.916,8.916,0,0,1,1.353-5.245,4.4,4.4,0,0,1,3.817-1.91,4.344,4.344,0,0,1,3.793,1.91,9.037,9.037,0,0,1,1.329,5.245,9.271,9.271,0,0,1-1.329,5.291,4.226,4.226,0,0,1-2.4,1.774.338.338,0,0,0-.275.329V16.15a.333.333,0,0,0,.333.335.181.181,0,0,0,.035,0h0a12.35,12.35,0,0,0,3.655-.892,11.292,11.292,0,0,0,3.94-2.731,11.939,11.939,0,0,0,2.514-4.253,16.543,16.543,0,0,0,.869-5.484,15.506,15.506,0,0,0-.919-5.463,12.271,12.271,0,0,0-2.565-4.2" transform="translate(59.833 10.219)" fill="#fff"/>
    </g>
    <g id="g68" transform="translate(6658.533 1397.826)">
      <path id="path70" d="M-21.709,0a12.18,12.18,0,0,0-4.519.87A11.353,11.353,0,0,0-30.12,3.429a12.781,12.781,0,0,0-2.731,4.231,15.542,15.542,0,0,0-1.038,5.919,16.6,16.6,0,0,0,.8,5.222,10.991,10.991,0,0,0,2.466,4.182,11.614,11.614,0,0,0,4.2,2.777,15.973,15.973,0,0,0,5.968,1.016,25.194,25.194,0,0,0,2.705-.145q1.354-.142,2.539-.362a19.918,19.918,0,0,0,2.151-.508,11.556,11.556,0,0,0,1.317-.472c.007,0,.008-.007.012-.01a.335.335,0,0,0,.181-.3c0-.018,0-.034,0-.05v0c0-.008,0-.014,0-.021l-.854-5.159a.334.334,0,0,0-.33-.284.351.351,0,0,0-.142.032,16.256,16.256,0,0,1-2.711.728,20.726,20.726,0,0,1-3.89.365,8.378,8.378,0,0,1-4.932-1.305,4.8,4.8,0,0,1-2.075-3.5l-.022-.028c-.078-.835-.146-1.7-.146-2.16,0-.579.084-1.779.16-2.769l.006,0a10.056,10.056,0,0,1,.46-1.809,4.863,4.863,0,0,1,.893-1.571,4.286,4.286,0,0,1,1.449-1.087,4.858,4.858,0,0,1,2.081-.411,4.569,4.569,0,0,1,2.1.434,4.372,4.372,0,0,1,1.4,1.112,4.464,4.464,0,0,1,.823,1.544,7.531,7.531,0,0,1,.314,1.792h-6.917l0,0a.331.331,0,0,0-.329.334c0,.006,0,.012,0,.018v4.238a.335.335,0,0,0,.334.334h13.421a.334.334,0,0,0,.333-.335v0q.038-.451.072-.989c.034-.5.049-.957.049-1.377q0-6.428-3.142-9.738A11.234,11.234,0,0,0-21.709,0" transform="translate(33.889)" fill="#fff"/>
    </g>
    <g id="g72" transform="translate(6753.134 1393.241)">
      <path id="path74" d="M-6.429-5.837c.444,0,.708-.217.708-.556v-.019c0-.359-.265-.557-.708-.557h-.887v1.132ZM-8-7.583h1.6A1.493,1.493,0,0,1-5.315-7.2a1,1,0,0,1,.291.747v.019a1.063,1.063,0,0,1-.829,1.076l.964,1.349H-5.7l-.87-1.236h-.744v1.236H-8ZM-3.558-5.7v-.019A3.022,3.022,0,0,0-6.61-8.773,3.045,3.045,0,0,0-9.676-5.7v.019A3.019,3.019,0,0,0-6.628-2.617,3.048,3.048,0,0,0-3.558-5.7m-6.478.019V-5.7A3.424,3.424,0,0,1-6.61-9.112,3.39,3.39,0,0,1-3.2-5.714V-5.7A3.423,3.423,0,0,1-6.628-2.278a3.393,3.393,0,0,1-3.408-3.4" transform="translate(10.036 9.112)" fill="#fff"/>
    </g>
    <g id="g76" transform="translate(6613.524 1430.521)">
      <path id="path78" d="M0,0H4.843V1.028h-3.7v1.7H4.424V3.755H1.148V5.511H4.889V6.539H0Z" fill="#fff"/>
    </g>
    <g id="g80" transform="translate(6620.869 1430.521)">
      <path id="path82" d="M0,0H1.066l3.5,4.521V0h1.13V6.539H4.731l-3.6-4.65v4.65H0Z" fill="#fff"/>
    </g>
    <g id="g84" transform="translate(6629.046 1430.41)">
      <path id="path86" d="M0-6.061v-.02A3.329,3.329,0,0,1,3.367-9.461a3.524,3.524,0,0,1,2.512.887l-.73.868a2.549,2.549,0,0,0-1.827-.7A2.211,2.211,0,0,0,1.2-6.1v.017a2.182,2.182,0,0,0,2.22,2.335A2.667,2.667,0,0,0,5-4.24V-5.463H3.329v-1h2.78v2.745A4.156,4.156,0,0,1,3.386-2.7,3.242,3.242,0,0,1,0-6.061" transform="translate(0 9.461)" fill="#fff"/>
    </g>
    <g id="g88" transform="translate(6637.742 1430.521)">
      <path id="path90" d="M0,0H4.843V1.028h-3.7v1.7H4.425V3.755H1.148V5.511H4.89V6.539H0Z" fill="#fff"/>
    </g>
    <g id="g92" transform="translate(6645.089 1430.521)">
      <path id="path94" d="M0,0H1.062l3.5,4.521V0H5.691V6.539H4.729l-3.6-4.65v4.65H0Z" fill="#fff"/>
    </g>
    <g id="g96" transform="translate(6653.553 1430.521)">
      <path id="path98" d="M0,0H1.148V2.717H4.263V0H5.413V6.539H4.263V3.784H1.148V6.539H0Z" fill="#fff"/>
    </g>
    <g id="g100" transform="translate(6661.177 1430.476)">
      <path id="path102" d="M-8.051-7.11-9.179-9.726-10.3-7.11ZM-9.692-11.1h1.062l2.874,6.583H-6.968l-.662-1.577h-3.088l-.673,1.577h-1.176Z" transform="translate(12.568 11.099)" fill="#fff"/>
    </g>
    <g id="g104" transform="translate(6670.205 1430.52)">
      <path id="path106" d="M-5.038-5.781c.821,0,1.344-.43,1.344-1.093v-.018c0-.7-.5-1.085-1.354-1.085H-6.716v2.2ZM-7.864-9.024h2.909a2.623,2.623,0,0,1,1.885.656,1.977,1.977,0,0,1,.542,1.41v.018A1.962,1.962,0,0,1-4.087-4.959l1.764,2.474H-3.676l-1.6-2.278H-6.716v2.278H-7.864Z" transform="translate(7.864 9.024)" fill="#fff"/>
    </g>
    <path id="path108" d="M643.125-309.327h1.147v6.539h-1.147Z" transform="translate(6034.982 1739.848)" fill="#fff"/>
    <g id="g110" transform="translate(6681.531 1430.476)">
      <path id="path112" d="M-8.051-7.11-9.179-9.726-10.3-7.11ZM-9.693-11.1H-8.63l2.876,6.583H-6.968L-7.63-6.092h-3.087l-.672,1.577h-1.178Z" transform="translate(12.568 11.099)" fill="#fff"/>
    </g>
  </g>
</svg>
