<svg xmlns="http://www.w3.org/2000/svg" width="512" height="512" viewBox="0 0 512 512" version="1.1">
	<path d="M 215.246 105.094 L 74.992 207.185 75.246 327.740 L 75.500 448.294 118.500 457.723 C 142.150 462.908, 205.373 476.763, 258.996 488.511 L 356.491 509.872 396.996 484.026 L 437.500 458.180 437.753 319.835 L 438.007 181.489 397.553 92.511 C 375.303 43.573, 356.739 3.413, 356.299 3.268 C 355.860 3.122, 292.386 48.943, 215.246 105.094 M 284 183.549 C 244.675 201.397, 204.850 219.503, 195.500 223.783 L 178.500 231.566 178.245 319.283 C 178.003 402.356, 178.082 407, 179.745 407.004 C 180.710 407.007, 219.750 409.480, 266.500 412.501 C 313.250 415.523, 352.738 417.996, 354.250 417.997 L 357 418 357 284.500 C 357 211.075, 356.663 151.022, 356.250 151.048 C 355.837 151.075, 323.325 165.700, 284 183.549" stroke="none" fill="black" fill-rule="evenodd"/>
</svg>